<svg xmlns="http://www.w3.org/2000/svg" width="50" height="50" viewBox="0 0 50 50" fill="none">
  <g clip-path="url(#clip0_199_682)">
    <path d="M39.7461 50H10.2539C4.5999 50 0 45.4001 0 39.7461V10.2539C0 4.5999 4.5999 0 10.2539 0H39.7461C45.4001 0 50 4.5999 50 10.2539V39.7461C50 45.4001 45.4001 50 39.7461 50Z" fill="#F2F2F2"/>
    <path d="M39.7461 0H25V50H39.7461C45.4001 50 50 45.4001 50 39.7461V10.2539C50 4.5999 45.4001 0 39.7461 0Z" fill="#E5E5E5"/>
    <path d="M39.7461 0H12.6953V14.4531L47.5028 46.4453C49.058 44.6471 50 42.3046 50 39.7461V10.2539C50 4.5999 45.4001 0 39.7461 0Z" fill="#87E694"/>
    <path d="M39.7461 0H25V25.7626L47.5028 46.4453C49.058 44.6471 50 42.3046 50 39.7461V10.2539C50 4.5999 45.4001 0 39.7461 0Z" fill="#66CC70"/>
    <path d="M0 10.2539V39.7461C0 45.4001 4.5999 50 10.2539 50H13.1836V5.56641H1.13584C0.410254 6.97217 0 8.56592 0 10.2539Z" fill="#F9C0C0"/>
    <path d="M6.81055 0.595703C3.92217 1.62861 1.62861 3.92217 0.595703 6.81055L43.1898 49.4047C46.0781 48.3718 48.3717 46.0782 49.4047 43.1898L6.81055 0.595703Z" fill="#FFDC40"/>
    <path d="M25 18.7852V31.2147L43.1896 49.4044C46.0779 48.3715 48.3715 46.0779 49.4045 43.1896L25 18.7852Z" fill="#FFAB15"/>
    <path d="M33.8867 46.0937C27.1558 46.0937 21.6797 40.6176 21.6797 33.8866C21.6797 31.3956 22.4266 28.9981 23.8396 26.9532L25.0607 25.186L27.1827 25.5197C27.4621 25.5637 27.7445 25.5858 28.0273 25.5858C29.3483 25.5867 30.6231 25.0998 31.607 24.2185L33.8867 22.1777L36.1664 24.2184C37.1503 25.0998 38.4251 25.5867 39.7461 25.5858C40.0283 25.5858 40.3125 25.5637 40.5907 25.5199L42.7127 25.1861L43.9338 26.9533C45.3469 28.9981 46.0938 31.3956 46.0938 33.8866C46.0938 40.6176 40.6177 46.0937 33.8867 46.0937Z" fill="white"/>
    <path d="M43.9339 26.9533L42.7128 25.1861L40.5908 25.5199C40.3125 25.5638 40.0283 25.5859 39.7461 25.5859C38.4251 25.5868 37.1504 25.0999 36.1664 24.2186L33.8867 22.1778L31.607 24.2185C30.6231 25.0999 29.3483 25.5868 28.0273 25.5859C27.7451 25.5859 27.4609 25.5638 27.1827 25.5199L25.0607 25.1862L25 25.2741V42.2463C27.2278 44.6133 30.3874 46.0938 33.8867 46.0938C40.6177 46.0938 46.0938 40.6177 46.0938 33.8867C46.0938 31.3957 45.3469 28.9982 43.9339 26.9533ZM34.2773 0C34.2773 8.6834 41.3166 15.7227 50 15.7227V23.0469C37.2716 23.0469 26.9531 12.7284 26.9531 0" fill="#F2F2F2"/>
    <path d="M10.2539 0C9.75654 0 9.26768 0.0363281 8.78906 0.105078V49.8949C9.26768 49.9637 9.75654 50 10.2539 50H17.5781V0H10.2539Z" fill="white"/>
    <path d="M11.7188 0H14.6484V24.0234H11.7188V0Z" fill="#00AAF0"/>
    <path d="M13.1836 38.1836C9.14502 38.1836 5.85938 34.8979 5.85938 30.8594C5.85938 26.8208 9.14502 23.5352 13.1836 23.5352C17.2222 23.5352 20.5078 26.8208 20.5078 30.8594C20.5078 34.8979 17.2222 38.1836 13.1836 38.1836Z" fill="#00C3FF"/>
    <path d="M10.2539 33.7891L13.1836 26.8555L16.1133 33.7891L13.1836 32.8125L10.2539 33.7891Z" fill="white"/>
    <path d="M42.327 28.0633L41.8037 27.306L40.8942 27.449C40.5144 27.5086 40.1306 27.5386 39.7461 27.5387C37.9444 27.5398 36.2057 26.8755 34.8637 25.6733L33.8867 24.7988L32.9098 25.6734C31.5677 26.8756 29.8291 27.5398 28.0273 27.5387C27.6429 27.5386 27.259 27.5086 26.8792 27.449L25.9697 27.306L25.4464 28.0633C24.26 29.7803 23.6328 31.7938 23.6328 33.8863C23.6328 39.5403 28.2327 44.1402 33.8867 44.1402C39.5407 44.1402 44.1406 39.5403 44.1406 33.8863C44.1406 31.7938 43.5135 29.7803 42.327 28.0633ZM33.8867 41.2105C29.8481 41.2105 26.5625 37.9249 26.5625 33.8863C26.5625 33.4235 26.6058 32.9664 26.6901 32.5191H41.0834C41.1684 32.9699 41.2111 33.4276 41.211 33.8863C41.2109 37.9249 37.9253 41.2105 33.8867 41.2105Z" fill="#00C3FF"/>
    <path d="M42.327 28.0633L41.8037 27.306L40.8942 27.449C40.5144 27.5086 40.1306 27.5386 39.7461 27.5387C37.9444 27.5398 36.2057 26.8755 34.8637 25.6733L33.8867 24.7988L32.9098 25.6734C31.5677 26.8756 29.8291 27.5398 28.0273 27.5387C27.6429 27.5386 27.259 27.5086 26.8792 27.449L25.9697 27.306L25.4464 28.0633C25.2881 28.2928 25.1392 28.5288 25 28.7704V38.9976C26.7733 42.0688 30.0926 44.1402 33.8867 44.1402C39.5407 44.1402 44.1406 39.5403 44.1406 33.8863C44.1406 31.7938 43.5135 29.7803 42.327 28.0633ZM33.8867 41.2105C29.8481 41.2105 26.5625 37.9249 26.5625 33.8863C26.5625 33.4235 26.6058 32.9664 26.6901 32.5191H41.0834C41.1684 32.9699 41.2111 33.4276 41.211 33.8863C41.2109 37.9249 37.9253 41.2105 33.8867 41.2105Z" fill="#00AAF0"/>
  </g>
  <defs>
    <clipPath id="clip0_199_682">
      <rect width="50" height="50" fill="white"/>
    </clipPath>
  </defs>
</svg>