<svg width="181" height="286" viewBox="0 0 181 286" fill="none" xmlns="http://www.w3.org/2000/svg">
<g clip-path="url(#clip0_200_734)">
<path d="M134.726 60.4277C134.441 67.6522 133.872 74.8199 133.018 81.9307C132.847 83.1253 134.384 83.5519 134.555 82.4426C134.896 79.769 135.181 77.0669 135.409 74.3363C135.323 73.8244 135.323 73.2271 135.579 72.7151C135.921 68.6193 136.177 64.5235 136.348 60.4277C136.348 59.3184 134.726 59.3184 134.726 60.4277Z" fill="#613909"/>
<path d="M128.919 82.6132C128.749 86.6521 128.578 90.6626 128.407 94.6446C128.407 95.7539 130.029 95.7539 130.029 94.6446C130.2 90.6626 130.371 86.6521 130.542 82.6132C130.627 81.5039 129.005 81.5039 128.919 82.6132Z" fill="#613909"/>
<path d="M36.7125 210.096C34.4927 222.213 32.8706 234.415 31.846 246.702C31.7607 247.812 33.3828 247.812 33.4682 246.702C34.4927 234.529 36.1149 222.469 38.3347 210.523C38.5055 209.413 36.9687 208.987 36.7125 210.096Z" fill="#613909"/>
<path d="M36.0289 243.118C35.8581 246.247 35.6874 249.376 35.5166 252.504C35.5166 253.614 37.1388 253.614 37.1388 252.504C37.3664 249.376 37.5657 246.247 37.7364 243.118C37.7364 242.009 36.1142 242.009 36.0289 243.118Z" fill="#613909"/>
<g filter="url(#filter0_d_200_734)">
<path fill-rule="evenodd" clip-rule="evenodd" d="M180.488 156.594C180.431 156.822 180.346 157.078 180.232 157.362C180.175 157.647 180.118 157.96 180.061 158.301C180.061 158.358 180.061 158.386 180.061 158.386C179.89 158.386 179.748 158.386 179.634 158.386C179.406 158.443 179.207 158.5 179.036 158.557C178.979 158.557 178.923 158.557 178.866 158.557C178.61 158.813 178.268 158.983 177.926 158.983C175.707 159.069 171.95 159.41 169.901 158.13C168.023 157.021 168.023 154.632 167.767 152.498C167.596 151.361 167.454 150.251 167.34 149.171C164.864 137.736 163.754 126.046 161.79 114.527C160.68 107.786 159.058 101.13 157.265 94.5598C156.354 91.3742 155.415 88.217 154.448 85.0882C153.935 83.467 153.167 78.9445 151.545 76.726C151.203 76.726 150.862 76.726 150.52 76.726C147.874 76.6406 145.056 76.8113 142.41 76.2993C142.353 76.2993 142.296 76.2993 142.239 76.2993C141.84 79.3143 141.385 82.3577 140.873 85.4296C139.848 94.6451 138.767 103.861 137.628 113.076C137.031 121.695 136.433 130.313 135.067 138.846C135.75 142.771 136.462 146.696 137.201 150.621C137.315 151.133 137.458 151.617 137.628 152.072C138.311 154.546 139.08 156.936 139.934 159.325C139.99 159.439 140.019 159.552 140.019 159.666C140.19 160.463 140.332 161.259 140.446 162.055C140.218 161.373 139.962 160.662 139.677 159.922L140.873 165.127C141.47 169.991 142.58 174.855 143.69 179.633C144.089 180.998 144.515 182.364 144.971 183.729C146.251 187.91 147.447 192.091 148.471 196.272C148.471 196.329 148.471 196.415 148.471 196.528C148.471 196.528 148.5 196.557 148.557 196.614C151.203 207.877 153.167 219.311 155.387 230.66C155.444 230.831 155.444 231.001 155.387 231.172C156.753 237.828 157.948 244.569 158.802 251.395C158.973 251.566 159.058 251.765 159.058 251.992C159.57 255.918 160.339 259.843 160.51 263.768C160.595 265.048 160.424 265.645 159.997 266.072C160.054 266.242 160.083 266.413 160.083 266.584C160.026 266.641 159.969 266.726 159.912 266.84C158.375 268.12 157.009 269.57 155.131 270.424C153.594 271.021 152.057 271.618 150.435 272.13C150.435 272.244 150.378 272.386 150.264 272.557C144.629 279.98 134.128 282.199 125.334 283.564C114.32 285.271 103.221 284.93 92.1222 284.503C80.5109 283.991 68.5581 284.759 57.1175 283.394C48.3237 282.37 37.9076 280.578 30.7359 274.946C29.4268 274.605 28.1461 274.263 26.8939 273.922C26.7232 273.865 26.524 273.808 26.2963 273.751C23.3935 273.41 20.576 272.557 19.2954 269.144C18.1855 266.072 18.7831 263 19.8076 259.928C19.8645 259.757 19.893 259.558 19.893 259.331C20.0068 258.364 20.1207 257.397 20.2345 256.43C19.893 255.918 20.0638 255.064 20.4906 254.638C22.9666 236.974 27.1501 219.738 31.0774 202.416C31.8743 198.889 32.6996 195.362 33.5534 191.835C36.2001 178.78 39.1029 165.724 42.0057 152.754C42.0057 152.413 42.0911 152.072 42.1765 151.816C42.6318 149.825 43.0872 147.862 43.5425 145.928C42.2619 143.112 42.6034 138.59 42.1765 135.774C41.6073 132.133 40.8958 128.549 40.0421 125.022C39.2737 122.548 38.5906 119.988 38.0784 117.428C36.6554 112.365 34.9763 107.388 33.0411 102.495C32.6996 102.239 32.4435 101.813 32.5289 101.215C32.0166 99.9071 31.4759 98.6272 30.9067 97.3757C29.626 95.4131 28.3454 93.4505 27.3208 91.3173C25.1864 86.9655 23.2227 82.6137 21.0883 78.3472C18.527 74.1376 15.7949 70.0987 12.8921 66.2305C9.7331 62.0493 6.14725 58.0388 4.01281 53.1751C2.47602 51.1272 1.19536 48.9939 0.683095 46.2634C0.626177 45.8083 0.768473 45.467 1.10998 45.2394L2.30527 44.3008C2.36218 44.2439 2.39064 44.2155 2.39064 44.2155C2.61832 43.9311 2.87445 43.732 3.15904 43.6182C3.84206 43.3622 4.52508 43.3622 5.2081 43.3622C7.85479 42.5942 11.7822 43.3622 14.3435 43.6182C17.6732 43.8742 21.0029 44.4715 24.2472 45.2394C24.3611 45.2394 24.4749 45.2394 24.5888 45.2394C27.0932 45.7514 29.5976 46.2634 32.102 46.7754C33.0127 45.467 34.0941 44.3577 35.3463 43.4475C35.3463 43.4475 35.3748 43.4191 35.4317 43.3622C41.9204 33.5493 53.1902 27.6616 65.3138 25.0164C69.3265 23.9071 73.3392 23.3098 77.352 23.3951C77.5227 23.3951 77.665 23.3951 77.7788 23.3951C78.1773 23.3382 78.6042 23.3098 79.0595 23.3098C78.0919 20.1811 77.2097 17.0239 76.4128 13.8382C75.7298 11.1077 74.7906 7.77987 76.3274 5.21999C77.1812 3.68406 78.8888 2.57478 80.9378 1.80681C81.7916 1.23795 82.7592 0.86819 83.8406 0.697531C84.0968 0.697531 84.2675 0.78286 84.5237 0.86819C85.0359 0.754417 85.5767 0.669088 86.1458 0.612202C86.402 0.526872 86.6581 0.441543 86.9142 0.612202C89.7317 0.356214 92.4638 0.697531 94.1713 1.4655C98.6963 3.59873 97.6718 9.82777 96.0496 15.2888C95.9358 18.1332 95.7081 20.9775 95.3666 23.8218C99.2939 24.1631 103.164 24.5897 106.978 25.1017C116.028 26.3817 125.249 28.4296 132.933 32.952C134.356 33.8053 135.722 34.7439 137.031 35.7679C140.275 37.9011 143.007 40.461 144.885 43.7888C145.056 43.9595 145.227 44.1302 145.398 44.3008C145.568 44.3577 145.711 44.4715 145.825 44.6421C146.508 45.4954 146.337 46.2634 144.8 47.2874C144.8 47.3442 144.8 47.3727 144.8 47.3727C144.8 48.226 144.8 49.0793 144.8 49.9326C148.642 49.7619 152.569 49.8472 156.411 50.4445C159.485 50.8712 163.071 51.5538 165.632 53.8577C167.937 55.8203 168.876 58.6362 169.303 61.8787C169.816 65.5478 170.072 69.217 170.328 72.8862C170.755 75.19 171.011 77.6646 171.352 79.9685C171.779 83.3817 172.292 86.8802 172.462 90.2933C173.145 94.3038 173.316 98.3143 173.658 102.41C173.999 107.53 174.853 112.394 175.451 117.428C176.048 122.207 176.39 126.9 177.243 131.593C178.097 136.201 178.866 140.894 179.463 145.587C179.89 149.256 179.976 152.925 180.488 156.594ZM164.437 64.3532C164.437 64.3532 164.437 64.3248 164.437 64.2679C164.38 64.2679 164.351 64.2679 164.351 64.2679C164.351 64.3248 164.38 64.3532 164.437 64.3532ZM157.863 52.4924C157.578 52.4356 157.265 52.3787 156.924 52.3218C157.151 52.4356 157.407 52.5493 157.692 52.6631C157.749 52.6062 157.806 52.5493 157.863 52.4924ZM153.594 68.193C153.594 68.1362 153.622 68.1077 153.679 68.1077C153.622 68.1077 153.565 68.1077 153.509 68.1077C153.509 68.1077 153.537 68.1362 153.594 68.193ZM148.13 51.8098C148.301 51.8667 148.471 51.952 148.642 52.0658C148.756 52.0658 148.87 52.0658 148.984 52.0658C148.984 51.952 149.012 51.8667 149.069 51.8098C148.784 51.8098 148.471 51.8098 148.13 51.8098ZM80.7671 4.19603C80.9378 4.25292 81.1086 4.33825 81.2793 4.45202C81.3362 4.22448 81.3932 3.99693 81.4501 3.76939C81.3362 3.82627 81.1939 3.88316 81.0232 3.94005C80.9663 3.99693 80.8809 4.08226 80.7671 4.19603ZM37.5661 49.5912C37.7369 49.705 37.8792 49.7903 37.993 49.8472C38.6191 50.0748 39.2452 50.3308 39.8713 50.6152C40.6112 50.8427 41.3796 51.0418 42.1765 51.2125C44.0548 51.7245 45.9616 52.208 47.8968 52.6631C52.0518 53.5733 56.2068 54.3412 60.3619 54.967C61.8987 55.1945 63.4639 55.3936 65.0576 55.5643C67.3913 55.6781 69.7249 55.735 72.0586 55.735C95.2812 55.8203 118.077 51.0418 140.787 46.1781C141.413 45.6661 142.04 45.1541 142.666 44.6421C142.609 44.3577 142.523 44.0448 142.41 43.7035C141.897 42.4236 140.873 41.1436 139.677 39.949C134.384 34.9999 126.615 32.1841 120.553 30.3921C112.271 27.8323 103.734 26.8083 95.1105 26.5523C94.6836 30.1362 94.2567 31.3308 90.5001 32.0987C90.0447 32.2125 89.5609 32.3263 89.0487 32.44C88.7072 32.6107 88.1949 32.7814 87.6826 32.7814C87.5119 32.696 87.3411 32.696 87.2557 32.696C85.0359 32.8667 82.7307 32.6107 81.2793 30.5628C81.2224 30.449 81.1655 30.3353 81.1086 30.2215C80.5109 30.1362 80.2548 29.3682 80.5109 28.9415C80.1694 28.0883 79.9987 27.235 79.9133 26.3817C79.7994 25.9835 79.6856 25.6137 79.5718 25.2724C71.034 24.5897 62.6671 26.979 54.9831 30.9894C49.2628 33.976 41.4935 38.0718 37.2246 44.0448C37.1677 44.3293 37.1108 44.6421 37.0539 44.9835C37.0539 45.0972 37.0254 45.1826 36.9685 45.2394C36.627 46.7754 36.5416 48.3966 37.5661 49.5912ZM109.795 145.331C111.958 115.124 115.032 85.0314 119.016 55.0523C116.512 55.6781 114.007 56.3038 111.503 56.9296C111.503 57.1002 111.503 57.2993 111.503 57.5269C110.649 57.6406 109.824 57.8113 109.027 58.0388C109.027 57.8682 109.027 57.6975 109.027 57.5269C102.368 59.0628 95.6227 60.4281 88.8779 60.8547C88.7641 60.8547 88.6502 60.8547 88.5364 60.8547C90.7562 89.696 91.2685 118.623 90.0732 147.549C93.0899 147.436 96.0781 147.208 99.0378 146.867C99.2655 146.924 99.5216 146.952 99.8062 146.952C99.977 146.895 100.176 146.838 100.404 146.781C100.404 146.781 100.404 146.81 100.404 146.867C100.518 146.81 100.603 146.753 100.66 146.696C101.001 146.639 101.343 146.554 101.685 146.44C101.855 146.383 102.054 146.326 102.282 146.269C102.282 146.326 102.254 146.412 102.197 146.525C104.758 146.241 107.291 145.871 109.795 145.416C109.795 145.416 109.795 145.388 109.795 145.331ZM132.933 143.539C132.933 143.539 132.933 143.51 132.933 143.454C131.794 143.169 130.627 143.027 129.432 143.027C120.382 145.501 111.076 147.293 101.855 148.317C101.514 148.744 100.916 148.744 100.404 148.488C96.8749 148.886 93.2891 149.171 89.6463 149.341C89.2194 149.768 88.451 149.853 88.0241 149.427C81.0232 149.711 73.9938 149.626 66.9359 149.171C66.4237 149.683 65.4845 149.768 65.143 149C64.5169 148.943 63.8908 148.886 63.2647 148.829C62.9232 149 62.4963 149 62.1548 148.744C56.9183 148.232 51.6818 147.521 46.4454 146.611C46.3884 146.781 46.3315 146.98 46.2746 147.208C60.7034 150.451 75.3029 151.986 89.9878 151.56C104.16 151.133 118.333 146.611 132.164 143.454C132.449 143.397 132.705 143.425 132.933 143.539ZM132.847 146.013C118.76 149.256 104.417 153.864 89.9878 154.205C75.1322 154.717 60.2765 153.096 45.677 149.768C45.5631 150.507 45.4208 151.218 45.2501 151.901C73.51 161.799 106.38 158.471 134.299 149.085C134.469 149.028 134.612 149 134.726 149L134.128 146.184C133.957 145.843 133.815 145.53 133.701 145.245C133.616 145.587 133.36 145.928 132.847 146.013ZM64.1185 147.123C64.2892 147.18 64.46 147.208 64.6307 147.208C64.8584 147.322 65.1145 147.379 65.3991 147.379H66.6798C66.9075 147.379 67.1067 147.322 67.2774 147.208C67.2774 147.265 67.2774 147.322 67.2774 147.379C74.0507 147.891 80.8524 148.004 87.6826 147.72C88.7925 118.793 88.2803 89.7814 86.0605 60.94C75.9859 61.2814 65.826 59.8308 55.8369 58.0388C61.8987 87.3068 59.6789 117.599 64.1185 147.123ZM33.468 51.4685C31.5043 51.0418 29.626 50.7005 27.7477 49.8472C25.0156 49.449 22.2836 48.9939 19.5515 48.482C18.1855 48.3113 16.791 48.1691 15.368 48.0553C12.7213 47.7993 8.79394 46.5194 6.14725 47.0314C5.6919 46.8607 5.32193 46.7754 5.03734 46.7754C4.9235 46.946 4.75275 47.0029 4.52508 46.946C4.24049 47.1736 4.06973 47.6287 4.01281 48.3113C4.12665 48.7095 4.24049 49.1362 4.35432 49.5912C4.4397 50.3592 4.78121 51.2978 5.2081 52.1511C7.34253 55.1376 10.3307 58.2948 11.0991 59.2335C13.7174 62.6466 16.1364 66.1736 18.3562 69.8143C19.8076 72.2035 21.1737 74.6781 22.3689 77.2379C23.2227 78.6032 24.048 79.9969 24.8449 81.4191C27.7477 86.4535 30.309 91.7439 32.6142 97.0344C32.8419 97.3757 33.0696 97.717 33.2972 98.0583C36.3708 82.699 33.6388 66.9984 33.468 51.4685ZM45.677 141.406C45.677 141.519 45.7054 141.605 45.7623 141.662C45.7623 141.775 45.7623 141.889 45.7623 142.003C45.7623 142.117 45.7623 142.259 45.7623 142.43C45.7623 142.6 45.7908 142.771 45.8477 142.942C45.8477 142.942 45.8762 142.942 45.9331 142.942C46.0469 143.226 46.1892 143.482 46.36 143.71C46.5307 143.88 46.73 144.022 46.9576 144.136C46.9576 144.25 46.9576 144.392 46.9576 144.563C46.9007 144.677 46.8722 144.762 46.8722 144.819C51.7672 145.729 56.6906 146.44 61.6425 146.952C57.3737 117.257 59.5081 86.8802 53.1902 57.5269C53.1333 57.5269 53.1048 57.5269 53.1048 57.5269C53.1617 57.7544 53.2186 57.9535 53.2756 58.1242C52.7064 58.0673 52.1372 58.0104 51.568 57.9535C51.3403 57.9535 51.1411 57.9535 50.9704 57.9535C50.8565 57.9535 50.7427 57.9535 50.6288 57.9535C50.515 57.6691 50.4012 57.3562 50.2873 57.0149C47.3845 56.5029 44.4817 55.9909 41.6642 55.1376C41.4935 55.223 41.2373 55.1377 40.9812 54.967C40.9243 54.9101 40.8674 54.8817 40.8105 54.8817C39.5298 54.455 38.2491 53.943 37.0539 53.1751C36.9969 53.1751 36.94 53.1466 36.8831 53.0897C36.5416 52.9191 36.2285 52.7484 35.9439 52.5778C36.2001 68.705 38.9322 84.9176 35.1755 100.789C36.0293 102.154 36.7977 103.519 37.3954 105.055C38.7614 108.81 38.9322 112.735 39.6152 116.66C40.4689 119.789 41.2658 122.974 42.0057 126.217C43.5425 131.166 45.2501 136.115 45.677 141.406ZM23.2227 255.15C33.468 260.525 44.2255 261.805 55.4954 262.403C57.4875 262.516 59.5081 262.602 61.5572 262.659C64.0331 236.889 64.8015 210.864 64.0331 184.924C63.6916 184.838 63.4355 184.582 63.3501 184.156C63.2932 184.099 63.2362 183.985 63.1793 183.814C61.7279 178.78 59.0812 174.001 54.9831 170.93C51.568 168.37 45.5062 165.98 41.4935 168.284C38.7045 180.458 35.887 192.632 33.0411 204.805C32.2443 208.446 31.4189 212.087 30.5652 215.727C29.4837 221.644 28.4592 227.617 27.4916 233.647C26.5524 239.876 25.784 246.275 24.1619 252.419C23.9057 253.272 23.5642 254.211 23.2227 255.15ZM63.9477 262.829C72.2009 263.227 80.4256 263.626 88.6218 264.024C96.0496 264.451 103.392 264.962 110.82 264.962C110.393 237.316 109.71 209.669 108.429 182.022C108.173 181.766 108.088 181.425 108.088 181.084C108.088 180.799 108.088 180.543 108.088 180.316C104.758 172.21 96.7326 167.687 88.7072 168.028C84.0114 168.199 79.4864 169.82 75.3883 172.38C72.3147 174.343 68.0458 177.159 66.4237 181.084C67.3628 208.304 66.5944 235.609 63.9477 262.829ZM147.191 273.41C146.565 273.638 145.938 273.894 145.312 274.178C143.093 274.263 140.873 274.69 138.653 275.373C136.518 275.885 134.555 276.482 132.506 276.994C131.225 277.165 129.859 277.421 128.578 277.677C127.725 277.847 126.871 277.989 126.017 278.103C119.87 278.957 113.723 279.469 107.49 279.639C107.832 279.696 108.145 279.724 108.429 279.724C103.477 279.81 98.6109 279.724 93.7444 279.724C93.2322 279.668 92.7199 279.611 92.2076 279.554C90.9554 279.497 89.7032 279.44 88.451 279.383C85.4628 279.383 82.4746 279.468 79.4864 279.383C70.1803 279.383 60.8741 279.213 51.568 278.359C46.2746 277.847 40.8958 277.079 35.6024 276.055C43.1156 280.151 53.3609 281.516 61.1303 281.943C70.8633 282.54 80.6817 282.199 90.5001 282.626C100.404 283.052 110.393 283.479 120.382 282.455C129.005 281.516 140.617 279.895 147.191 273.41ZM157.18 261.549C145.825 263.939 134.299 266.328 122.773 267.266C110.82 268.205 98.9524 267.266 87.085 266.669C75.3029 266.072 63.4355 265.56 51.6534 264.877C41.4935 264.195 31.7605 262.488 22.5397 257.795C22.1982 260.013 21.8567 262.317 21.7713 264.536C22.1128 264.422 22.4828 264.422 22.8812 264.536C36.2001 267.778 49.6612 270.224 63.2647 271.874C63.6916 271.618 64.2038 271.448 64.8869 271.618C70.6925 272.642 76.5551 272.983 82.4746 272.642C87.2557 272.301 91.8661 271.789 96.5619 272.301C97.0741 272.187 97.6149 272.13 98.184 272.13C101.77 271.96 105.612 272.301 109.283 272.642C115.886 272.13 122.488 271.846 129.091 271.789C133.587 271.049 138.055 270.111 142.495 268.973C147.276 267.693 152.313 266.669 156.326 263.683C156.611 263.455 156.867 263.313 157.094 263.256C157.151 262.687 157.18 262.118 157.18 261.549ZM136.86 158.471C136.348 158.471 135.921 158.215 135.75 157.874C133.872 157.362 128.066 161.287 126.785 162.055C124.736 163.25 122.773 164.445 120.809 165.81C116.54 168.882 111.674 173.404 110.735 179.121C110.735 179.576 110.763 180.031 110.82 180.486C110.82 180.543 110.82 180.572 110.82 180.572C112.186 208.73 112.869 236.804 113.21 264.962C116.455 264.962 119.614 264.877 122.773 264.621C134.299 263.683 145.739 261.208 157.18 258.904C157.123 257.823 157.037 256.714 156.924 255.576C154.078 243.516 151.659 231.343 149.667 219.055C149.325 216.723 149.012 214.419 148.727 212.144C148.215 209.925 147.731 207.707 147.276 205.488L136.86 158.471ZM134.982 151.645C106.636 161.117 73.2539 164.53 44.6524 154.546C43.7987 158.073 42.9734 161.6 42.1765 165.127C46.4454 163.847 51.6534 165.639 55.1539 167.858C59.4227 170.674 62.4109 174.855 64.2892 179.633C65.9114 176.305 68.8996 173.745 71.8878 171.612C76.4982 168.284 81.7916 165.98 87.3411 165.468C95.8789 164.615 104.331 168.711 108.856 176.391C110.649 170.93 115.26 166.578 119.528 163.506C122.943 161.117 126.7 158.898 130.457 157.106C131.908 156.338 134.299 155.144 136.177 155.4L135.238 151.474C135.181 151.531 135.096 151.588 134.982 151.645ZM140.702 76.3847C140.702 76.1571 140.702 75.958 140.702 75.7874C140.702 75.7305 140.73 75.6736 140.787 75.6167C140.787 75.5598 140.787 75.5314 140.787 75.5314C140.787 75.4176 140.787 75.3038 140.787 75.19C140.787 75.19 140.787 75.1616 140.787 75.1047C140.844 74.8772 140.873 74.6781 140.873 74.5074C140.873 74.4505 140.873 74.3936 140.873 74.3367C140.873 74.1661 140.844 73.9954 140.787 73.8248C140.73 73.5972 140.645 73.3697 140.531 73.1421C141.328 65.8607 142.096 58.5793 142.836 51.2978C142.58 50.9565 142.58 50.4445 142.922 50.1885C142.979 49.5628 143.036 48.937 143.093 48.3113C141.47 49.2499 139.677 49.7619 137.97 50.1885C132.676 52.3218 126.871 53.2604 121.492 54.455C117.508 84.5478 114.406 114.754 112.186 145.075C115.601 144.449 118.988 143.766 122.346 143.027C122.431 142.771 122.602 142.6 122.858 142.515C124.964 141.662 127.098 141.235 129.261 141.235C130.172 141.007 131.054 140.78 131.908 140.552C132.164 140.467 132.335 140.467 132.506 140.638C133.701 131.65 134.839 122.662 135.921 113.674C136.433 107.359 136.945 101.13 137.799 94.9865C138.254 91.687 138.738 88.3876 139.251 85.0882C139.478 83.211 139.677 81.3338 139.848 79.4565C140.104 79.2005 140.36 78.8592 140.446 78.4326C140.56 77.7499 140.645 77.0673 140.702 76.3847ZM168.962 88.3308C168.962 88.1601 168.933 87.9894 168.876 87.8188C168.364 83.3817 167.937 78.9445 167.51 74.5927C167.681 76.6406 167.852 78.6601 168.023 80.6511C168.25 82.4715 168.45 84.2634 168.62 86.0269C168.734 86.8233 168.82 87.5912 168.876 88.3308C168.933 88.3308 168.962 88.3308 168.962 88.3308Z" fill="#613909"/>
</g>
</g>
<defs>
<filter id="filter0_d_200_734" x="0.670898" y="0.513672" width="188.817" height="293.336" filterUnits="userSpaceOnUse" color-interpolation-filters="sRGB">
<feFlood flood-opacity="0" result="BackgroundImageFix"/>
<feColorMatrix in="SourceAlpha" type="matrix" values="0 0 0 0 0 0 0 0 0 0 0 0 0 0 0 0 0 0 127 0" result="hardAlpha"/>
<feOffset dx="5" dy="5"/>
<feGaussianBlur stdDeviation="2"/>
<feComposite in2="hardAlpha" operator="out"/>
<feColorMatrix type="matrix" values="0 0 0 0 0 0 0 0 0 0 0 0 0 0 0 0 0 0 0.25 0"/>
<feBlend mode="normal" in2="BackgroundImageFix" result="effect1_dropShadow_200_734"/>
<feBlend mode="normal" in="SourceGraphic" in2="effect1_dropShadow_200_734" result="shape"/>
</filter>
<clipPath id="clip0_200_734">
<rect width="181" height="285" fill="white" transform="translate(0 0.441406)"/>
</clipPath>
</defs>
</svg>
