<svg xmlns="http://www.w3.org/2000/svg" width="84" height="84" viewBox="0 0 84 84" fill="none">
  <g filter="url(#filter0_d_263_284)">
    <circle cx="39" cy="42" r="38" fill="#DDA15E"/>
  </g>
  <path fill-rule="evenodd" clip-rule="evenodd" d="M43.0324 67.7287C42.9724 67.7566 42.8684 67.7684 42.7204 67.7641C39.9288 69.06 36.4844 69.8927 33.426 69.6707C30.6377 69.3232 27.4667 68.3872 25.1127 66.853C22.8487 65.277 20.4528 63.6528 19.2405 61.0413C17.9928 58.1178 16.4332 55.2297 15.7258 52.0555C14.9767 48.7912 15.4689 45.6073 15.6974 42.327C16.0578 39.0949 16.7655 36.1394 17.8752 33.1067C20.1846 26.9995 24.758 22.4684 29.8878 18.6641C32.4286 16.8279 35.3939 15.6703 38.4716 15.2266C39.4836 15.0487 40.4774 14.9887 41.4529 15.0467C44.3088 14.5966 47.1389 15.0341 49.6312 16.3946C52.5191 17.8999 55.6643 19.7235 57.9444 22.2772C58.951 22.795 59.8611 23.5766 60.3145 24.7891C60.3145 24.7891 60.3284 24.8191 60.3563 24.8791C60.5835 25.2114 60.7647 25.6017 60.8997 26.0498C61.0948 26.47 61.2459 26.8742 61.3531 27.2622C61.4367 27.4423 61.4624 27.5763 61.4303 27.6643C61.5375 28.0523 61.6307 28.4104 61.71 28.7384C62.5686 31.2952 62.9768 34.061 63.2533 36.7786C63.459 38.8723 63.2209 40.953 62.6708 43.0691C62.3202 44.4359 62.0178 45.6709 61.8891 47.0441C61.8569 48.1537 61.5545 49.3886 61.3004 50.4917C60.7021 52.7397 59.2097 55.1838 57.8686 57.0104C56.2926 59.2744 54.6748 61.4484 52.536 63.2074C49.7187 65.391 46.5122 67.2079 43.0324 67.7287ZM60.0924 27.8475C59.9252 27.4873 59.8062 26.9952 59.639 26.635C59.5232 26.5428 59.4375 26.4367 59.3817 26.3166C59.0151 25.6841 58.6185 25.0655 58.1919 24.4609C58.1018 24.5027 57.9217 24.5863 57.6998 24.5799C58.0085 26.1879 57.7833 27.8249 57.6546 29.1981C57.4229 31.057 56.532 32.6746 55.4674 34.1539C54.3063 35.8969 53.187 37.73 51.8523 39.3348C49.0445 42.7179 44.7574 45.0364 42.4288 48.7444C41.3095 50.5775 40.8495 52.6518 39.9039 54.6232C39.7752 54.9748 39.6326 55.2964 39.4761 55.588C39.1995 55.9353 39.0065 56.4627 38.9036 56.9483C38.8392 57.1241 38.7888 57.3299 38.7524 57.5658C38.7524 57.5658 38.7663 57.5958 38.7942 57.6558C38.7299 57.8316 38.6955 57.9935 38.6912 58.1415C38.6591 58.2294 38.6569 58.3033 38.6848 58.3634C38.6526 58.4513 38.6205 58.5392 38.5883 58.6271C38.6162 58.6871 38.644 58.7471 38.6719 58.8072C38.6119 58.835 38.5958 58.879 38.6237 58.939C38.6194 59.087 38.6151 59.2349 38.6108 59.3828C38.5743 59.6187 38.5518 59.8845 38.5432 60.1804C38.5711 60.2404 38.585 60.2705 38.585 60.2705C38.5678 60.8622 38.5506 61.454 38.5335 62.0457C38.5613 62.1057 38.5592 62.1797 38.527 62.2676C38.5785 62.5356 38.616 62.7736 38.6395 62.9816C38.6545 63.4854 38.6995 63.9753 38.7745 64.4513C38.6651 65.1588 38.8806 65.3872 39.2633 65.9758C39.319 66.0958 39.3147 66.2438 39.2504 66.4196C39.3983 66.4239 39.5023 66.4121 39.5624 66.3842C39.736 66.5225 39.9097 66.6608 40.1316 66.6672C40.2516 66.6115 40.3717 66.5558 40.4918 66.5C41.6431 66.6223 42.8009 66.5227 43.9169 66.333C46.7309 65.7928 49.4936 63.9631 51.6742 62.2941C54.0413 60.3195 56.0257 57.7565 57.5663 55.1805C59.1423 52.9165 60.4257 50.0221 60.6413 47.1856C60.7218 45.9442 60.8376 45.0148 61.23 43.738C61.5742 42.5931 61.6965 41.4418 61.867 40.1586C62.208 37.5922 61.8898 34.7846 61.2531 32.2342C60.8962 30.7581 60.5393 29.2819 60.0924 27.8475ZM47.1356 16.6775C46.696 16.5167 46.2705 16.3859 45.8588 16.2851C45.3271 16.24 44.7954 16.195 44.2637 16.1499C42.8004 16.063 41.2406 16.2398 39.8963 16.645C37.2076 17.4553 35.2972 18.9988 33.1166 20.6679C31.3863 22.1278 29.4277 23.8033 28.1283 25.72C26.9608 27.6849 25.9604 30.0101 25.3203 32.168C23.8665 36.3456 23.6057 40.7354 23.2131 45.0771C23.004 47.6917 23.3833 49.9237 24.3802 52.3068C25.2098 54.3297 26.0812 56.4427 27.181 58.3402C27.3204 58.6404 27.4758 58.8966 27.6473 59.1089C27.9303 59.5613 28.1854 59.9537 28.4127 60.286C28.6399 60.6183 28.9272 60.9228 29.2745 61.1994C29.3024 61.2594 29.3463 61.2755 29.4064 61.2477C29.55 61.3999 29.6797 61.5221 29.7955 61.6143C29.8555 61.5864 29.8995 61.6025 29.9274 61.6625C30.131 61.7869 30.3347 61.9113 30.5384 62.0356C30.5984 62.0078 30.6424 62.0239 30.6702 62.0839C30.7581 62.1161 30.816 62.1622 30.8439 62.2222C30.9597 62.3144 31.0754 62.4066 31.1912 62.4988C31.307 62.591 31.4228 62.6832 31.5385 62.7754C31.5385 62.7754 31.5525 62.8054 31.5803 62.8654C31.7518 63.0777 31.9094 63.26 32.0531 63.4122C33.304 64.6922 34.7351 65.8887 36.073 65.7054C36.1009 65.7655 36.1448 65.7816 36.2048 65.7537C36.2649 65.7258 36.3549 65.684 36.475 65.6283C36.5029 65.6883 36.5168 65.7183 36.5168 65.7183C37.2372 65.3839 37.6103 64.7729 37.7197 64.0653C37.724 63.9174 37.7283 63.7695 37.7326 63.6215C37.7369 63.4736 37.7412 63.3257 37.7455 63.1777C37.7541 62.8818 37.7348 62.5259 37.6876 62.11C37.6641 61.902 37.5944 61.7519 37.4786 61.6597C37.4872 61.3639 37.4379 61.0219 37.3307 60.6338C36.9031 58.5337 36.2471 56.6491 36.3116 54.43C36.3696 52.4329 36.3311 50.6994 36.7428 48.7569C37.6564 44.8302 40.1393 41.9263 43.1432 39.4372C46.2855 36.7745 50.4149 35.2953 52.9108 31.9476C54.0171 30.5583 55.413 28.3779 55.5128 26.4708C55.5997 25.0075 54.799 23.5184 54.574 22.0905C54.1977 21.28 53.7315 20.5114 53.2169 19.8746C51.4321 18.6234 49.1616 17.2694 47.1356 16.6775ZM37.7651 56.3822C37.9646 55.6329 38.3377 55.0219 38.6207 54.4526C39.1868 53.3142 39.4409 52.2111 39.9169 51.1145C40.586 49.4904 41.2968 47.9564 42.445 46.6572C43.8215 45.1425 45.42 43.6343 47.012 42.3479C50.2442 39.6434 52.65 36.3374 54.8403 32.8031C55.7731 31.2756 56.1237 29.9088 56.3489 28.2718C55.7152 30.2078 54.4577 32.2146 53.0811 33.7293C51.2479 35.6749 49.0802 36.9001 46.8643 38.2571C44.42 39.8296 42.0529 41.8041 40.255 44.0617C37.6209 47.5831 37.1318 52.1885 37.7169 56.5141C37.7769 56.4862 37.793 56.4423 37.7651 56.3822ZM39.0381 67.6127C36.9155 67.2846 35.1596 66.5673 33.2847 65.358C32.2846 64.6182 31.2844 63.8785 30.2424 63.0487C29.5478 62.4955 28.7149 62.1159 28.2486 61.3473C28.0171 61.1629 27.7716 60.9485 27.5122 60.704C25.692 59.1409 24.8817 56.4523 23.8784 54.2911C22.9587 52.3099 21.8718 49.9686 21.8944 47.6595C21.9235 45.1285 22.1745 42.6039 22.4255 40.0793C22.7956 34.9819 24.3942 30.4088 26.7486 25.8132C27.6942 23.8418 29.3827 22.2918 31.023 20.8736C32.5314 19.4071 34.1716 17.9889 35.9791 16.931C33.4223 17.7895 31.0745 19.0983 28.8875 20.9892C26.6523 23.012 24.2433 24.8965 22.439 27.3759C20.773 29.6818 19.5025 32.1323 18.5794 34.8595C17.6498 37.8085 17.2122 40.6386 16.9001 43.7389C16.588 46.8391 16.4142 49.7657 17.3016 52.8564C18.0219 55.5868 19.3178 58.3784 20.5784 60.858C21.8389 63.3377 24.9712 65.6051 27.4282 66.6537C29.7116 67.564 32.0849 68.4324 34.4841 68.4133C36.1275 68.4166 37.6037 68.0597 39.0381 67.6127Z" fill="#5A2F0E"/>
  <path d="M30.9802 60.6687C30.5235 61.0996 31.1699 61.7846 31.5366 61.3955C34.9747 57.7198 38.7119 54.4525 43.5907 53.1728C43.7644 53.3111 44.1664 53.2339 44.131 52.9219C44.131 52.9219 44.1471 52.878 44.1793 52.7901C44.1857 52.5682 43.8802 52.3816 43.7001 52.4652C38.6058 53.5166 34.2447 56.8546 30.9802 60.6687Z" fill="#5A2F0E"/>
  <path d="M30.9014 66.3968C32.0271 64.3418 33.2365 62.4669 35.4042 61.2417C35.8544 61.0327 35.5618 60.4023 35.1115 60.6114C32.7702 61.6983 31.4226 63.7468 29.9849 65.8371C29.7018 66.4064 30.6184 66.966 30.9014 66.3968Z" fill="#5A2F0E"/>
  <path d="M54.6544 52.9196C53.979 54.7656 52.0621 56.5311 50.5183 57.6856C48.4761 59.1809 46.3084 60.4061 44.2308 61.5895C43.5104 61.9239 44.0538 63.0946 44.7324 62.6701C47.0802 61.3613 49.5663 59.8788 51.705 58.1198C53.207 56.8753 55.1303 54.8878 55.5421 52.9454C55.5485 52.7235 55.4231 52.4533 55.2012 52.4469C55.1411 52.4747 55.1111 52.4887 55.1111 52.4887C54.7992 52.524 54.6609 52.6977 54.6544 52.9196Z" fill="#5A2F0E"/>
  <path d="M47.5572 57.2C46.2483 57.9171 45.203 58.7307 43.685 58.9976C43.1029 59.1584 43.2508 60.1843 43.8812 59.8917C45.4474 59.493 46.5409 58.5475 47.8981 57.6985C48.1265 57.4831 47.9174 57.0328 47.5572 57.2Z" fill="#5A2F0E"/>
  <defs>
    <filter id="filter0_d_263_284" x="0" y="0" width="84" height="84" filterUnits="userSpaceOnUse" color-interpolation-filters="sRGB">
      <feFlood flood-opacity="0" result="BackgroundImageFix"/>
      <feColorMatrix in="SourceAlpha" type="matrix" values="0 0 0 0 0 0 0 0 0 0 0 0 0 0 0 0 0 0 127 0" result="hardAlpha"/>
      <feOffset dx="3"/>
      <feGaussianBlur stdDeviation="2"/>
      <feComposite in2="hardAlpha" operator="out"/>
      <feColorMatrix type="matrix" values="0 0 0 0 0 0 0 0 0 0 0 0 0 0 0 0 0 0 0.25 0"/>
      <feBlend mode="normal" in2="BackgroundImageFix" result="effect1_dropShadow_263_284"/>
      <feBlend mode="normal" in="SourceGraphic" in2="effect1_dropShadow_263_284" result="shape"/>
    </filter>
  </defs>
</svg>