<svg xmlns="http://www.w3.org/2000/svg" width="168" height="250" viewBox="0 0 168 250" fill="none">
  <g clip-path="url(#clip0_145_762)">
    <path d="M167.328 154.038C166.56 126.154 166.752 97.6923 160.512 70.673C156.864 55.0961 152.64 39.7115 148.608 24.2307C148.224 22.6923 146.208 23.3654 146.592 24.9038C153.6 51.923 161.952 78.75 163.488 107.212C165.12 135.192 165.888 163.462 165.888 191.538C165.888 207.885 165.504 224.231 164.352 240.577C164.256 242.212 166.368 242.212 166.464 240.577C168.384 211.731 168.192 182.885 167.328 154.038Z" fill="#613909"/>
    <path d="M164.928 240.577C145.44 248.365 125.472 247.5 105.216 247.115C95.1043 246.859 84.9923 246.634 74.8803 246.442C69.8243 246.314 64.7363 246.218 59.6163 246.154C54.8163 246.057 49.2483 246.827 44.4483 245.769C40.5123 245 40.0323 242.788 39.5523 238.846C39.0723 235.192 38.7843 231.538 38.6883 227.884C38.4003 221.827 38.4963 215.769 38.4003 209.807C38.2083 197.436 37.7923 185.096 37.1523 172.788C35.8083 148.846 33.5043 125 30.2403 101.346C28.4163 87.9806 26.4003 74.519 23.7123 61.346C22.6563 55.769 21.0243 50.7691 18.7203 45.8652C15.9363 40.096 12.1923 34.0383 13.8243 27.0191C14.1123 25.4806 12.1923 24.8075 11.8083 26.346C9.40831 37.019 17.0883 45.4806 19.9683 54.6152C23.6163 66.4421 25.0563 79.9037 26.8803 92.3075C30.7203 118.077 33.4083 144.134 34.9443 170.288C35.7123 183.429 36.1603 196.602 36.2883 209.807C36.3843 216.057 36.2883 222.404 36.5763 228.654C36.8643 233.461 36.6723 240.769 38.5923 245.096C40.1283 248.461 43.1043 248.269 45.8883 248.365C51.8403 248.557 57.7923 248.654 63.8403 248.75C74.4003 248.942 84.9603 249.166 95.5203 249.423C119.04 249.904 142.848 252.115 165.504 243.077C166.752 242.5 166.176 240.096 164.928 240.577Z" fill="#613909"/>
    <path d="M40.0318 245.481C33.2478 244.199 26.4638 242.916 19.6798 241.634C16.6078 241.057 13.4398 240.769 10.4638 239.904C6.33582 238.654 6.43182 232.981 6.14382 228.654C4.99182 212.692 4.03182 196.827 3.45582 180.865C2.30382 148.75 2.59182 116.442 6.23982 84.519C8.15982 66.7306 11.2318 49.1344 15.4558 31.9229C15.8398 30.3844 13.8238 29.7113 13.4398 31.2498C5.47182 63.7498 1.91982 97.5959 1.05582 131.538C0.575818 148.461 0.863818 165.481 1.43982 182.5C2.11182 199.423 2.59182 216.634 4.41582 233.461C5.27982 241.057 8.63982 242.115 14.3998 243.173C22.7838 244.775 31.1358 246.346 39.4558 247.884C40.7998 248.173 41.3758 245.673 40.0318 245.481Z" fill="#613909"/>
    <path fill-rule="evenodd" clip-rule="evenodd" d="M150.432 25.4808C148.416 26.1539 145.632 25.8654 143.52 25.9616C141.152 26.0898 138.784 26.2501 136.416 26.4424C115.68 27.9808 95.0399 30.3847 74.3039 32.0193C63.9359 32.8847 53.5679 33.5578 43.1999 33.7501C33.8879 33.9424 23.3279 34.8078 14.3999 31.5385C13.9199 31.6347 13.3439 31.3462 13.1519 30.9616C12.4799 30.3847 12.7679 29.1347 13.5359 29.0385C15.2639 24.6154 14.6879 19.7116 11.7119 15.9616C11.2319 15.2885 11.4239 14.1347 12.4799 14.1347C36.0959 14.7116 59.3279 10.2885 82.4639 6.15391C92.1599 4.42314 101.952 2.69237 111.744 1.63468C117.216 0.9616 122.784 0.48083 128.352 0.288523C133.056 0.096215 138.144 -0.384554 142.848 0.288523C146.496 0.865446 147.456 4.7116 148.8 7.78852C150.432 11.4424 151.872 15.2885 152.448 19.327C152.736 21.7308 153.12 24.5193 150.432 25.4808ZM147.84 10.9616C146.88 8.4616 145.728 4.90391 143.52 3.26929C141.504 1.92314 139.104 2.30775 136.704 2.30775C132.096 2.24365 127.456 2.37186 122.784 2.69237C86.3999 5.28852 51.1679 16.7308 14.4959 16.3462C16.8959 20.3847 17.2799 25.1924 15.5519 29.6154C24.9599 32.9808 36.2879 31.7308 45.9839 31.5385C56.3519 31.2501 66.7199 30.4808 77.0879 29.7116C95.9999 28.077 114.72 25.9616 133.632 24.5193C136.448 24.2629 139.264 24.0385 142.08 23.8462C144 23.7501 146.592 24.1347 148.416 23.5578C152.64 22.2116 149.088 14.0385 147.84 10.9616Z" fill="#613909"/>
    <path d="M14.6884 30.2884C13.2484 26.3461 10.9444 19.423 13.5364 15.673C14.3044 14.5191 12.4804 13.4615 11.6164 14.6153C8.64037 18.9422 10.9444 26.4422 12.5764 30.8653C13.0564 32.2115 15.0724 31.6345 14.6884 30.2884Z" fill="#613909"/>
    <path d="M70.1763 7.59619H69.8883C69.3123 7.59619 68.7363 8.17311 68.7363 8.75004C68.8323 9.32696 69.2163 9.80773 69.8883 9.80773H70.1763C70.7523 9.80773 71.3283 9.32696 71.2323 8.75004C71.2323 8.17311 70.8483 7.59619 70.1763 7.59619Z" fill="#613909"/>
    <path fill-rule="evenodd" clip-rule="evenodd" d="M94.3683 43.269C94.5603 44.519 93.1203 45.096 92.3523 44.1344C91.2003 42.4998 89.9523 41.1537 88.6083 39.8075C88.5443 40.769 88.5123 41.6985 88.5123 42.596C88.4163 43.4613 87.3603 44.0383 86.5923 43.3652C85.8883 42.6601 85.1523 41.9229 84.3843 41.1537C84.1283 42.9485 83.9043 44.7434 83.7123 46.5383C83.5203 47.4998 82.1763 47.4998 81.6963 46.8267C80.8003 45.5447 79.9043 44.2626 79.0083 42.9806C78.7523 44.0062 78.4643 44.9998 78.1443 45.9613C77.8563 46.8267 76.6083 47.019 76.1283 46.2498C74.7843 43.9421 74.5923 41.346 74.1123 38.7498C73.5363 35.3524 72.7683 31.987 71.8083 28.6537C69.8883 21.6344 67.2003 14.9037 63.9363 8.46134C63.4563 7.69211 64.0323 6.92288 64.8003 6.82673C66.8483 6.63442 68.9283 6.47417 71.0403 6.34596C74.2083 5.38442 77.5683 4.99981 80.8323 5.57673C84.3843 6.24981 86.0163 8.46134 87.2643 11.7306C91.1043 21.8267 92.7363 32.6921 94.3683 43.269ZM91.6803 39.9037C90.6243 33.1729 89.4723 26.5383 87.6483 19.9998C86.4963 15.9613 85.6323 9.8075 81.4083 7.98058C79.8723 7.21134 77.8563 7.11519 75.9363 7.40365C75.8403 7.88442 75.4563 8.26904 74.8803 8.36519C73.6643 8.36519 72.4803 8.39724 71.3283 8.46134C70.4963 8.71776 69.7283 9.00622 69.0243 9.32673C68.3523 9.51904 67.9683 9.23058 67.7763 8.74981C67.3283 8.74981 66.9123 8.78186 66.5283 8.84596C69.1203 14.2306 71.4243 19.8075 73.1523 25.5767C74.1763 28.9101 75.0403 32.2754 75.7443 35.6729C76.2243 37.7883 76.3203 40.2883 76.8963 42.4998L77.5683 40.2883C77.8563 39.3267 79.0083 39.2306 79.5843 39.9998C80.3523 41.1537 81.1523 42.2754 81.9843 43.3652L82.5603 38.6537C82.7523 37.7883 83.9043 37.6921 84.3843 38.1729C85.0883 38.8139 85.7603 39.4549 86.4003 40.096L86.4963 37.6921C86.4963 36.9229 87.4563 36.1537 88.1283 36.7306C89.4083 37.6921 90.5923 38.7498 91.6803 39.9037Z" fill="#613909"/>
    <path fill-rule="evenodd" clip-rule="evenodd" d="M87.0722 38.0767C86.5602 38.0767 86.1122 37.9485 85.7282 37.6921C85.7282 37.9485 85.7602 38.1729 85.8242 38.3652C85.9202 39.6152 84.0962 39.7113 83.7122 38.6536C83.5842 38.3331 83.4562 38.0447 83.3282 37.7883C83.3282 38.9421 81.5042 39.1344 81.2162 37.9806C80.9602 36.8908 80.6722 35.8331 80.3522 34.8075C80.4162 36.0895 80.4802 37.4036 80.5442 38.7498C80.6402 40.0959 78.9122 40.0959 78.4322 39.0382C78.2402 38.5254 78.0482 38.0126 77.8562 37.4998C77.3762 38.1729 76.3202 38.1729 75.9362 37.2113C73.5682 31.3139 71.7762 25.2883 70.5602 19.1344C70.4962 19.0703 70.4322 18.9742 70.3682 18.8459C69.6002 17.0511 68.8322 15.2242 68.0642 13.3652C67.5522 12.2754 67.0722 11.1857 66.6242 10.0959C66.1442 8.9421 68.0642 8.17287 68.5442 9.23056C68.6722 9.42287 68.7682 9.61518 68.8322 9.80748C69.2162 9.51902 69.8882 9.61518 70.2722 9.99979C70.3362 9.93569 70.4002 9.90364 70.4642 9.90364C70.3682 9.03825 71.5202 7.98056 72.1922 8.9421C72.3842 9.13441 72.5442 9.32671 72.6722 9.51902C72.6082 9.0703 72.5762 8.62159 72.5762 8.17287C72.4802 7.01902 74.0162 6.92287 74.5922 7.6921C74.9122 8.07672 75.2002 8.46133 75.4562 8.84595C75.3602 7.6921 76.8962 7.49979 77.4722 8.26902C77.6002 7.82031 77.7922 7.43569 78.0482 7.11518C78.1122 7.05107 78.1762 6.98697 78.2402 6.92287C78.8162 6.24979 79.1042 6.15364 80.0642 6.05748C80.7362 6.05748 81.0242 6.4421 81.1202 6.92287C81.1842 6.98697 81.2482 7.05107 81.3122 7.11518C81.6002 6.92287 81.8882 6.82672 82.2722 6.82672C82.2722 5.76902 84.0962 5.57672 84.3842 6.73056C85.0242 9.29466 85.6642 11.8267 86.3042 14.3267C86.3682 14.4549 86.4002 14.5511 86.4002 14.6152C86.7202 15.5767 86.9762 16.5703 87.1682 17.5959C87.4882 18.6216 87.7442 19.6152 87.9362 20.5767C88.0642 20.7049 88.1282 20.8972 88.1282 21.1536C88.1922 21.2818 88.2242 21.4421 88.2242 21.6344C88.2242 21.7626 88.2562 21.8908 88.3202 22.019C88.3842 22.2113 88.3842 22.4036 88.3202 22.5959C88.5122 24.3908 88.7042 26.1857 88.8962 27.9806C88.9602 28.3652 89.0242 28.7498 89.0882 29.1344C89.2802 29.1985 89.4402 29.3588 89.5682 29.6152C90.7202 32.4036 92.1602 38.6536 87.0722 38.0767ZM77.7602 29.9998C77.8242 30.3844 77.9202 30.737 78.0482 31.0575C78.0482 30.2883 78.0162 29.487 77.9522 28.6536C77.8882 28.5254 77.8242 28.4293 77.7602 28.3652C77.7602 28.9421 77.7602 29.487 77.7602 29.9998ZM82.3682 24.4229C82.4322 25.128 82.5282 25.8011 82.6562 26.4421C82.5922 25.8011 82.5602 25.128 82.5602 24.4229C82.4962 24.4229 82.4322 24.4229 82.3682 24.4229ZM75.7442 14.1344C75.9362 14.4549 76.0962 14.7434 76.2242 14.9998C76.2242 14.8716 76.1922 14.7434 76.1282 14.6152C75.9362 14.1665 75.7122 13.6857 75.4562 13.1729C75.5842 13.4934 75.6802 13.8139 75.7442 14.1344Z" fill="#613909"/>
    <path d="M90.7202 29.2309C90.3362 27.436 89.9842 25.6411 89.6642 23.8462C89.4722 23.1732 88.8962 22.9809 88.3202 23.1732C87.9362 21.9232 85.9202 22.5001 86.3042 23.8462C86.8162 25.5129 87.4242 27.1796 88.1282 28.8462L88.2242 29.5193C88.3202 30.0001 88.6082 30.1924 88.8962 30.2886C89.5682 31.0578 90.9122 30.1924 90.7202 29.2309Z" fill="#613909"/>
    <path d="M86.8798 10.7691C86.3998 8.94219 85.8238 5.67296 84.0958 4.51911C82.0798 3.17296 78.4318 4.13449 76.3198 4.3268C72.7678 4.71142 69.3118 5.38449 65.8558 6.24988C64.5118 6.53834 65.0878 8.65372 66.4318 8.36526C68.5438 7.78834 70.6558 7.30757 72.7678 7.01911C75.0718 6.63449 78.5278 5.67296 80.8318 6.15373C85.6318 7.11526 86.1118 16.6345 86.3038 20.5768C86.3998 22.0191 88.5118 22.0191 88.4158 20.5768C88.3198 17.3076 87.8398 14.0383 86.8798 10.7691Z" fill="#613909"/>
    <path d="M93.696 39.7116C93.312 38.4296 92.992 37.1796 92.736 35.9617C92.64 35.0963 92.544 34.2309 92.256 33.3655C91.968 32.5001 91.104 32.404 90.528 32.8847C90.4 32.6924 90.304 32.5001 90.24 32.3078C89.76 31.7309 88.704 31.5386 88.32 32.3078C87.68 33.7181 87.136 35.1924 86.688 36.7309C86.4 36.6347 86.016 36.7309 85.824 37.0193C86.592 35.9617 83.616 35.0963 83.136 35.1924C82.656 35.2886 82.176 35.6732 81.888 36.0578C81.6 35.7693 81.312 35.7693 81.024 35.7693C80.64 35.6732 80.256 35.6732 79.968 35.7693C79.776 35.3206 79.552 34.904 79.296 34.5193C79.36 32.5322 79.456 30.545 79.584 28.5578C79.584 27.1155 77.472 27.1155 77.376 28.5578C77.312 29.9681 77.248 31.3783 77.184 32.7886C76.608 32.5001 75.744 32.9809 75.648 33.7501C75.648 34.2629 75.648 34.7437 75.648 35.1924C75.584 35.3206 75.52 35.4488 75.456 35.577C75.168 37.7886 75.264 39.904 76.032 42.1155C76.416 43.2693 78.144 43.077 78.144 41.827C78.144 41.3142 78.144 40.8334 78.144 40.3847C78.912 40.9617 79.68 41.4424 80.544 41.3463C80.8 42.0514 81.12 42.7886 81.504 43.5578C81.984 44.5193 83.52 44.0386 83.52 42.9809C83.424 41.5386 83.232 40.0963 82.944 38.7501C83.136 38.2693 83.424 37.7886 83.904 37.7886C84 37.7886 84.288 38.654 84.576 38.654C85.152 38.8463 85.632 39.1347 86.016 39.1347C86.08 39.327 86.176 39.5193 86.304 39.7116C86.688 40.577 88.128 40.3847 88.224 39.5193C88.352 38.8142 88.512 38.1411 88.704 37.5001C89.472 38.5899 90.304 39.6155 91.2 40.577C91.392 40.7693 91.68 40.8655 92.064 40.8655C92.064 40.8655 92.096 40.8975 92.16 40.9616C92.928 41.4424 93.984 40.577 93.696 39.7116Z" fill="#613909"/>
    <path d="M19.8718 86.9229C16.3518 96.9229 13.6638 107.115 11.8078 117.5C11.6158 118.942 13.6318 119.519 13.9198 118.077C15.7118 107.692 18.3678 97.4998 21.8878 87.4998C22.3678 86.1536 20.3518 85.6729 19.8718 86.9229Z" fill="#613909"/>
    <path d="M19.4882 116.442C18.7202 118.686 18.3682 120.962 18.4322 123.269C18.4322 124.616 20.6402 124.616 20.5442 123.269C20.5442 121.154 20.8322 119.039 21.6002 117.019C22.0802 115.769 19.9682 115.192 19.4882 116.442Z" fill="#613909"/>
    <path d="M152.256 186.346C151.968 185 149.856 185.577 150.144 186.923C153.216 201.731 153.6 216.827 151.296 231.731C151.104 233.173 153.12 233.75 153.312 232.308C155.712 217.019 155.424 201.539 152.256 186.346Z" fill="#613909"/>
    <path d="M161.28 218.75C160.992 217.404 158.88 217.981 159.168 219.327C159.872 222.404 159.936 225.449 159.36 228.462C159.072 229.808 161.184 230.385 161.376 229.039C162.08 225.641 162.048 222.212 161.28 218.75Z" fill="#613909"/>
    <path fill-rule="evenodd" clip-rule="evenodd" d="M136.128 247.692C136.032 249.039 133.92 249.039 134.016 247.692C135.456 231.442 136.992 215.192 138.144 198.942C138.72 190.16 139.2 181.41 139.584 172.692C129.024 174.231 118.464 175.385 107.904 176.154C107.52 176.346 107.136 176.442 106.752 176.442C100.8 177.276 94.8804 177.468 88.9924 177.019C79.6484 177.276 70.3364 177.18 61.0564 176.731C61.3444 200 60.7684 223.269 59.6164 246.442C59.6164 247.788 57.4084 247.788 57.5044 246.442C58.2724 230.577 58.7524 214.712 58.9444 198.75C59.4244 143.269 55.1044 87.3077 38.8804 33.9423C38.4964 32.5962 40.5124 32.0193 40.9924 33.3654C45.5044 48.4616 49.2484 63.8462 52.1284 79.4231C53.7924 88.5257 55.2004 97.6283 56.3524 106.731C83.6164 106.923 110.88 105.769 138.048 103.269C135.36 77.2116 129.504 51.827 122.016 26.7308C121.632 25.3846 123.744 24.8077 124.128 26.1539C128.832 42.0193 133.152 58.077 136.224 74.4231C137.952 83.9423 139.296 93.5577 140.256 103.173C141.216 103.462 141.312 105 140.448 105.673C144.768 152.885 140.448 200.577 136.128 247.692ZM77.9524 134.712C78.0804 134.647 78.2084 134.583 78.3364 134.519C78.4004 134.391 78.4324 134.263 78.4324 134.135C78.4964 133.622 78.6244 133.173 78.8164 132.789C78.6884 132.532 78.5604 132.308 78.4324 132.115C78.2404 132.949 78.0804 133.814 77.9524 134.712ZM129.696 163.365C130.784 163.365 131.904 163.365 133.056 163.365C133.056 163.301 133.056 163.205 133.056 163.077C132.8 163.141 132.544 163.205 132.288 163.269C131.456 163.333 130.592 163.333 129.696 163.269C129.696 163.333 129.696 163.365 129.696 163.365ZM119.904 107.596C118.368 107.724 116.832 107.821 115.296 107.885C116.704 107.949 118.144 108.013 119.616 108.077C119.68 107.885 119.776 107.724 119.904 107.596ZM85.5364 109.327C85.2164 109.327 84.8964 109.327 84.5764 109.327C84.8964 109.391 85.1844 109.423 85.4404 109.423C85.4404 109.423 85.4724 109.391 85.5364 109.327ZM57.6004 118.077C57.7924 119.936 57.9844 121.763 58.1764 123.558C58.1764 122.724 58.2084 121.891 58.2724 121.058C58.0804 120.096 57.8564 119.103 57.6004 118.077ZM59.7124 143.75C59.8404 145.801 59.9684 147.885 60.0964 150C60.1604 148.782 60.2244 147.564 60.2884 146.346C60.2884 146.282 60.2564 146.218 60.1924 146.154C60.0644 145.321 59.9044 144.519 59.7124 143.75ZM71.8084 174.231C72.4484 174.231 73.0884 174.231 73.7284 174.231C73.6644 174.231 73.6324 174.199 73.6324 174.135C72.9924 174.199 72.3844 174.231 71.8084 174.231ZM56.6404 109.615C56.7044 109.808 56.7364 109.968 56.7364 110.096C56.8004 110.032 56.8324 110 56.8324 110C56.8964 109.872 56.9604 109.744 57.0244 109.615C56.8964 109.615 56.7684 109.615 56.6404 109.615ZM139.68 169.808C139.808 166.282 139.904 162.789 139.968 159.327C139.84 159.455 139.712 159.583 139.584 159.712C139.52 162.532 139.488 165.353 139.488 168.173C139.488 168.846 139.296 169.423 139.104 169.808C139.104 169.808 139.136 169.808 139.2 169.808C139.392 169.808 139.552 169.808 139.68 169.808Z" fill="#613909"/>
    <path d="M80.5436 166.538C80.0316 166.282 79.6156 165.929 79.2956 165.481C78.9116 165.032 78.5916 164.487 78.3356 163.846C78.0796 163.141 77.8556 162.436 77.6636 161.731C77.4076 160.449 77.1836 158.814 76.9916 156.827C76.9916 156.314 76.9596 155.481 76.8956 154.327L76.7996 152.307C76.7996 151.731 76.7996 151.154 76.7996 150.577C76.7356 149.295 76.7676 148.301 76.8956 147.596C76.8316 147.275 76.7996 146.955 76.7996 146.634C76.7356 145.352 77.1516 144.295 78.0476 143.461C79.0076 142.628 80.2236 142.211 81.6956 142.211C82.2076 142.147 82.6876 142.275 83.1356 142.596C83.6476 142.852 83.9036 143.205 83.9036 143.654C83.9036 143.846 83.8396 144.006 83.7116 144.134C83.5196 144.263 83.2956 144.327 83.0396 144.327C82.8476 144.391 82.6236 144.391 82.3676 144.327C82.1116 144.263 81.9516 144.166 81.8876 144.038H81.5036V143.942C80.7356 144.006 80.0956 144.199 79.5836 144.519C79.1996 144.84 78.9116 145.32 78.7196 145.961C78.6556 146.218 78.5916 146.506 78.5276 146.827C78.5276 147.211 78.5276 147.532 78.5276 147.788C78.5276 147.981 78.5276 148.333 78.5276 148.846L78.6236 150L78.7196 151.058C78.7196 151.378 78.6876 151.731 78.6236 152.115C78.5596 152.692 78.5276 153.077 78.5276 153.269V154.038C78.5276 154.872 78.5916 155.993 78.7196 157.404C78.7836 158.622 78.9756 159.807 79.2956 160.961C79.5516 162.115 79.9356 163.077 80.4476 163.846C81.0236 164.615 81.7276 164.968 82.5596 164.904C82.9436 164.904 83.3916 164.711 83.9036 164.327C84.4156 163.942 84.7996 163.75 85.0556 163.75C85.3756 163.686 85.6956 163.814 86.0156 164.134C86.0156 164.904 85.7276 165.513 85.1516 165.961C84.6396 166.41 83.9996 166.699 83.2316 166.827C82.7836 166.827 82.4636 166.859 82.2716 166.923C81.6316 166.923 81.0556 166.795 80.5436 166.538Z" fill="white"/>
    <path fill-rule="evenodd" clip-rule="evenodd" d="M91.1042 166.346C90.6562 166.026 90.2402 165.545 89.8562 164.904C89.2162 163.75 88.7042 162.18 88.3202 160.192C88.0642 158.846 87.8402 157.276 87.6482 155.481L87.5522 153.846V152.116C87.4882 151.539 87.4562 150.866 87.4562 150.096C87.3922 148.814 87.3922 147.692 87.4562 146.731C87.5202 145.705 87.6802 144.712 87.9362 143.75C88.2562 142.853 88.7362 142.212 89.3762 141.827C89.7602 141.635 90.1442 141.539 90.5282 141.539C91.6162 141.475 92.5122 141.891 93.2162 142.789C93.9842 143.75 94.4962 144.84 94.7522 146.058C95.1362 147.532 95.3602 148.942 95.4242 150.289C95.6162 151.763 95.7122 153.173 95.7122 154.519L95.8082 156.346C95.8082 156.667 95.7762 157.34 95.7122 158.366C95.6482 159.135 95.6482 159.808 95.7122 160.385V160.481C95.5842 161.058 95.5202 161.763 95.5202 162.596C95.5842 163.173 95.4882 163.782 95.2322 164.423C95.0402 165.064 94.7202 165.609 94.2722 166.058C93.8242 166.571 93.2802 166.859 92.6402 166.923C92.0642 166.923 91.5522 166.731 91.1042 166.346ZM93.6962 163.942C93.9522 163.237 94.1122 162.372 94.1762 161.346C94.2402 160.321 94.3042 159.199 94.3682 157.981C94.3682 157.404 94.3682 156.699 94.3682 155.866L94.1762 152.885C94.1122 151.795 93.9522 150.385 93.6962 148.654C93.4402 147.18 93.0562 145.898 92.5442 144.808C92.3522 144.295 92.0962 143.91 91.7762 143.654C91.3922 143.334 91.0402 143.173 90.7202 143.173C90.2082 143.237 89.8242 143.686 89.5682 144.519C89.3122 145.353 89.1522 146.314 89.0882 147.404C88.9602 148.494 88.9282 149.551 88.9922 150.577V151.635C88.9282 151.891 88.9282 152.276 88.9922 152.789V152.981C89.0562 154.391 89.2482 156.122 89.5682 158.173C90.0162 160.93 90.5922 162.885 91.2962 164.039C91.7442 164.808 92.1922 165.192 92.6402 165.192C93.0882 165.128 93.4402 164.712 93.6962 163.942Z" fill="white"/>
    <path d="M100.416 163.75C100.352 161.314 100.096 157.404 99.6485 152.019C99.2645 146.634 98.9445 143.782 98.6885 143.461C98.6885 142.884 98.9125 142.436 99.3605 142.115C99.5525 141.987 99.7765 141.891 100.032 141.827C100.352 141.698 100.64 141.634 100.896 141.634C101.024 141.634 101.28 141.634 101.664 141.634C102.176 141.57 102.528 141.634 102.72 141.827C102.976 141.955 103.104 142.211 103.104 142.596C103.104 142.852 103.04 143.045 102.912 143.173C102.72 143.301 102.496 143.365 102.24 143.365H101.952H101.472C100.896 143.365 100.608 143.493 100.608 143.75C100.672 144.84 100.8 146.282 100.992 148.077C101.184 149.551 101.312 150.929 101.376 152.211C101.504 152.211 101.792 152.147 102.24 152.019C102.624 151.891 102.912 151.827 103.104 151.827C103.36 151.827 103.584 151.923 103.776 152.115C103.968 152.307 104.064 152.532 104.064 152.788C104.064 153.109 103.936 153.333 103.68 153.461C103.616 153.461 103.52 153.493 103.392 153.557C103.2 153.622 102.976 153.686 102.72 153.75C102.528 153.75 102.208 153.782 101.76 153.846H101.472C101.472 155.128 101.632 156.859 101.952 159.038C102.208 161.282 102.368 163.013 102.432 164.231V164.327L102.336 164.423C102.4 164.487 102.432 164.615 102.432 164.807C102.432 165.064 102.336 165.288 102.144 165.481C101.952 165.609 101.696 165.673 101.376 165.673C100.8 165.737 100.48 165.096 100.416 163.75Z" fill="white"/>
    <path d="M108.768 163.462C108.704 160.962 108.448 157.019 108 151.635C107.616 146.314 107.328 143.494 107.136 143.173C107.072 142.596 107.264 142.148 107.712 141.827C107.904 141.699 108.16 141.603 108.48 141.539C108.8 141.41 109.056 141.346 109.248 141.346C109.376 141.346 109.664 141.346 110.112 141.346C110.56 141.282 110.912 141.346 111.168 141.539C111.36 141.667 111.456 141.923 111.456 142.308C111.456 142.564 111.392 142.757 111.264 142.885C111.072 143.013 110.848 143.077 110.592 143.077H110.304H109.824C109.248 143.077 108.96 143.205 108.96 143.462C109.024 144.551 109.152 145.962 109.344 147.692C109.536 149.167 109.664 150.577 109.728 151.923C109.92 151.859 110.208 151.795 110.592 151.731C110.976 151.603 111.296 151.539 111.552 151.539C111.744 151.539 111.936 151.635 112.128 151.827C112.32 152.019 112.416 152.244 112.416 152.5C112.416 152.757 112.288 152.949 112.032 153.077C111.968 153.141 111.872 153.205 111.744 153.269C111.552 153.333 111.36 153.398 111.168 153.462C110.976 153.462 110.656 153.494 110.208 153.558H109.824C109.888 154.84 110.048 156.571 110.304 158.75C110.624 160.994 110.784 162.692 110.784 163.846V164.039C110.784 164.167 110.784 164.327 110.784 164.519C110.784 164.776 110.688 165 110.496 165.192C110.304 165.321 110.08 165.385 109.824 165.385C109.184 165.449 108.832 164.808 108.768 163.462Z" fill="white"/>
    <path d="M117.216 165.096C116.896 165.032 116.704 164.744 116.64 164.231L115.968 145.865C115.968 145.481 115.904 144.936 115.776 144.231C115.584 143.59 115.488 143.077 115.488 142.692V142.596C115.808 141.955 116.064 141.538 116.256 141.346C116.512 141.346 116.896 141.314 117.408 141.25C117.856 141.122 118.24 141.058 118.56 141.058C118.88 141.058 119.2 141.154 119.52 141.346C119.84 141.538 120.032 141.763 120.096 142.019C120.096 142.66 119.616 142.981 118.656 142.981L118.176 143.077C118.048 143.013 117.888 142.981 117.696 142.981C117.568 143.045 117.472 143.077 117.408 143.077C117.408 143.782 117.472 144.647 117.6 145.673L117.696 146.538L117.792 148.269C117.856 148.654 117.856 149.263 117.792 150.096V151.923L118.272 151.827C118.656 151.635 119.008 151.538 119.328 151.538C119.52 151.538 119.712 151.635 119.904 151.827C120.096 151.955 120.192 152.147 120.192 152.404C120.256 152.66 120.192 152.885 120 153.077C119.872 153.269 119.68 153.397 119.424 153.461L119.04 153.365L118.656 153.461C118.336 153.461 118.112 153.526 117.984 153.654L118.368 163.461L120.096 163.269C121.312 163.269 121.92 163.526 121.92 164.038V164.135C121.856 164.391 121.632 164.615 121.248 164.808C120.928 165 120.608 165.128 120.288 165.192H119.232L118.272 165.288C117.888 165.288 117.536 165.224 117.216 165.096Z" fill="white"/>
    <path d="M126.048 164.808C125.664 164.744 125.472 164.455 125.472 163.942L124.8 145.577C124.8 145.192 124.704 144.647 124.512 143.942C124.384 143.301 124.32 142.756 124.32 142.308L124.224 142.211C124.608 141.635 124.864 141.25 124.992 141.058C125.312 141.058 125.696 140.994 126.144 140.865C126.592 140.801 127.008 140.769 127.392 140.769C127.712 140.705 128.032 140.769 128.352 140.961C128.672 141.154 128.832 141.41 128.832 141.731C128.832 142.372 128.352 142.692 127.392 142.692H127.008C126.88 142.692 126.72 142.692 126.528 142.692C126.336 142.692 126.208 142.724 126.144 142.788C126.208 143.494 126.304 144.359 126.432 145.385L126.528 146.25L126.624 147.981C126.624 148.365 126.624 148.974 126.624 149.808V151.538L127.008 151.442C127.456 151.314 127.808 151.25 128.064 151.25C128.32 151.25 128.544 151.314 128.736 151.442C128.928 151.635 129.024 151.859 129.024 152.115C129.024 152.372 128.96 152.596 128.832 152.788C128.64 152.981 128.448 153.077 128.256 153.077H127.872H127.488C127.168 153.077 126.944 153.173 126.816 153.365L127.104 163.173L128.928 162.981C130.144 162.917 130.752 163.173 130.752 163.75V163.846C130.624 164.102 130.4 164.327 130.08 164.519C129.76 164.647 129.44 164.744 129.12 164.808L128.064 164.904H127.104C126.72 164.968 126.368 164.936 126.048 164.808Z" fill="white"/>
    <path d="M90.5281 128.173C89.3761 124.808 91.2001 120.673 93.7921 117.981C96.5761 115.192 100.224 113.75 103.872 113.942C103.872 114.134 104.064 114.327 104.352 114.423C104.672 114.551 104.96 114.679 105.216 114.807C105.6 114.423 106.048 114.07 106.56 113.75C106.24 113.493 105.92 113.301 105.6 113.173C105.6 112.692 105.408 112.308 104.928 112.308C99.5522 111.731 93.9841 114.423 90.7201 119.423C88.9921 122.211 88.3201 125.384 88.8961 128.077C89.4721 128.141 90.0161 128.173 90.5281 128.173Z" fill="white"/>
    <path d="M107.616 114.711C107.168 114.968 106.72 115.288 106.272 115.673C109.44 118.654 108.096 125 105.6 128.75C102.528 133.173 95.9037 134.231 92.2557 130.865C91.8717 130.545 91.5517 130.192 91.2957 129.808C90.6557 129.808 90.0477 129.743 89.4717 129.615C90.1437 131.25 91.2957 132.692 93.1197 133.558C98.4957 136.25 105.12 133.461 108 127.5C110.016 123.269 110.4 117.788 107.616 114.711Z" fill="white"/>
    <path d="M103.488 114.135C104.16 114.231 104.736 114.423 105.12 114.904C105.504 114.519 105.92 114.167 106.368 113.846C105.696 113.077 104.832 112.5 103.584 112.404C102.624 112.404 102.528 114.038 103.488 114.135Z" fill="white"/>
    <path d="M108.384 119.327C108.192 117.788 107.808 116.25 107.232 115C106.784 115.256 106.368 115.577 105.984 115.962C106.464 117.115 106.752 118.558 106.944 119.712C107.04 120.769 108.576 120.385 108.384 119.327Z" fill="white"/>
    <path d="M91.7757 127.115C91.7117 127.5 91.7117 127.885 91.7757 128.269C95.1357 128.077 98.1117 126.538 100.32 122.5C102.144 118.942 103.776 115.385 106.944 113.461C106.176 112.885 105.12 112.5 103.968 112.404C103.488 112.404 103.2 112.885 103.2 113.269C101.28 112.5 97.9197 114.135 96.2877 116.058C95.9677 116.25 95.6797 116.442 95.4237 116.635C94.7517 117.019 94.0797 117.5 93.5037 118.173C92.6397 119.038 91.9677 119.904 91.7757 120.962C90.7197 123.269 90.5277 125.769 91.7757 127.115Z" fill="white"/>
    <path fill-rule="evenodd" clip-rule="evenodd" d="M103.008 128.654C102.528 128.654 102.048 128.173 102.24 127.596C102.304 127.596 102.336 127.596 102.336 127.596C102.272 127.532 102.24 127.5 102.24 127.5C100.8 128.461 99.2641 128.557 98.4961 127.307C102.528 123.654 103.104 116.923 108 114.519C111.552 118.942 109.824 128.846 103.008 128.654ZM103.584 121.923C103.456 122.051 103.296 122.147 103.104 122.211C102.528 122.981 101.856 123.75 101.184 124.327C101.184 124.391 101.152 124.487 101.088 124.615C101.76 124.327 102.816 123.365 102.912 123.269C102.912 123.269 102.944 123.237 103.008 123.173C103.2 122.788 103.392 122.372 103.584 121.923ZM104.64 126.827C104.64 126.378 104.672 125.961 104.736 125.577C104.544 126.025 104.352 126.474 104.16 126.923C104.352 126.859 104.512 126.827 104.64 126.827ZM108.288 119.808C108.192 118.269 107.712 116.731 106.944 115.673C107.008 116.122 107.008 116.57 106.944 117.019C107.328 117.019 107.616 117.211 107.616 117.596C107.68 118.301 107.712 119.006 107.712 119.711C107.904 119.647 108.096 119.679 108.288 119.808Z" fill="white"/>
    <path d="M92.6396 129.712C92.8316 129.84 93.0556 129.904 93.3116 129.904C93.4396 129.904 93.5676 129.904 93.6956 129.904C93.8876 130.096 94.2716 130.096 94.6556 129.808C94.7836 129.68 94.9116 129.519 95.0396 129.327C95.0396 129.327 95.0716 129.295 95.1356 129.231C94.3036 129.487 93.4716 129.648 92.6396 129.712Z" fill="white"/>
    <path d="M94.6556 121.25C94.2076 121.186 93.7596 121.122 93.3116 121.058C92.9276 120.962 92.4476 121.154 92.3516 121.635C92.2556 122.019 92.4476 122.596 92.8316 122.692C93.2796 122.756 93.7276 122.821 94.1756 122.885C94.5596 122.981 95.0396 122.788 95.1356 122.308C95.2316 121.923 95.0396 121.346 94.6556 121.25Z" fill="white"/>
    <path d="M90.5276 128.173C90.9756 128.237 91.4236 128.269 91.8716 128.269C92.2556 127.596 92.5436 127.019 92.7356 126.346C92.7356 126.026 92.6716 125.801 92.5436 125.673C92.7996 124.968 93.0876 124.263 93.4076 123.558C93.7916 122.596 92.3516 122.115 91.9676 123.077C91.3276 124.551 90.8156 126.058 90.4316 127.596C90.4316 127.788 90.4636 127.981 90.5276 128.173Z" fill="white"/>
    <path d="M90.1445 124.711C89.9525 125.481 89.9205 126.218 90.0485 126.923C90.0485 126.987 90.0485 127.051 90.0485 127.115C90.0485 127.243 90.0485 127.34 90.0485 127.404C90.1125 127.66 90.2085 127.916 90.3365 128.173C94.2725 128.461 97.8245 127.115 100.32 122.5C100.448 122.179 100.576 121.891 100.704 121.634C100.512 121.955 100.32 122.243 100.128 122.5C99.9365 122.5 99.7445 122.532 99.5525 122.596C98.9765 122.788 98.3045 123.461 97.7285 124.327C96.5765 124.327 95.5205 125.865 95.0405 127.307C94.2725 126.634 93.3125 126.154 92.5445 126.057C92.6725 125.16 92.5765 124.231 92.2565 123.269C92.3205 123.205 92.3525 123.141 92.3525 123.077C92.4165 122.949 92.4805 122.82 92.5445 122.692C92.7365 122.404 92.7365 122.115 92.5445 121.827C92.5445 121.763 92.5765 121.666 92.6405 121.538C92.8325 120.577 91.3925 120.096 91.1045 121.154C91.0405 121.666 90.9445 122.147 90.8165 122.596C90.4965 123.301 90.2725 124.006 90.1445 124.711Z" fill="white"/>
    <path d="M105.696 127.019C105.44 127.212 105.184 127.404 104.928 127.596C104.928 127.596 104.896 127.596 104.832 127.596C104.832 127.532 104.8 127.468 104.736 127.404C104.864 127.148 104.96 126.891 105.024 126.635C105.28 126.25 105.472 125.93 105.6 125.673C106.08 124.904 105.312 124.135 104.64 124.519C104.128 124.776 103.616 125.096 103.104 125.481C103.744 124.071 104.256 122.596 104.64 121.058C104.928 120.192 104.064 119.712 103.488 120.192C103.232 120.449 102.976 120.673 102.72 120.866C101.472 123.269 100.32 125.769 98.3038 127.5C96.0958 129.327 93.5998 129.904 91.0078 129.808C91.3918 130.577 92.1598 131.154 93.0238 131.539C93.0878 131.859 93.2478 132.148 93.5038 132.404C94.3678 133.173 96.0958 133.366 97.7278 132.981C98.6238 132.981 99.5198 132.821 100.416 132.5C100.48 132.5 100.544 132.5 100.608 132.5C100.704 132.692 100.992 132.692 101.184 132.692C102.24 132.308 103.776 131.539 104.352 130.481C104.416 130.417 104.48 130.353 104.544 130.289C104.832 130.577 105.408 130.577 105.696 130.096C106.272 129.423 106.56 128.846 106.848 127.981C107.04 127.308 106.368 126.635 105.696 127.019Z" fill="white"/>
  </g>
  <defs>
    <clipPath id="clip0_145_762">
      <rect width="168" height="250" fill="white"/>
    </clipPath>
  </defs>
</svg>