<svg xmlns="http://www.w3.org/2000/svg" width="141" height="71" viewBox="0 0 141 71" fill="none">
  <g clip-path="url(#clip0_146_870)">
    <path fill-rule="evenodd" clip-rule="evenodd" d="M47.5593 16.8766C47.5081 16.9193 47.4099 16.9578 47.2649 16.992C44.8848 18.9783 41.7491 20.6835 38.7151 21.2618C35.9113 21.648 32.5823 21.5608 29.8929 20.6792C27.2803 19.7336 24.5268 18.7754 22.6686 16.5489C20.6951 14.028 18.4271 11.6225 16.9141 8.71715C15.3371 5.73503 14.9891 2.50875 14.3594 -0.742932C13.8705 -3.98191 13.7915 -7.04194 14.0836 -10.2815C14.7447 -16.8246 18.0184 -22.4222 22.0223 -27.457C24.0179 -29.9039 26.6029 -31.8007 29.4828 -33.032C30.4215 -33.468 31.373 -33.7845 32.3374 -33.9815C34.9997 -35.1613 37.8675 -35.4707 40.6464 -34.7941C43.8478 -34.0794 47.3823 -33.1217 50.2645 -31.2288C51.3786 -30.9864 52.4673 -30.4622 53.2235 -29.4C53.2235 -29.4 53.2449 -29.3744 53.2876 -29.3233C53.5951 -29.0589 53.8727 -28.7262 54.1205 -28.3252C54.4196 -27.9669 54.6716 -27.6128 54.8767 -27.263C55.0049 -27.1095 55.0647 -26.9857 55.0562 -26.8918C55.2614 -26.542 55.4451 -26.2178 55.6075 -25.9191C57.1072 -23.654 58.223 -21.0684 59.1979 -18.4956C59.9419 -16.5116 60.2507 -14.4248 60.2651 -12.2226C60.279 -10.8014 60.3055 -9.52101 60.5369 -8.15118C60.7938 -7.06305 60.8203 -5.7827 60.8596 -4.6432C60.8613 -2.30012 60.0438 0.466064 59.2131 2.59207C58.2675 5.20471 57.2579 7.74057 55.6334 10.008C53.4589 12.8648 50.8104 15.4658 47.5593 16.8766ZM53.8019 -26.366C53.5456 -26.6731 53.302 -27.121 53.0457 -27.4281C52.9091 -27.4878 52.798 -27.5688 52.7126 -27.6712C52.1915 -28.1915 51.6449 -28.6904 51.0727 -29.168C50.9959 -29.1039 50.8423 -28.9758 50.6247 -28.9244C51.3428 -27.4397 51.5488 -25.7882 51.7803 -24.4183C52.0377 -22.5492 51.5909 -20.7436 50.9391 -19.0274C50.262 -17.0295 49.6489 -14.9549 48.7668 -13.0465C46.9132 -9.0248 43.3434 -5.65486 42.0405 -1.4415C41.4274 0.633136 41.5185 2.77129 41.1104 4.93541C41.0765 5.31101 41.0213 5.66102 40.9447 5.98543C40.7657 6.39528 40.7149 6.95868 40.7409 7.458C40.724 7.6458 40.7284 7.85919 40.7542 8.09818C40.7542 8.09818 40.7755 8.12377 40.8182 8.17496C40.8013 8.36276 40.81 8.52919 40.8442 8.67428C40.8357 8.76817 40.8529 8.84072 40.8956 8.8919C40.8871 8.9858 40.8786 9.07971 40.8702 9.1736C40.9129 9.22479 40.9556 9.27597 40.9983 9.32716C40.9471 9.36987 40.9429 9.41682 40.9856 9.468C41.0199 9.61309 41.0541 9.75817 41.0884 9.90326C41.1141 10.1422 41.1613 10.4068 41.2298 10.697C41.2725 10.7482 41.2938 10.7738 41.2938 10.7738C41.4308 11.3541 41.5678 11.9344 41.7048 12.5148C41.7475 12.5659 41.7647 12.6385 41.7562 12.7324C41.8759 12.9798 41.9742 13.2017 42.0512 13.398C42.1966 13.8844 42.3677 14.3495 42.5643 14.7932C42.6417 15.5102 42.9106 15.6764 43.4359 16.1498C43.5214 16.2521 43.5556 16.3972 43.5387 16.585C43.6838 16.5508 43.7819 16.5123 43.8331 16.4696C44.038 16.5591 44.2429 16.6485 44.4606 16.5972C44.5629 16.5117 44.6653 16.4263 44.7677 16.3409C45.9199 16.1608 47.0207 15.7631 48.0575 15.2886C50.6557 14.0319 52.8689 11.5336 54.5574 9.34298C56.3481 6.80656 57.6135 3.79678 58.4437 0.889739C59.3892 -1.7229 59.8863 -4.87296 59.3593 -7.68939C59.1152 -8.91837 58.9865 -9.85295 59.0367 -11.1974C59.0743 -12.4009 58.8942 -13.5532 58.7268 -14.8462C58.392 -17.4323 57.353 -20.0819 56.071 -22.3985C55.3402 -23.7423 54.6094 -25.0862 53.8019 -26.366ZM38.2912 -33.8705C37.8217 -33.9129 37.3735 -33.9296 36.9468 -33.9208C36.4176 -33.8265 35.8884 -33.7322 35.3593 -33.638C33.9127 -33.3424 32.4407 -32.7652 31.2377 -32.0217C28.8317 -30.5348 27.3735 -28.5363 25.685 -26.3457C24.3803 -24.4754 22.9095 -22.3361 22.1428 -20.1333C21.517 -17.9178 21.1476 -15.3953 21.0852 -13.129C20.7555 -8.68584 21.6421 -4.34603 22.3878 -0.0189161C22.8634 2.57989 23.8124 4.6534 25.4015 6.71365C26.7344 8.46679 28.1313 10.2967 29.6945 11.8576C29.9081 12.1136 30.1259 12.3225 30.3479 12.4845C30.7408 12.8513 31.091 13.1669 31.3985 13.4313C31.706 13.6957 32.0647 13.9173 32.4745 14.0963C32.5172 14.1475 32.5642 14.1517 32.6153 14.109C32.7947 14.2198 32.9527 14.3051 33.0893 14.3647C33.1405 14.322 33.1874 14.3262 33.2301 14.3774C33.4606 14.4455 33.6912 14.5137 33.9217 14.5818C33.9729 14.5391 34.0198 14.5433 34.0625 14.5945C34.1564 14.6029 34.2247 14.6328 34.2674 14.684C34.4041 14.7436 34.5407 14.8033 34.6773 14.8629C34.8139 14.9226 34.9505 14.9822 35.0871 15.0419C35.0871 15.0419 35.1085 15.0675 35.1512 15.1186C35.3733 15.2807 35.5739 15.4171 35.7533 15.5279C37.3032 16.4487 39.0067 17.2413 40.261 16.7154C40.3038 16.7666 40.3507 16.7708 40.4019 16.7281C40.4531 16.6854 40.5298 16.6213 40.6322 16.5359C40.6749 16.5871 40.6963 16.6127 40.6963 16.6127C41.3105 16.1001 41.5149 15.4085 41.4375 14.6916C41.4033 14.5465 41.369 14.4014 41.3348 14.2563C41.3005 14.1113 41.2663 13.9662 41.232 13.8211C41.1635 13.5309 41.0523 13.1896 40.8984 12.797C40.8214 12.6008 40.7146 12.4728 40.578 12.4131C40.5095 12.123 40.3727 11.803 40.1676 11.4532C39.2059 9.52051 38.078 7.85684 37.5643 5.68058C37.102 3.72195 36.6142 2.04502 36.5103 0.047719C36.3794 -4.01096 38.0413 -7.48196 40.3181 -10.6845C42.6843 -14.092 46.3187 -16.6042 47.878 -20.5104C48.5938 -22.1498 49.3858 -24.6343 48.9876 -26.5161C48.692 -27.9627 47.526 -29.2039 46.9361 -30.535C46.3594 -31.226 45.706 -31.8529 45.0398 -32.339C42.9779 -33.0929 40.4166 -33.8209 38.2912 -33.8705ZM39.486 7.20283C39.4854 6.42181 39.6897 5.73026 39.8173 5.10279C40.0725 3.84784 40.0333 2.70834 40.2117 1.51747C40.4409 -0.236799 40.7341 -1.91429 41.514 -3.47691C42.4602 -5.30852 43.624 -7.1915 44.8391 -8.85686C47.2821 -12.3284 48.7646 -16.1706 49.978 -20.179C50.4889 -21.9079 50.4751 -23.3291 50.269 -24.9806C50.1553 -22.932 49.4527 -20.6524 48.5066 -18.8208C47.2279 -16.4512 45.4367 -14.6958 43.6327 -12.7995C41.6625 -10.6343 39.8718 -8.09786 38.7086 -5.43385C37.0599 -1.32268 37.7802 3.28614 39.4732 7.34369C39.5244 7.30097 39.5287 7.25401 39.486 7.20283ZM43.642 17.8013C41.4911 18.0333 39.596 17.7914 37.4573 17.1016C36.2918 16.6415 35.1264 16.1814 33.8968 15.6445C33.0771 15.2866 32.168 15.1336 31.5145 14.5067C31.2413 14.3874 30.9467 14.2425 30.6308 14.072C28.4534 13.0237 26.9664 10.6176 25.4286 8.77503C24.019 7.08596 22.3531 5.08978 21.7753 2.83675C21.1461 0.366094 20.7346 -2.15594 20.3231 -4.67797C19.3591 -9.73473 19.7269 -14.6004 20.8244 -19.6843C21.2325 -21.8484 22.4731 -23.7954 23.7009 -25.6016C24.7879 -27.4205 26.0158 -29.2268 27.4999 -30.7259C25.2348 -29.2262 23.29 -27.3426 21.6528 -24.9344C20.003 -22.3852 18.1482 -19.9256 17.0364 -17.044C16.014 -14.3673 15.4142 -11.6524 15.2242 -8.75867C15.0856 -5.64727 15.395 -2.77946 15.8966 0.318667C16.3982 3.4168 16.9892 6.31001 18.6557 9.0872C20.0659 11.5573 22.0522 13.9374 23.923 16.023C25.7939 18.1087 29.4311 19.5016 32.0946 19.8838C34.5531 20.1765 37.0884 20.4052 39.4182 19.7633C41.0183 19.3396 42.3622 18.6088 43.642 17.8013Z" fill="#8E572D"/>
    <path d="M55.0248 -0.554621C54.8469 1.41728 53.4401 3.63333 52.2377 5.15784C50.6387 7.14356 48.8474 8.89896 47.1329 10.5903C46.5187 11.1029 47.3517 12.101 47.9018 11.5116C49.8466 9.62805 51.8809 7.53958 53.5053 5.27216C54.6437 3.67087 55.9992 1.23719 55.8953 -0.760107C55.8439 -0.977733 55.6517 -1.20806 55.4341 -1.15669C55.3829 -1.11397 55.3573 -1.09261 55.3573 -1.09261C55.0629 -0.977167 54.9734 -0.772247 55.0248 -0.554621Z" fill="#8E572D"/>
    <path d="M49.2284 5.45454C48.1408 6.49242 47.335 7.55571 45.927 8.20971C45.4023 8.51738 45.8127 9.47736 46.3501 9.02884C47.7708 8.23399 48.5893 7.02985 49.6896 5.85112C49.8559 5.58212 49.5355 5.19824 49.2284 5.45454Z" fill="#8E572D"/>
  </g>
  <defs>
    <clipPath id="clip0_146_870">
      <rect width="106" height="94" fill="white" transform="translate(72.1689 -71) rotate(50.1531)"/>
    </clipPath>
  </defs>
</svg>