<svg width="1727" height="1239" viewBox="0 0 1727 1239" fill="none" xmlns="http://www.w3.org/2000/svg">
<path d="M290.113 8.5405C167.076 8.5405 44.7724 47.4595 -1 66.919V208H1727V52.3241C1554.75 -9.16787 1457.49 2.05378 1430.39 15.3511C1337.24 62.8322 1209.22 66.2702 1156.86 62.0541C872.997 8.3459 773.5 -9.49246 744.907 4.6486C717.767 18.0711 434.021 12.1081 290.113 8.5405Z" fill="#DDA15E" fill-opacity="0.2"/>
<path d="M389.229 64.5854C276.667 86.8234 82.1756 58.7943 -1 42V225H1727V96.4367C1687.43 87.1709 1586.66 77.9051 1541.23 74.4304C1470.51 66.1297 1293.24 54.5089 1149.9 74.4304C1006.56 94.3519 832.954 88.1361 764.069 82.538C686.023 67.288 501.791 42.3475 389.229 64.5854Z" fill="#DDA15E" fill-opacity="0.4"/>
<path d="M535.086 116.307C371.624 88.7249 109.586 96.6334 -1 104.035V225H1727V115.723C1662.85 105.905 1558.56 99.1655 1516.08 97.6072C1481.29 97.2176 1395.24 98.7759 1329.33 108.126C1263.42 117.476 1075.57 101.99 982.191 112.801C832.79 130.098 621.871 122.346 535.086 116.307Z" fill="#DDA15E" fill-opacity="0.6"/>
<path d="M524.865 167.053C299.149 168.398 80.2402 143.526 -1 130.922V383H1727V156.97C1624.24 177.809 1477.79 173.495 1417.41 168.734C1220.68 126.385 1123.5 130.082 1085.86 130.082C1028.5 130.082 863.366 147.447 760.901 163.692C727 169.067 589.638 169.854 524.865 167.053Z" fill="#DDA15E" fill-opacity="0.8"/>
<path d="M466.771 195.569C460.167 196.151 140.615 205.66 -1 206.048V620H1727V188C1653.99 190.135 1486.62 196.85 1401.21 206.631C1315.8 216.412 982.969 207.795 979.668 206.631C974.487 204.804 598.847 190.329 466.771 195.569Z" fill="#DDA15E"/>
<path d="M1435.89 1230.46C1558.92 1230.46 1681.23 1191.54 1727 1172.08V1031H-1V1186.68C171.251 1248.17 268.508 1236.95 295.605 1223.65C388.761 1176.17 516.777 1172.73 569.141 1176.95C853.003 1230.65 952.5 1248.49 981.093 1234.35C1008.23 1220.93 1291.98 1226.89 1435.89 1230.46Z" fill="#DDA15E" fill-opacity="0.2"/>
<path d="M1336.77 1174.41C1449.33 1152.18 1643.82 1180.21 1727 1197V1014H-1V1142.56C38.5725 1151.83 139.336 1161.09 184.771 1164.57C255.489 1172.87 432.759 1184.49 576.099 1164.57C719.44 1144.65 893.046 1150.86 961.931 1156.46C1039.98 1171.71 1224.21 1196.65 1336.77 1174.41Z" fill="#DDA15E" fill-opacity="0.4"/>
<path d="M1190.91 1122.69C1354.38 1150.28 1616.41 1142.37 1727 1134.96V1014H-1V1123.28C63.1547 1133.09 167.443 1139.83 209.919 1141.39C244.706 1141.78 330.758 1140.22 396.671 1130.87C462.583 1121.52 650.433 1137.01 743.809 1126.2C893.21 1108.9 1104.13 1116.65 1190.91 1122.69Z" fill="#DDA15E" fill-opacity="0.6"/>
<path d="M1201.13 1071.95C1426.85 1070.6 1645.76 1095.47 1727 1108.08V856H-1V1082.03C101.758 1061.19 248.21 1065.5 308.591 1070.27C505.324 1112.62 602.5 1108.92 640.139 1108.92C697.5 1108.92 862.634 1091.55 965.099 1075.31C999 1069.93 1136.36 1069.15 1201.13 1071.95Z" fill="#DDA15E" fill-opacity="0.8"/>
<path d="M1259.23 1043.45C1265.83 1042.87 1585.38 1033.38 1727 1032.99V620H-1V1051C72.0089 1048.87 239.379 1042.17 324.789 1032.41C410.198 1022.65 743.031 1031.25 746.332 1032.41C751.513 1034.24 1127.15 1048.68 1259.23 1043.45Z" fill="#DDA15E"/>
</svg>
