<svg width="1728" height="233" viewBox="0 0 1728 233" fill="none" xmlns="http://www.w3.org/2000/svg">
<path d="M291.113 5.50512C168.076 5.50512 45.7724 44.4241 0 63.8836V204.965H1728V49.2887C1555.75 -12.2032 1466 -5.32261 1431.39 12.3157C1338.24 59.7969 1210.22 63.2349 1157.86 59.0187C873.997 5.31052 788.5 1.61337 745.907 1.61322C715.629 1.61312 435.021 9.0727 291.113 5.50512Z" fill="#DDA15E" fill-opacity="0.2"/>
<path d="M390.229 61.5503C277.667 83.7883 83.1756 55.7591 0 38.9648V221.965H1728V93.4016C1688.43 84.1357 1587.66 74.8699 1542.23 71.3952C1471.51 63.0946 1294.24 51.4737 1150.9 71.3952C1007.56 91.3167 833.954 85.1009 765.069 79.5028C687.023 64.2528 502.791 39.3123 390.229 61.5503Z" fill="#DDA15E" fill-opacity="0.4"/>
<path d="M536.086 113.272C372.624 85.6897 110.586 93.5982 0 101V221.965H1728V112.688C1663.85 102.87 1559.56 96.1304 1517.08 94.572C1482.29 94.1825 1396.24 95.7408 1330.33 105.091C1264.42 114.441 1076.57 98.9548 983.191 109.766C833.79 127.063 622.871 119.31 536.086 113.272Z" fill="#DDA15E" fill-opacity="0.6"/>
<path d="M525.865 142.524C300.149 143.088 81.2402 132.667 0 127.386V233H1728V138.3C1625.24 147.031 1478.79 145.223 1418.41 143.228C1221.68 125.485 1124.5 127.034 1086.86 127.034C1029.5 127.034 864.366 134.31 761.901 141.116C728 143.368 590.638 143.698 525.865 142.524Z" fill="#DDA15E" fill-opacity="0.8"/>
<path d="M467.771 185.841C461.167 185.906 141.615 186.962 0 187.005V233H1728V185C1654.99 185.237 1487.62 185.983 1402.21 187.07C1316.8 188.157 983.969 187.199 980.668 187.07C975.487 186.867 599.847 185.259 467.771 185.841Z" fill="#DDA15E"/>
</svg>
