<svg width="216" height="182" viewBox="0 0 216 182" fill="none" xmlns="http://www.w3.org/2000/svg">
<g filter="url(#filter0_d_364_325)">
<path d="M204.5 129.158C204.5 189.081 118 169.532 60.5 157.158C21 148.658 0 157.158 0 92.1577C0 32.2349 42.5 -21.8426 108.5 9.15774C164 35.2262 204.5 69.2353 204.5 129.158Z" fill="#FFEBD3"/>
</g>
<path d="M92.9746 71.7822C94.1081 72.5363 96.1698 74.6099 95.3486 76.8721" stroke="black" stroke-width="0.2"/>
<path d="M148.142 63.8518C148.084 57.0094 152.185 56.1079 154.087 56.862L154.7 61.934C154.7 61.934 156.53 65.7036 157.363 68.1093L157.95 74.248C158.206 75.3188 159.54 77.4272 159.665 77.7921L160.452 95.3129C160.836 96.9191 161.685 101.498 164.991 103.008C175.927 108.487 176.337 108.536 181.081 111.678C176.88 119.845 172.617 122.587 161.755 124.34C161.755 124.34 160.822 121.738 141.902 115.396C131.128 111.379 132.419 114.849 124.932 108.644C123.342 106.867 121.897 105.896 120.919 104.906C120.324 104.304 117.741 101.756 116.843 101.128C115.559 100.877 113.872 99.2365 112.951 98.391C109.884 96.6349 109.088 93.2467 109.074 91.7722C108.804 89.645 109.485 88.3498 110.489 87.5936C109.333 86.9256 107.407 84.6877 108.951 81.0808C109.41 80.4624 110.54 79.2026 111.592 78.8121C111.663 78.7856 111.734 78.7632 111.804 78.7452C111.925 78.7144 112.045 78.6891 112.165 78.6704C112.272 78.6538 112.378 78.6424 112.483 78.6368L111.38 78.6159C109.422 79.3004 106.889 79.0504 106.604 74.9139C106.247 69.7367 110.836 69.8866 112.684 70.5938L112.208 66.9264C109.784 66.0965 105.919 64.1583 106.667 61.4118C107.416 58.6652 109.279 58.4965 110.69 58.7307L143.564 82.8338C145.366 84.3443 148.178 86.851 148.945 81.7434C149.712 76.6357 150.357 74.0853 149.669 71.4596C149.14 71.2366 148.2 70.6941 148.142 63.8518Z" fill="#A78652"/>
<path d="M114.405 86.6118C114.79 86.172 115.047 85.2504 115.111 84.7895C115.214 84.7895 115.539 86.6956 115.688 87.7429C115.363 87.0143 114.715 86.7283 114.405 86.6118Z" fill="#755E3A"/>
<path d="M111.582 78.5686L113.764 77.4375L114.148 79.197C113.122 78.4429 112.801 78.6314 112.673 78.6314C112.57 78.6314 111.903 78.5895 111.582 78.5686Z" fill="#755E3A"/>
<path d="M110.752 62.6707C110.752 61.6653 110.453 59.5497 110.752 58.9004L112.035 66.9437C111.907 66.7552 111.517 66.1294 110.996 65.0585C110.573 64.1914 110.803 63.8018 110.752 62.6707Z" fill="#755E3A"/>
<path d="M112.289 72.5368C112.289 71.6728 112.248 71.1469 112.571 70.5889L113.955 77.501C113.817 77.339 113.546 76.7247 112.983 75.8044C112.528 75.0592 112.344 73.5089 112.289 72.5368Z" fill="#755E3A"/>
<path d="M113.957 80.9568C113.957 80.0928 113.919 79.5668 114.218 79.0088L115.496 85.921C115.369 85.759 115.118 85.1446 114.598 84.2243C114.177 83.4792 114.007 81.9288 113.957 80.9568Z" fill="#755E3A"/>
<path d="M115.046 88.6855C115.046 88.1199 115.193 87.7939 115.367 87.4287C116.518 88.8555 116.269 90.7269 116.137 92.8956C116.062 92.7896 115.477 91.7385 115.175 91.1362C114.929 90.6484 115.076 89.3217 115.046 88.6855Z" fill="#755E3A"/>
<path d="M132.923 102.806C134.72 102.554 144.857 100.041 144.023 99.7267C140.173 99.0983 123.168 101.142 120.821 100.75C119.423 100.517 117.967 96.7793 117.356 95.0767C117.164 94.9301 116.691 92.4376 116.819 91.8721C116.947 91.3065 115.496 94.6368 115.303 95.0767C114.867 96.0737 115.775 99.1388 116.691 100.041C117.646 100.982 117.931 101.726 119.794 102.51C121.156 103.082 125.481 103.434 126.764 103.56C127.668 103.648 131.127 103.057 132.923 102.806Z" fill="#755E3A"/>
<path d="M172.021 106.595C172.996 106.746 178.416 110.051 181.004 111.685L179.336 114.701C175.915 113.224 172.02 110.819 168.877 109.045C165.735 107.272 163.078 106.307 160.857 104.081C160.036 104.232 158.718 98.9495 157.585 95.9751C156.916 89.2781 156.791 85.522 157.008 78.8203L155.788 74.8615L154.89 68.7662L152.773 62.5452C152.054 60.6258 152.29 59.4137 152.516 57.4554C152.195 56.3872 153.243 56.5757 154.12 56.827L154.698 61.9169C155.952 64.2545 156.439 65.6618 157.328 68.1379L157.97 74.4845L159.702 77.8149L160.6 95.9123C161.011 99.029 162.91 101.484 163.809 102.322C166.221 103.478 170.289 105.652 172.021 106.595Z" fill="#DBB5A2" fill-opacity="0.13"/>
<path d="M114.419 86.6748C113.157 86.9052 112.16 88.4343 112.673 91.0735" stroke="black" stroke-width="0.1"/>
<path d="M112.18 78.6318C111.089 80.0143 110.363 81.5224 111.261 83.4075" stroke="black" stroke-width="0.1"/>
<path d="M108.696 72.5986C108.31 73.5412 108.31 74.5466 108.696 76.0547" stroke="black" stroke-width="0.1"/>
<path d="M149.372 71.2168C149.757 71.6776 151.156 72.3856 153.671 71.531" stroke="black" stroke-width="0.1"/>
<path d="M112.579 96.9907C113.597 96.3774 115.68 94.7762 115.864 93.2774M116.633 99.922C117.837 98.7831 119.948 96.1764 118.76 94.861M122.386 105.731C123.634 103.244 127.13 97.4822 131.131 94.3282" stroke="black" stroke-width="0.1"/>
<path d="M147.049 44.2804C130.507 42.7933 126.938 42.8028 110.402 45.8586C110.031 47.533 111.003 49.2895 111.003 49.2895C125.635 46.5853 141.227 47.1236 147.204 47.7305C147.204 47.7305 147.877 45.7591 147.049 44.2804Z" fill="#513B2D"/>
<path d="M109.847 53.3722C130.159 49.9626 144.139 50.8393 148.59 51.7039C148.59 51.7039 149.929 51.7159 150.345 51.0521C150.762 50.3883 150.684 48.6632 150.223 48.3207C149.761 47.9783 147.204 47.7305 147.204 47.7305C141.227 47.1236 125.635 46.5853 111.003 49.2895C111.003 49.2895 108.94 49.7361 108.673 50.398C108.405 51.06 108.308 52.2164 108.782 52.8419C109.257 53.4674 109.847 53.3722 109.847 53.3722Z" fill="#513B2D"/>
<path d="M109.847 53.3722C112.018 67.4901 116.732 96.0843 118.224 97.518C123.27 98.3803 135.856 99.3496 145.834 96.3291C147.083 95.0078 148.192 66.0284 148.59 51.7039C144.139 50.8393 130.159 49.9626 109.847 53.3722Z" fill="#B3814C"/>
<path d="M118.224 97.518C118.224 97.518 119.428 100.516 120.929 100.813C120.929 100.813 141.833 100.131 143.307 99.8495C144.782 99.5678 145.834 96.3291 145.834 96.3291C135.856 99.3496 123.27 98.3803 118.224 97.518Z" fill="#E6F0FA"/>
<path d="M111.581 62.356C111.264 61.3996 111.174 59.4673 110.684 58.9401L111.996 66.979C112.059 66.7609 111.949 65.9882 111.838 64.8067C111.743 63.8013 111.889 63.4474 111.581 62.356Z" fill="#755E3A"/>
<path d="M114.759 80.3596C114.549 79.741 114.475 79.7051 114.158 79.2875L115.244 85.2977C115.362 85.0745 115.438 84.2894 115.293 83.3121C115.164 82.4458 114.962 81.2051 114.759 80.3596Z" fill="#755E3A"/>
<path d="M117.352 75.0396C116.956 75.0567 116.608 74.9999 116.309 74.8694C116.009 74.7355 115.775 74.5387 115.607 74.279C115.438 74.0194 115.346 73.7131 115.33 73.3601C115.308 72.8706 115.38 72.4321 115.546 72.0446C115.716 71.6569 115.954 71.353 116.261 71.133C116.568 70.9096 116.915 70.7895 117.301 70.7729C117.661 70.7574 117.938 70.8389 118.133 71.0173C118.327 71.1925 118.432 71.4315 118.445 71.7346C118.454 71.9377 118.425 72.1024 118.357 72.2288C118.293 72.355 118.194 72.421 118.061 72.4267C117.968 72.4307 117.893 72.4123 117.838 72.3713C117.783 72.3303 117.753 72.2681 117.75 72.1849C117.748 72.1549 117.753 72.0997 117.762 72.0192C117.778 71.9184 117.784 71.8381 117.782 71.7781C117.768 71.4751 117.6 71.3306 117.277 71.3445C117.057 71.3539 116.85 71.4346 116.657 71.5864C116.463 71.7382 116.311 71.9566 116.201 72.2416C116.09 72.5233 116.043 72.8556 116.06 73.2385C116.078 73.6381 116.204 73.943 116.437 74.1532C116.67 74.36 117.004 74.4541 117.44 74.4353C117.657 74.426 117.874 74.3899 118.091 74.3272C118.312 74.261 118.554 74.1654 118.819 74.0406C118.868 74.0185 118.909 74.0067 118.943 74.0053C118.996 74.003 119.037 74.0212 119.065 74.06C119.094 74.0988 119.109 74.1499 119.112 74.2132C119.121 74.4163 119.018 74.5709 118.803 74.6769C118.571 74.7903 118.328 74.8775 118.074 74.9385C117.823 74.996 117.582 75.0297 117.352 75.0396ZM119.368 74.9528C119.162 74.9617 118.994 74.8939 118.864 74.7493C118.734 74.6048 118.663 74.411 118.652 74.1679C118.64 73.9015 118.691 73.6474 118.803 73.4057C118.916 73.1606 119.07 72.9621 119.267 72.8102C119.467 72.6548 119.682 72.5721 119.912 72.5622C119.985 72.5591 120.034 72.572 120.058 72.6009C120.086 72.6264 120.11 72.6755 120.13 72.748C120.199 72.7317 120.272 72.7219 120.349 72.7186C120.512 72.7115 120.596 72.7663 120.602 72.8828C120.605 72.9528 120.587 73.1203 120.549 73.3856C120.49 73.7718 120.463 74.0399 120.47 74.1897C120.472 74.2397 120.486 74.2791 120.51 74.3081C120.538 74.3369 120.572 74.3505 120.612 74.3487C120.676 74.346 120.75 74.3028 120.837 74.219C120.923 74.1318 121.039 73.9934 121.184 73.8037C121.221 73.7553 121.265 73.7301 121.315 73.7279C121.359 73.7261 121.393 73.7446 121.418 73.7836C121.446 73.8224 121.462 73.8767 121.465 73.9467C121.471 74.0799 121.444 74.1845 121.384 74.2604C121.255 74.4362 121.117 74.5856 120.969 74.7087C120.821 74.8319 120.675 74.8965 120.532 74.9027C120.422 74.9074 120.319 74.8752 120.223 74.8059C120.129 74.7332 120.056 74.6329 120.004 74.5051C119.843 74.7922 119.631 74.9415 119.368 74.9528ZM119.525 74.4406C119.599 74.4374 119.667 74.3911 119.729 74.3017C119.792 74.2122 119.835 74.0953 119.859 73.9508L120.002 73.0238C119.863 73.0331 119.735 73.092 119.62 73.2004C119.508 73.3053 119.421 73.4425 119.358 73.612C119.296 73.7815 119.269 73.9595 119.277 74.146C119.282 74.2492 119.305 74.325 119.347 74.3732C119.393 74.4213 119.452 74.4437 119.525 74.4406ZM122.981 73.3709C123.074 73.3669 123.124 73.4348 123.13 73.5747C123.142 73.8378 122.941 73.9782 122.528 73.996C122.448 73.9994 122.333 73.9894 122.182 73.9659C122.234 74.1705 122.279 74.3987 122.317 74.6507C122.359 74.8991 122.383 75.1049 122.39 75.2681C122.406 75.6277 122.36 75.905 122.252 76.0998C122.144 76.2946 121.995 76.3961 121.806 76.4043C121.566 76.4146 121.387 76.2522 121.268 75.917C121.153 75.5816 121.08 75.0709 121.049 74.385C121.021 73.7456 121.06 73.095 121.167 72.4331C121.277 71.7677 121.443 71.2151 121.663 70.7752C121.887 70.3319 122.143 70.1039 122.433 70.0915C122.59 70.0847 122.714 70.1494 122.807 70.2856C122.903 70.4215 122.957 70.6077 122.967 70.8442C123.003 71.6267 122.573 72.4993 121.679 73.462C121.66 73.7898 121.656 74.0769 121.667 74.3233C121.683 74.6663 121.71 75.0171 121.749 75.3758C121.789 75.7377 121.835 75.9176 121.889 75.9153C121.989 75.911 122.031 75.7357 122.015 75.3893C122.004 75.1296 121.974 74.879 121.926 74.6375C121.882 74.3958 121.824 74.1414 121.752 73.8743C121.747 73.8311 121.758 73.7756 121.785 73.7077C121.815 73.6397 121.852 73.5797 121.897 73.5277C121.941 73.4758 121.982 73.449 122.018 73.4474C122.085 73.4446 122.165 73.4444 122.258 73.4471C122.289 73.4491 122.324 73.4493 122.364 73.4476C122.497 73.4418 122.644 73.4238 122.807 73.3935C122.833 73.389 122.861 73.3844 122.891 73.3798C122.921 73.3752 122.951 73.3722 122.981 73.3709ZM122.35 70.5905C122.29 70.5931 122.22 70.6979 122.139 70.9049C122.062 71.1117 121.987 71.3852 121.916 71.7252C121.844 72.062 121.785 72.4182 121.739 72.7938C121.991 72.4793 122.182 72.1558 122.311 71.8233C122.439 71.4875 122.498 71.1763 122.489 70.8898C122.48 70.6867 122.434 70.5869 122.35 70.5905ZM124.552 73.7387C124.595 73.7368 124.629 73.7554 124.654 73.7943C124.683 73.8331 124.698 73.8875 124.702 73.9574C124.707 74.0773 124.683 74.1818 124.631 74.2708C124.544 74.418 124.426 74.5349 124.276 74.6214C124.13 74.7077 123.952 74.7554 123.742 74.7645C123.422 74.7782 123.17 74.694 122.985 74.5118C122.8 74.3263 122.7 74.0703 122.685 73.744C122.675 73.5142 122.713 73.299 122.801 73.0984C122.889 72.8945 123.015 72.7305 123.179 72.6067C123.347 72.4827 123.54 72.416 123.756 72.4067C123.949 72.3984 124.107 72.45 124.229 72.5615C124.35 72.6697 124.415 72.822 124.424 73.0185C124.435 73.2483 124.36 73.45 124.201 73.6237C124.045 73.7939 123.771 73.9358 123.379 74.0494C123.466 74.1992 123.604 74.2699 123.794 74.2618C123.931 74.2559 124.041 74.2194 124.125 74.1524C124.212 74.0853 124.31 73.9743 124.42 73.8194C124.458 73.7678 124.502 73.7408 124.552 73.7387ZM123.693 72.8999C123.57 72.9052 123.468 72.9813 123.388 73.1282C123.311 73.275 123.277 73.4499 123.287 73.653L123.287 73.663C123.481 73.608 123.633 73.5314 123.742 73.4332C123.851 73.3351 123.903 73.2245 123.897 73.1013C123.895 73.038 123.874 72.9888 123.836 72.9538C123.801 72.9152 123.753 72.8973 123.693 72.8999ZM126.557 74.7233C126.503 74.7256 126.459 74.7092 126.424 74.674C126.389 74.6388 126.37 74.5746 126.366 74.4813C126.363 74.4114 126.379 74.2973 126.415 74.1389C126.455 73.977 126.508 73.7879 126.575 73.5715C126.645 73.3549 126.724 73.1264 126.81 72.8858C126.899 72.6417 126.991 72.3992 127.087 72.1581C127.183 71.9171 127.278 71.6945 127.373 71.4903C127.467 71.2827 127.554 71.1071 127.634 70.9635C127.714 70.8199 127.784 70.7252 127.842 70.6793C127.909 70.6264 127.973 70.5986 128.033 70.596C128.066 70.5946 128.1 70.5965 128.133 70.6017C128.167 70.6069 128.196 70.6174 128.22 70.633C128.282 70.6671 128.337 70.7464 128.386 70.8711C128.438 70.9923 128.485 71.1421 128.526 71.3205C128.567 71.4955 128.602 71.6842 128.632 71.8865C128.664 72.0852 128.693 72.2825 128.718 72.4783C128.817 72.4607 128.9 72.4471 128.967 72.4375C129.033 72.428 129.081 72.4226 129.111 72.4213C129.224 72.4164 129.297 72.4283 129.328 72.457C129.359 72.4857 129.377 72.52 129.383 72.5598C129.392 72.6194 129.378 72.6734 129.34 72.7218C129.302 72.7701 129.247 72.8075 129.175 72.834C129.152 72.8416 129.102 72.8554 129.026 72.8754C128.954 72.8919 128.866 72.9123 128.764 72.9367C128.772 73.0365 128.777 73.1297 128.781 73.2162C128.788 73.2993 128.793 73.3709 128.796 73.4308C128.81 73.7338 128.802 73.9627 128.772 74.1175C128.742 74.2689 128.701 74.3724 128.651 74.428C128.6 74.4836 128.549 74.5124 128.499 74.5146C128.439 74.5172 128.397 74.5023 128.372 74.47C128.347 74.4344 128.333 74.3833 128.33 74.3167L128.314 73.962C128.309 73.8388 128.301 73.699 128.29 73.5427C128.283 73.3828 128.274 73.2147 128.263 73.0384C128.068 73.0801 127.869 73.1204 127.668 73.1591C127.469 73.1977 127.297 73.2318 127.152 73.2614C127.087 73.4544 127.031 73.6286 126.985 73.784C126.938 73.9362 126.907 74.0527 126.891 74.1334C126.848 74.3021 126.809 74.4289 126.773 74.5139C126.736 74.5955 126.7 74.6504 126.665 74.6786C126.633 74.7067 126.597 74.7216 126.557 74.7233ZM127.302 72.8095C127.473 72.7621 127.636 72.7184 127.791 72.6783C127.95 72.6382 128.095 72.6035 128.227 72.5745C128.204 72.2752 128.172 71.9896 128.133 71.7177C128.098 71.4423 128.053 71.2257 127.999 71.0679C127.941 71.1805 127.873 71.3303 127.794 71.5171C127.716 71.704 127.633 71.9111 127.547 72.1384C127.463 72.3622 127.382 72.5859 127.302 72.8095ZM134.15 74.1411C134.149 74.1945 134.129 74.2388 134.091 74.2738C134.052 74.3088 134.007 74.3275 133.953 74.3298C133.893 74.3323 133.843 74.3145 133.801 74.2763C133.759 74.238 133.736 74.1773 133.733 74.094C133.723 73.8776 133.722 73.6424 133.731 73.3885C133.739 73.1312 133.753 72.877 133.772 72.626C133.79 72.3716 133.81 72.1372 133.83 71.9228C133.727 72.0841 133.615 72.2624 133.494 72.4578C133.376 72.653 133.254 72.8468 133.13 73.039C133.005 73.2312 132.883 73.4083 132.763 73.5703C132.643 73.7289 132.534 73.8587 132.435 73.9597C132.336 74.0574 132.253 74.1077 132.187 74.1106C132.063 74.1159 131.955 74.0722 131.861 73.9795C131.766 73.8834 131.716 73.7605 131.709 73.6107C131.706 73.5507 131.709 73.4688 131.718 73.365C131.726 73.2579 131.736 73.1457 131.748 73.0284C131.759 72.9112 131.769 72.8023 131.778 72.7018C131.787 72.598 131.79 72.5212 131.788 72.4712C131.786 72.4246 131.779 72.3848 131.767 72.352C131.759 72.3156 131.742 72.298 131.715 72.2992C131.675 72.3009 131.622 72.3482 131.556 72.4411C131.49 72.5307 131.417 72.6457 131.336 72.7859C131.259 72.926 131.179 73.0746 131.096 73.2317C131.016 73.3886 130.941 73.5369 130.871 73.6768C130.8 73.8133 130.74 73.921 130.69 73.9998C130.65 74.075 130.613 74.13 130.578 74.1648C130.542 74.1997 130.498 74.2183 130.445 74.2206C130.382 74.2233 130.322 74.1925 130.266 74.1282C130.213 74.0638 130.184 73.9833 130.18 73.8867C130.177 73.8301 130.183 73.7414 130.198 73.6207C130.212 73.4966 130.231 73.3607 130.255 73.2129C130.281 73.0649 130.306 72.9204 130.33 72.7792C130.357 72.6346 130.38 72.5118 130.399 72.4109C130.42 72.2965 130.45 72.2185 130.488 72.1768C130.526 72.1352 130.569 72.1133 130.615 72.1113C130.679 72.1086 130.73 72.1297 130.768 72.1748C130.81 72.2164 130.833 72.2838 130.838 72.377C130.838 72.3936 130.83 72.439 130.814 72.5132C130.797 72.5839 130.776 72.6716 130.75 72.7761C130.728 72.8772 130.703 72.9833 130.675 73.0947C130.65 73.2059 130.629 73.3085 130.613 73.4026C130.681 73.2762 130.752 73.1397 130.825 72.9931C130.902 72.8463 130.979 72.7012 131.056 72.5578C131.133 72.411 131.21 72.2775 131.288 72.1574C131.366 72.0339 131.443 71.9355 131.52 71.8622C131.597 71.7888 131.672 71.7505 131.745 71.7474C131.832 71.7436 131.913 71.7668 131.989 71.817C132.068 71.8669 132.132 71.9359 132.183 72.0238C132.234 72.1117 132.262 72.2106 132.267 72.3205C132.27 72.3971 132.261 72.5059 132.241 72.6469C132.221 72.7845 132.199 72.9339 132.176 73.0951C132.157 73.2561 132.147 73.4083 132.147 73.5518C132.148 73.5851 132.159 73.6013 132.179 73.6004C132.195 73.5997 132.215 73.5872 132.237 73.5629C132.329 73.4522 132.43 73.3194 132.54 73.1645C132.649 73.0063 132.76 72.8397 132.873 72.6647C132.988 72.4896 133.102 72.3178 133.215 72.1495C133.327 71.9779 133.432 71.8232 133.529 71.6856C133.63 71.5444 133.718 71.4322 133.794 71.3488C133.874 71.2653 133.937 71.2226 133.984 71.2206C134.084 71.2163 134.162 71.2413 134.218 71.2956C134.273 71.3499 134.304 71.4437 134.31 71.5769C134.315 71.6834 134.313 71.822 134.304 71.9925C134.298 72.1629 134.288 72.3485 134.274 72.5493C134.263 72.75 134.249 72.9525 134.231 73.1567C134.217 73.3575 134.202 73.545 134.186 73.7192C134.17 73.89 134.158 74.0307 134.15 74.1411ZM135.322 74.2658C135.258 74.2686 135.201 74.2477 135.149 74.2032C135.096 74.1554 135.068 74.0799 135.063 73.9767C135.06 73.9034 135.066 73.8014 135.08 73.6707C135.094 73.5366 135.114 73.3906 135.14 73.2327C135.166 73.0747 135.194 72.9184 135.224 72.7636C135.257 72.6054 135.291 72.4638 135.325 72.3389C135.36 72.214 135.39 72.1209 135.418 72.0597C135.442 72.0119 135.466 71.9808 135.489 71.9665C135.515 71.9521 135.539 71.9443 135.563 71.9433C135.609 71.9413 135.65 71.9546 135.685 71.9831C135.723 72.0115 135.743 72.069 135.747 72.1556C135.75 72.2055 135.743 72.2892 135.729 72.4066C135.717 72.5205 135.7 72.6547 135.677 72.8092C135.657 72.9602 135.634 73.1163 135.608 73.2776C135.585 73.4354 135.561 73.5866 135.538 73.731C135.514 73.8755 135.496 73.9964 135.484 74.0937C135.473 74.1475 135.452 74.1902 135.42 74.2216C135.391 74.2495 135.358 74.2643 135.322 74.2658ZM135.687 71.4825C135.611 71.4858 135.536 71.4657 135.464 71.4221C135.395 71.3783 135.359 71.3048 135.354 71.2016C135.35 71.115 135.367 71.0442 135.405 70.9892C135.446 70.9341 135.494 70.8936 135.549 70.8679C135.608 70.8387 135.659 70.8231 135.702 70.8213C135.746 70.8194 135.795 70.8273 135.849 70.845C135.906 70.8592 135.956 70.8904 135.998 70.9387C136.04 70.9836 136.063 71.0526 136.067 71.1459C136.07 71.2091 136.051 71.2667 136.01 71.3185C135.969 71.367 135.917 71.4059 135.855 71.4353C135.796 71.4645 135.74 71.4802 135.687 71.4825ZM138.982 74.3484C138.765 74.3578 138.563 74.3147 138.375 74.2194C138.191 74.1239 138.022 73.9978 137.868 73.8409C137.717 73.6839 137.581 73.5146 137.46 73.333C137.341 73.1479 137.238 72.9738 137.151 72.8108C137.106 73.0829 137.071 73.303 137.045 73.4709C137.023 73.6387 137.004 73.7663 136.988 73.8538C136.975 73.9411 136.961 74.0001 136.945 74.0308C136.93 74.0614 136.909 74.0774 136.883 74.0785C136.809 74.0817 136.738 74.0447 136.667 73.9677C136.597 73.8906 136.559 73.7888 136.554 73.6623C136.548 73.5291 136.563 73.3516 136.6 73.1298C136.636 72.9047 136.687 72.6556 136.751 72.3826C136.819 72.1061 136.898 71.8208 136.988 71.5266C137.078 71.2291 137.172 70.9398 137.27 70.6587C137.37 70.3741 137.472 70.1145 137.575 69.8798C137.626 69.7642 137.671 69.6888 137.71 69.6538C137.752 69.6187 137.803 69.5998 137.863 69.5972C137.959 69.593 138.009 69.6359 138.013 69.7258C138.015 69.7591 138.007 69.7962 137.988 69.837C137.974 69.8777 137.957 69.9234 137.94 69.9742C137.886 70.1233 137.827 70.291 137.762 70.4773C137.7 70.6635 137.637 70.8581 137.573 71.061C137.512 71.2638 137.454 71.4648 137.4 71.664C137.345 71.8632 137.299 72.0471 137.259 72.2156C137.398 72.1095 137.562 72.0024 137.75 71.8941C137.939 71.7859 138.135 71.6874 138.338 71.5986C138.541 71.5065 138.732 71.4315 138.913 71.3736C139.094 71.3158 139.245 71.2843 139.364 71.2791C139.428 71.2764 139.477 71.2943 139.512 71.3328C139.55 71.3679 139.57 71.4087 139.573 71.4553C139.574 71.492 139.564 71.5291 139.543 71.5667C139.524 71.6009 139.482 71.6327 139.417 71.6622C139.2 71.7483 138.986 71.8359 138.773 71.9252C138.56 72.0111 138.337 72.1041 138.105 72.2042C137.875 72.3008 137.625 72.415 137.354 72.5468C137.447 72.6896 137.556 72.8434 137.68 73.0082C137.804 73.1697 137.936 73.3225 138.076 73.4666C138.216 73.6074 138.358 73.723 138.502 73.8136C138.646 73.9008 138.788 73.9414 138.928 73.9354C139.111 73.9275 139.286 73.8816 139.453 73.7977C139.619 73.7138 139.771 73.6138 139.91 73.4977C140.051 73.3815 140.175 73.2695 140.28 73.1615C140.385 73.0502 140.468 72.9632 140.528 72.9006C140.56 72.8692 140.589 72.8479 140.616 72.8367C140.645 72.8221 140.671 72.8143 140.695 72.8133C140.741 72.8113 140.774 72.8349 140.793 72.8842C140.815 72.9299 140.801 72.9823 140.75 73.0412C140.712 73.0895 140.654 73.1637 140.575 73.2639C140.496 73.3641 140.399 73.475 140.284 73.5967C140.173 73.7149 140.048 73.8304 139.909 73.9431C139.774 74.0557 139.627 74.1488 139.467 74.2225C139.31 74.2993 139.148 74.3413 138.982 74.3484ZM141.252 74.0355C141.056 74.0439 140.897 73.9757 140.777 73.8307C140.657 73.6857 140.592 73.4934 140.581 73.2536C140.577 73.167 140.585 73.075 140.604 72.9774C140.626 72.8763 140.655 72.785 140.692 72.7034C140.667 72.681 140.648 72.6502 140.633 72.6108C140.617 72.5681 140.608 72.5151 140.605 72.4518C140.597 72.2554 140.622 72.0741 140.681 71.9081C140.74 71.742 140.822 71.5967 140.927 71.4721C141.031 71.3442 141.148 71.244 141.279 71.1717C141.412 71.0992 141.549 71.06 141.689 71.0539C141.919 71.044 142.109 71.1193 142.259 71.2796C142.41 71.4366 142.493 71.6833 142.508 72.0196C142.516 72.1961 142.497 72.377 142.452 72.5625C142.41 72.7478 142.348 72.9273 142.266 73.101C142.187 73.2745 142.092 73.4304 141.982 73.5686C141.875 73.7067 141.758 73.8185 141.632 73.904C141.508 73.9861 141.382 74.0299 141.252 74.0355ZM141.014 72.5193C141.035 72.5451 141.047 72.5796 141.048 72.6229C141.051 72.6729 141.043 72.7233 141.025 72.7741C141.011 72.8247 140.996 72.8938 140.979 72.9812C140.963 73.0687 140.959 73.1923 140.966 73.3521C140.973 73.512 141.04 73.5892 141.167 73.5837C141.307 73.5777 141.434 73.5172 141.549 73.4021C141.664 73.2837 141.764 73.1343 141.849 72.9538C141.934 72.7733 141.998 72.5821 142.039 72.3801C142.083 72.1747 142.101 71.9821 142.093 71.8022C142.087 71.6857 142.062 71.605 142.017 71.5603C141.971 71.5122 141.892 71.4906 141.779 71.4955C141.662 71.5005 141.542 71.5457 141.419 71.6311C141.3 71.713 141.201 71.8223 141.124 71.9591C141.046 72.0959 141.012 72.2475 141.019 72.414C141.021 72.4506 141.019 72.4857 141.014 72.5193ZM143.818 73.925C143.622 73.9334 143.463 73.8652 143.343 73.7202C143.223 73.5752 143.158 73.3829 143.147 73.1431C143.143 73.0565 143.151 72.9645 143.17 72.8669C143.192 72.7658 143.221 72.6745 143.258 72.5929C143.233 72.5705 143.214 72.5397 143.198 72.5003C143.183 72.4576 143.174 72.4046 143.171 72.3413C143.163 72.1449 143.188 71.9636 143.247 71.7976C143.306 71.6315 143.388 71.4862 143.493 71.3616C143.597 71.2337 143.714 71.1335 143.845 71.0612C143.978 70.9887 144.115 70.9495 144.255 70.9434C144.485 70.9335 144.675 71.0088 144.825 71.1691C144.976 71.3261 145.059 71.5728 145.074 71.9091C145.082 72.0856 145.063 72.2665 145.018 72.452C144.976 72.6373 144.914 72.8168 144.832 72.9905C144.753 73.164 144.658 73.3199 144.548 73.4582C144.441 73.5962 144.324 73.708 144.197 73.7935C144.074 73.8756 143.948 73.9194 143.818 73.925ZM143.58 72.4088C143.601 72.4346 143.613 72.4691 143.614 72.5124C143.617 72.5624 143.609 72.6128 143.591 72.6636C143.577 72.7142 143.562 72.7833 143.545 72.8707C143.529 72.9582 143.525 73.0818 143.532 73.2416C143.539 73.4015 143.606 73.4787 143.733 73.4732C143.873 73.4672 144 73.4067 144.115 73.2916C144.23 73.1732 144.33 73.0238 144.415 72.8433C144.5 72.6628 144.564 72.4716 144.605 72.2696C144.649 72.0642 144.667 71.8716 144.659 71.6917C144.653 71.5752 144.628 71.4945 144.583 71.4498C144.537 71.4017 144.458 71.3801 144.345 71.385C144.228 71.39 144.108 71.4352 143.985 71.5206C143.866 71.6025 143.767 71.7118 143.69 71.8486C143.612 71.9854 143.578 72.137 143.585 72.3035C143.587 72.3401 143.585 72.3752 143.58 72.4088Z" fill="#282222"/>
<path d="M65.5201 55.4731C64.4516 56.4066 62.329 57.0455 59.6431 58.7018C56.8463 62.9985 50.9425 72.6701 49.7011 76.9834C46.4327 82.1878 36.8848 91.3843 30.2907 92.6971C19.7884 96.5947 22.1252 95.8473 21.4261 96.0117C15.7207 97.3537 14.3773 99.1161 8.0014 98.825C5.44025 110.353 7.66061 116.019 15.9809 124.928C26.0546 121.047 31.911 114.786 36.2563 112.438C41.1881 109.772 44.073 109.61 48.0618 109.61C50.564 109.61 56.2379 111.281 61.6344 105.912C62.6615 105.136 64.1052 103.952 65.7092 102.496C67.5639 100.812 69.6329 98.7636 71.5201 96.5596C73.1207 94.6902 74.5906 92.7087 75.688 90.7422C76.8106 89.316 81.9618 86.374 83.1118 86.6035L89.1888 85.92C90.7918 85.8404 92.6409 84.4566 92.9743 83.5951C94.2435 81.7787 92.3582 80.0385 90.8571 79.6134L91.3419 77.7191C93.6418 78.1282 94.0651 78.3795 94.9634 77.5626C96.6315 75.489 94.7577 72.8706 92.736 71.6003L93.6418 67.2963C94.8114 67.6636 97.1938 68.5938 97.7864 65.8119C98.3791 63.0301 96.3005 60.8508 95.0479 60.5393L68.3275 53.7578C67.8954 54.2867 66.2758 55.1217 65.5201 55.4731Z" fill="#DBB5A2"/>
<path d="M95.0061 47.8936C80.2368 44.821 77.0142 44.458 61.7561 45.5118C61.2392 46.9939 61.9249 48.6903 61.9249 48.6903C75.4264 47.7576 89.4424 49.8698 94.7708 51.0431C94.7708 51.0431 95.5927 49.3228 95.0061 47.8936Z" fill="#513B2D"/>
<path d="M60.4384 52.278C79.143 51.2959 91.6665 53.5475 95.5902 54.7961C95.5902 54.7961 96.7975 54.9465 97.2455 54.3869C97.6935 53.8274 97.8111 52.2526 97.4318 51.8935C97.0524 51.5344 94.7708 51.0431 94.7708 51.0431C89.4424 49.8698 75.4264 47.7576 61.9249 48.6903C61.9249 48.6903 60.0151 48.8812 59.7014 49.4545C59.3878 50.0278 59.1747 51.068 59.5348 51.6855C59.8949 52.3029 60.4384 52.278 60.4384 52.278Z" fill="#513B2D"/>
<path d="M60.4384 52.278C60.8631 65.326 62.0102 91.7863 63.2012 93.2438C67.662 94.5522 78.9173 96.7428 88.2519 95.0383C89.5233 93.9683 93.6738 67.7644 95.5902 54.7961C91.6665 53.5475 79.143 51.2959 60.4384 52.278Z" fill="#B3814C"/>
<path d="M63.2012 93.2438C63.2012 93.2438 63.9617 96.0914 65.2838 96.518C65.2838 96.518 84.2269 98.0749 85.5885 97.9725C86.9502 97.8702 88.2519 95.0383 88.2519 95.0383C78.9173 96.7428 67.662 94.5522 63.2012 93.2438Z" fill="#E6F0FA"/>
<path d="M63.0134 72.2357C62.6177 72.2073 62.2789 72.1112 61.997 71.9473C61.7154 71.7801 61.5063 71.5579 61.3699 71.2808C61.2335 71.0037 61.1785 70.689 61.2048 70.3366C61.2413 69.848 61.3651 69.4207 61.5763 69.0549C61.7908 68.6893 62.0636 68.4147 62.3949 68.2313C62.7264 68.0445 63.085 67.9649 63.4706 67.9925C63.8297 68.0183 64.0954 68.1309 64.2677 68.3304C64.4402 68.5265 64.5152 68.7758 64.4926 69.0783C64.4775 69.2811 64.4287 69.4414 64.3464 69.5591C64.2674 69.6771 64.1614 69.7313 64.0284 69.7218C63.9353 69.7151 63.8638 69.6883 63.8138 69.6413C63.7638 69.5942 63.742 69.5292 63.7482 69.4461C63.7504 69.4162 63.7611 69.3618 63.7804 69.283C63.8078 69.1847 63.8237 69.1056 63.8282 69.0458C63.8508 68.7433 63.7008 68.5805 63.3783 68.5574C63.1589 68.5417 62.9441 68.5981 62.7339 68.7268C62.5238 68.8554 62.3467 69.0549 62.2029 69.3254C62.0592 69.5924 61.9732 69.9171 61.9446 70.2994C61.9148 70.6983 62.0031 71.0154 62.2095 71.2507C62.4161 71.4828 62.7372 71.6144 63.1728 71.6456C63.3889 71.6611 63.6086 71.6501 63.832 71.6126C64.059 71.572 64.3114 71.5049 64.5891 71.4112C64.6405 71.3948 64.6828 71.3878 64.716 71.3902C64.7692 71.394 64.8077 71.4168 64.8313 71.4586C64.8549 71.5004 64.8643 71.5529 64.8596 71.616C64.8445 71.8188 64.7236 71.9605 64.497 72.0412C64.2532 72.1273 64.0015 72.1862 63.7417 72.2177C63.4856 72.2461 63.2428 72.2521 63.0134 72.2357ZM65.0259 72.3799C64.8198 72.3651 64.6608 72.2785 64.549 72.1201C64.4371 71.9617 64.3902 71.7612 64.4084 71.5185C64.4282 71.2526 64.5085 71.006 64.6491 70.7789C64.79 70.5483 64.9672 70.3689 65.1807 70.2405C65.3978 70.109 65.621 70.0514 65.8504 70.0679C65.9236 70.0731 65.9706 70.0915 65.9917 70.1231C66.0163 70.1516 66.0342 70.203 66.0454 70.2773C66.1162 70.269 66.1898 70.2676 66.2663 70.2731C66.4292 70.2848 66.5063 70.3488 66.4976 70.4651C66.4924 70.5349 66.4551 70.6994 66.3856 70.9584C66.2806 71.3352 66.2225 71.5984 66.2113 71.7479C66.2076 71.7978 66.2162 71.8385 66.2373 71.8701C66.2616 71.9019 66.2938 71.9193 66.3337 71.9221C66.3968 71.9267 66.4763 71.8922 66.572 71.8189C66.668 71.7422 66.7993 71.618 66.9659 71.4461C67.0092 71.4024 67.0559 71.3824 67.1057 71.3859C67.1489 71.389 67.1807 71.4114 67.201 71.4529C67.2246 71.4947 67.2338 71.5505 67.2286 71.6203C67.2187 71.7533 67.1794 71.8541 67.1108 71.9227C66.9618 72.0824 66.8065 72.215 66.6449 72.3204C66.4832 72.4258 66.3309 72.4733 66.188 72.4631C66.0782 72.4552 65.9796 72.4114 65.8919 72.3316C65.8079 72.2487 65.7474 72.1408 65.7105 72.0078C65.5168 72.2747 65.2886 72.3987 65.0259 72.3799ZM65.2431 71.8891C65.3162 71.8944 65.3893 71.8562 65.4622 71.7745C65.5352 71.6928 65.592 71.5816 65.6326 71.4408L65.8856 70.5366C65.7457 70.5299 65.6121 70.5738 65.4847 70.6683C65.3609 70.7597 65.2578 70.886 65.1756 71.0472C65.0934 71.2084 65.0453 71.382 65.0314 71.5682C65.0237 71.6712 65.0379 71.7491 65.0741 71.8018C65.1136 71.8548 65.1699 71.8839 65.2431 71.8891ZM68.8025 71.2218C68.8956 71.2284 68.9369 71.3016 68.9265 71.4412C68.9069 71.7038 68.6909 71.8203 68.2786 71.7908C68.1988 71.7851 68.0852 71.7619 67.9379 71.7212C67.9657 71.9304 67.9835 72.1623 67.9912 72.4168C68.0025 72.6683 68.0021 72.8754 67.9899 73.0383C67.9631 73.3973 67.8844 73.6674 67.7539 73.8485C67.6234 74.0297 67.4634 74.1134 67.2739 74.0999C67.0345 74.0827 66.8759 73.9009 66.7982 73.5545C66.7237 73.2083 66.7121 72.6928 66.7632 72.008C66.8109 71.3698 66.9274 70.7282 67.1126 70.0831C67.3014 69.4349 67.5315 68.905 67.8029 68.4934C68.0779 68.0786 68.36 67.8816 68.6493 67.9023C68.8055 67.9135 68.9217 67.992 68.9977 68.1378C69.077 68.2839 69.1079 68.4749 69.0903 68.7109C69.0319 69.4921 68.5012 70.3096 67.4982 71.1634C67.4406 71.4868 67.4026 71.7715 67.3843 72.0174C67.3587 72.3598 67.3441 72.7114 67.3406 73.072C67.3368 73.436 67.3615 73.6199 67.4147 73.6237C67.5145 73.6309 67.5773 73.4616 67.6031 73.1159C67.6224 72.8566 67.6229 72.6043 67.6044 72.3591C67.5893 72.114 67.5619 71.8547 67.5221 71.5812C67.522 71.5377 67.5394 71.4838 67.5743 71.4195C67.6125 71.3554 67.6568 71.3001 67.7071 71.2536C67.7573 71.207 67.8008 71.1851 67.8373 71.1877C67.9038 71.1925 67.9834 71.2015 68.076 71.2148C68.1056 71.2203 68.1404 71.2245 68.1803 71.2273C68.3133 71.2368 68.4621 71.2358 68.6268 71.2242C68.6536 71.2228 68.6821 71.2215 68.7123 71.2203C68.7425 71.2191 68.7725 71.2196 68.8025 71.2218ZM68.5077 68.3885C68.4478 68.3842 68.3654 68.4802 68.2605 68.6765C68.1589 68.8731 68.0524 69.1362 67.9409 69.4657C67.8296 69.7919 67.7285 70.1389 67.6375 70.5067C67.9261 70.2232 68.154 69.9238 68.3213 69.6083C68.4888 69.2894 68.585 68.9872 68.6096 68.7015C68.6248 68.4988 68.5908 68.3944 68.5077 68.3885ZM70.3189 71.7665C70.3621 71.7696 70.3939 71.7919 70.4142 71.8335C70.4378 71.8753 70.447 71.9311 70.4418 72.0009C70.4329 72.1205 70.3969 72.2216 70.3339 72.3039C70.2302 72.4402 70.0988 72.5427 69.9399 72.6116C69.7843 72.6806 69.6018 72.7077 69.3924 72.6927C69.0732 72.6698 68.8326 72.5573 68.6705 72.3552C68.5087 72.1498 68.4399 71.8842 68.4643 71.5584C68.4814 71.3291 68.5455 71.1198 68.6566 70.9306C68.7679 70.738 68.9127 70.5897 69.0909 70.4855C69.2725 70.3815 69.4713 70.3373 69.6874 70.3528C69.8803 70.3666 70.0305 70.4358 70.1382 70.5605C70.2462 70.6819 70.2928 70.8406 70.2781 71.0367C70.261 71.2661 70.1631 71.4579 69.9845 71.6122C69.8094 71.7634 69.5204 71.873 69.1176 71.9411C69.186 72.0997 69.3149 72.1858 69.5044 72.1994C69.6407 72.2092 69.7545 72.1856 69.8456 72.1286C69.9401 72.0719 70.0511 71.9729 70.1787 71.8316C70.2223 71.7846 70.269 71.7629 70.3189 71.7665ZM69.5662 70.8353C69.4432 70.8265 69.3331 70.8905 69.236 71.0272C69.1422 71.1642 69.0877 71.3341 69.0726 71.5369L69.0718 71.5468C69.2715 71.5143 69.4313 71.4556 69.5513 71.3706C69.6713 71.2857 69.7358 71.1817 69.745 71.0587C69.7498 70.9955 69.7352 70.9444 69.7013 70.9052C69.6711 70.8629 69.626 70.8396 69.5662 70.8353ZM72.1931 72.9735C72.1399 72.9697 72.0981 72.9483 72.0675 72.9094C72.037 72.8704 72.0252 72.8044 72.0322 72.7113C72.0374 72.6415 72.0675 72.53 72.1224 72.3769C72.1808 72.2207 72.2562 72.039 72.3486 71.8317C72.4443 71.6247 72.5491 71.4066 72.6632 71.1775C72.7808 70.9453 72.9016 70.715 73.0256 70.4866C73.1497 70.2582 73.2707 70.048 73.3886 69.856C73.5068 69.6606 73.6144 69.4962 73.7112 69.3628C73.8081 69.2293 73.8881 69.1432 73.9512 69.1042C74.0247 69.0594 74.0914 69.0391 74.1513 69.0434C74.1845 69.0458 74.2175 69.0515 74.2502 69.0605C74.283 69.0695 74.3104 69.0832 74.3324 69.1015C74.3895 69.1423 74.435 69.2275 74.4688 69.3569C74.5061 69.4832 74.5347 69.6373 74.5546 69.8192C74.5747 69.9977 74.5871 70.1891 74.5919 70.3933C74.6003 70.5944 74.6055 70.7936 74.6075 70.9909C74.7082 70.9848 74.7921 70.9808 74.8591 70.9789C74.9261 70.977 74.9745 70.9771 75.0044 70.9793C75.1175 70.9874 75.1878 71.0075 75.2155 71.0395C75.2432 71.0716 75.2572 71.1077 75.2576 71.1478C75.2598 71.2081 75.2392 71.2601 75.1958 71.3038C75.1524 71.3475 75.0933 71.3783 75.0184 71.3963C74.9946 71.4013 74.9439 71.4094 74.8662 71.4205C74.7921 71.4286 74.7027 71.4389 74.5981 71.4515C74.594 71.5514 74.5887 71.6446 74.5823 71.731C74.5794 71.8144 74.5757 71.886 74.5713 71.9458C74.5487 72.2483 74.5134 72.4747 74.4654 72.625C74.4176 72.7719 74.3652 72.8701 74.308 72.9195C74.2508 72.9688 74.1973 72.9917 74.1474 72.9882C74.0876 72.9839 74.0473 72.9643 74.0265 72.9294C74.0059 72.8911 73.9982 72.8388 74.0031 72.7723L74.0296 72.4183C74.0387 72.2953 74.0475 72.1556 74.0559 71.9991C74.0678 71.8395 74.0786 71.6716 74.0885 71.4951C73.8898 71.5143 73.688 71.5316 73.4829 71.547C73.2812 71.5626 73.1063 71.5768 72.9583 71.5896C72.871 71.7739 72.7951 71.9405 72.7304 72.0896C72.6661 72.2354 72.6209 72.3475 72.595 72.4258C72.5327 72.5884 72.4785 72.7099 72.4324 72.7901C72.3866 72.867 72.3444 72.9175 72.3058 72.9415C72.2706 72.9657 72.233 72.9764 72.1931 72.9735ZM73.161 71.158C73.3369 71.1305 73.5042 71.1057 73.6629 71.0837C73.825 71.0619 73.9734 71.0441 74.1081 71.0304C74.1205 70.7305 74.1236 70.4433 74.1173 70.1688C74.1147 69.8913 74.096 69.671 74.0614 69.5081C73.99 69.6133 73.9043 69.7542 73.8042 69.9308C73.7041 70.1075 73.5975 70.3037 73.4845 70.5195C73.375 70.7322 73.2672 70.9451 73.161 71.158ZM79.8045 73.2631C79.7972 73.316 79.7724 73.3577 79.73 73.3881C79.6876 73.4185 79.6398 73.4317 79.5866 73.4279C79.5268 73.4237 79.4784 73.4001 79.4415 73.3574C79.4045 73.3146 79.3892 73.2517 79.3954 73.1686C79.4115 72.9525 79.439 72.7189 79.4778 72.4677C79.5169 72.2132 79.5607 71.9623 79.6092 71.7152C79.658 71.4647 79.7053 71.2342 79.7511 71.0236C79.6297 71.1719 79.4971 71.3362 79.3533 71.5164C79.2128 71.6968 79.0691 71.8753 78.9222 72.052C78.7754 72.2286 78.6329 72.3905 78.4949 72.5377C78.3571 72.6815 78.2331 72.798 78.1228 72.887C78.0128 72.9727 77.9246 73.0131 77.8581 73.0084C77.735 72.9995 77.6323 72.9437 77.5497 72.8409C77.4674 72.7347 77.4318 72.6069 77.443 72.4573C77.4474 72.3975 77.4602 72.3165 77.4812 72.2144C77.5024 72.109 77.5257 71.9987 77.551 71.8835C77.5763 71.7684 77.5993 71.6614 77.6201 71.5627C77.6411 71.4606 77.6534 71.3846 77.6572 71.3347C77.6606 71.2882 77.6586 71.2479 77.6511 71.214C77.6472 71.177 77.632 71.1575 77.6054 71.1556C77.5655 71.1527 77.5072 71.1937 77.4307 71.2784C77.3544 71.3598 77.268 71.4656 77.1714 71.5957C77.0781 71.726 76.9808 71.8644 76.8796 72.0109C76.7818 72.1576 76.6895 72.2964 76.6029 72.4272C76.5165 72.5547 76.4438 72.6547 76.3849 72.7274C76.3362 72.7974 76.2924 72.8477 76.2533 72.8784C76.2142 72.909 76.1681 72.9224 76.1149 72.9186C76.0517 72.9141 75.996 72.8766 75.9478 72.8064C75.9029 72.7363 75.8841 72.6531 75.8913 72.5567C75.8955 72.5002 75.912 72.4128 75.9409 72.2946C75.97 72.173 76.005 72.0402 76.0459 71.896C76.0901 71.7522 76.1323 71.6115 76.1727 71.474C76.2166 71.3335 76.2539 71.2142 76.2846 71.1161C76.3197 71.005 76.3586 70.9309 76.4015 70.8939C76.4444 70.8569 76.4891 70.84 76.5356 70.8433C76.5988 70.8479 76.6469 70.8747 76.68 70.9239C76.7167 70.9699 76.7316 71.0395 76.7246 71.1326C76.7234 71.1492 76.7101 71.1934 76.6846 71.2651C76.6595 71.3334 76.6281 71.4181 76.5905 71.519C76.5564 71.6168 76.5187 71.7194 76.4772 71.8267C76.4391 71.9342 76.4066 72.0338 76.3797 72.1255C76.4621 72.0077 76.5485 71.8802 76.6389 71.743C76.7327 71.606 76.8264 71.4707 76.9199 71.3371C77.0137 71.2001 77.1065 71.0764 77.1983 70.966C77.2904 70.8523 77.3789 70.7634 77.4639 70.6993C77.549 70.6352 77.628 70.6058 77.7012 70.611C77.7876 70.6172 77.8654 70.6495 77.9346 70.708C78.0071 70.7666 78.0633 70.8425 78.1031 70.9356C78.143 71.0287 78.1588 71.1301 78.1506 71.2397C78.1449 71.3162 78.1235 71.4233 78.0865 71.561C78.0497 71.6954 78.0104 71.8413 77.9686 71.9987C77.9301 72.1563 77.9021 72.3064 77.8848 72.4488C77.8823 72.4821 77.8911 72.4994 77.911 72.5008C77.9276 72.502 77.9485 72.4918 77.9735 72.4702C78.0778 72.3708 78.1938 72.2504 78.3213 72.1092C78.4491 71.9646 78.5792 71.8118 78.7115 71.6509C78.8472 71.4902 78.981 71.3327 79.1128 71.1783C79.2449 71.0207 79.3675 70.8791 79.4805 70.7535C79.5971 70.6249 79.6982 70.5235 79.784 70.4494C79.8731 70.3756 79.9409 70.3404 79.9874 70.3437C80.0872 70.3509 80.1615 70.3846 80.2105 70.4449C80.2595 70.5052 80.279 70.6019 80.2691 70.7348C80.2611 70.8412 80.2425 70.9786 80.2132 71.1469C80.1873 71.3155 80.1552 71.4986 80.117 71.6964C80.0822 71.8944 80.0439 72.0939 80.0022 72.2947C79.964 72.4925 79.9268 72.677 79.8906 72.8482C79.8547 73.016 79.826 73.1543 79.8045 73.2631ZM80.9532 73.5208C80.8901 73.5163 80.8353 73.489 80.7889 73.4389C80.7427 73.3854 80.7235 73.3072 80.7312 73.2042C80.7367 73.131 80.7542 73.0304 80.7839 72.9021C80.8137 72.7706 80.8511 72.6279 80.896 72.4741C80.941 72.3202 80.9874 72.1681 81.0354 72.0179C81.087 71.8645 81.1373 71.7277 81.1864 71.6076C81.2355 71.4875 81.2772 71.3986 81.3116 71.3409C81.3417 71.2962 81.3688 71.2681 81.3931 71.2565C81.4207 71.2451 81.4461 71.2402 81.4694 71.2419C81.516 71.2452 81.5547 71.263 81.5857 71.2953C81.6201 71.3279 81.634 71.3874 81.6276 71.4738C81.6238 71.5236 81.6077 71.606 81.579 71.7209C81.554 71.8328 81.5208 71.9641 81.4794 72.1148C81.4416 72.2625 81.4002 72.4149 81.355 72.5721C81.3134 72.7262 81.2723 72.8736 81.2317 73.0144C81.1911 73.1552 81.1589 73.2732 81.1351 73.3684C81.1178 73.4207 81.0915 73.4605 81.056 73.4881C81.0241 73.5125 80.9898 73.5234 80.9532 73.5208ZM81.6479 70.7985C81.5714 70.793 81.5 70.7645 81.4337 70.713C81.3707 70.6617 81.343 70.5845 81.3507 70.4815C81.3572 70.395 81.3823 70.3267 81.4262 70.2763C81.4734 70.2263 81.5261 70.1916 81.5844 70.1724C81.6462 70.1501 81.6987 70.1405 81.742 70.1436C81.7852 70.1467 81.8326 70.1601 81.8844 70.1838C81.9396 70.2045 81.9854 70.2412 82.0215 70.2939C82.058 70.3433 82.0727 70.4146 82.0657 70.5076C82.061 70.5708 82.0352 70.6257 81.9882 70.6725C81.9416 70.716 81.8856 70.7487 81.8205 70.7708C81.7586 70.7931 81.7011 70.8023 81.6479 70.7985ZM84.5788 74.0212C84.3627 74.0057 84.1671 73.9399 83.9919 73.8237C83.82 73.7078 83.6671 73.5632 83.5329 73.3898C83.4021 73.2167 83.2872 73.033 83.188 72.8388C83.0924 72.6414 83.011 72.4568 82.9436 72.2849C82.867 72.5501 82.8058 72.7646 82.7601 72.9284C82.7178 73.0925 82.6834 73.217 82.657 73.302C82.634 73.3872 82.613 73.4442 82.5941 73.473C82.5753 73.5017 82.5525 73.5151 82.5259 73.5132C82.4528 73.5079 82.386 73.4631 82.3254 73.3785C82.2649 73.294 82.2393 73.1885 82.2488 73.0622C82.2587 72.9293 82.2951 72.7548 82.3581 72.5387C82.4212 72.3193 82.5011 72.0777 82.5977 71.814C82.6979 71.5471 82.8103 71.2728 82.9349 70.991C83.0598 70.7058 83.1875 70.4292 83.3178 70.1612C83.4517 69.8901 83.5837 69.6439 83.7139 69.4226C83.7789 69.3137 83.8325 69.244 83.8749 69.2136C83.9206 69.1835 83.9734 69.1705 84.0332 69.1748C84.1297 69.1817 84.1745 69.23 84.1678 69.3198C84.1653 69.353 84.1526 69.3889 84.1297 69.4273C84.1101 69.466 84.0885 69.5096 84.0648 69.558C83.994 69.7 83.9152 69.8598 83.8284 70.0374C83.745 70.2152 83.6592 70.4012 83.5712 70.5954C83.4864 70.7899 83.4052 70.9829 83.3274 71.1745C83.2495 71.3661 83.1811 71.5433 83.1222 71.7062C83.2726 71.6167 83.4479 71.529 83.6482 71.4431C83.8485 71.3572 84.0547 71.2817 84.2668 71.2167C84.4792 71.1484 84.6786 71.0958 84.8652 71.0591C85.0518 71.0223 85.2049 71.0082 85.3246 71.0168C85.3878 71.0213 85.4345 71.0447 85.4648 71.087C85.4986 71.1262 85.5138 71.169 85.5103 71.2156C85.5076 71.2521 85.4932 71.2879 85.4672 71.3228C85.4448 71.3546 85.3994 71.3814 85.3309 71.4032C85.1057 71.464 84.8821 71.5265 84.66 71.5908C84.4382 71.6517 84.2059 71.7186 83.9632 71.7915C83.724 71.8612 83.4619 71.9461 83.177 72.046C83.2526 72.1984 83.3422 72.3636 83.4459 72.5414C83.5498 72.716 83.6627 72.8828 83.7845 73.0419C83.9066 73.1977 84.0339 73.3288 84.1663 73.4352C84.299 73.5383 84.4352 73.5948 84.5748 73.6048C84.7577 73.6179 84.9367 73.5923 85.112 73.528C85.2873 73.4637 85.4505 73.3818 85.6017 73.2824C85.7562 73.1831 85.8921 73.0859 86.0095 72.9908C86.1272 72.8922 86.2198 72.8153 86.2875 72.76C86.323 72.7325 86.3544 72.7147 86.3817 72.7066C86.4126 72.6955 86.4397 72.6907 86.463 72.6924C86.5095 72.6957 86.5393 72.7229 86.5522 72.774C86.5686 72.8219 86.5482 72.8723 86.4907 72.925C86.4474 72.9687 86.3805 73.0357 86.2902 73.1262C86.1999 73.2166 86.0905 73.3157 85.9622 73.4235C85.8373 73.5282 85.6995 73.6286 85.5486 73.7247C85.401 73.8211 85.2433 73.8967 85.0754 73.9515C84.9106 74.0098 84.745 74.0331 84.5788 74.0212ZM86.871 73.9698C86.6749 73.9558 86.5258 73.8699 86.424 73.7122C86.3221 73.5545 86.2801 73.356 86.298 73.1167C86.3044 73.0303 86.3229 72.9397 86.3534 72.845C86.3874 72.7471 86.4274 72.6598 86.4732 72.5829C86.4517 72.5579 86.4357 72.525 86.4254 72.4842C86.4154 72.44 86.4127 72.3864 86.4174 72.3232C86.432 72.1271 86.4787 71.95 86.5574 71.7918C86.636 71.6337 86.7347 71.4988 86.8533 71.387C86.9722 71.2718 87.1007 71.1858 87.2386 71.1288C87.3799 71.0721 87.5204 71.0488 87.66 71.0588C87.8894 71.0752 88.0694 71.1716 88.2 71.3481C88.3308 71.5212 88.3836 71.7756 88.3586 72.1114C88.3454 72.2875 88.3054 72.4651 88.2385 72.6441C88.175 72.8234 88.092 72.9946 87.9896 73.1577C87.8905 73.321 87.7778 73.465 87.6515 73.5896C87.5285 73.7145 87.3992 73.8122 87.2636 73.8826C87.1315 73.95 87.0007 73.9791 86.871 73.9698ZM86.815 72.4369C86.833 72.4649 86.8404 72.5005 86.8371 72.5438C86.8334 72.5936 86.8197 72.6428 86.796 72.6912C86.7757 72.7399 86.7523 72.8067 86.7259 72.8917C86.6995 72.9767 86.6803 73.099 86.6684 73.2585C86.6565 73.4181 86.7137 73.5024 86.8401 73.5114C86.9797 73.5214 87.1135 73.4759 87.2414 73.3748C87.3695 73.2703 87.4867 73.1333 87.5929 72.9638C87.6992 72.7943 87.7847 72.6116 87.8495 72.4158C87.9178 72.2168 87.9587 72.0276 87.9721 71.8481C87.9808 71.7317 87.9653 71.6487 87.9255 71.5991C87.886 71.5462 87.8097 71.5156 87.6967 71.5075C87.5803 71.4992 87.456 71.5304 87.3237 71.6011C87.195 71.6688 87.0841 71.7661 86.991 71.8931C86.898 72.0201 86.8452 72.1667 86.8328 72.3329C86.8301 72.3695 86.8242 72.4041 86.815 72.4369ZM89.4328 74.1533C89.2366 74.1393 89.0876 74.0534 88.9858 73.8957C88.8839 73.738 88.8419 73.5395 88.8598 73.3002C88.8662 73.2138 88.8847 73.1232 88.9152 73.0285C88.9492 72.9307 88.9892 72.8433 89.035 72.7664C89.0135 72.7414 88.9975 72.7085 88.9872 72.6677C88.9772 72.6235 88.9745 72.5699 88.9792 72.5067C88.9938 72.3106 89.0405 72.1335 89.1192 71.9754C89.1978 71.8172 89.2965 71.6823 89.4151 71.5705C89.534 71.4553 89.6625 71.3693 89.8004 71.3123C89.9417 71.2556 90.0822 71.2323 90.2218 71.2423C90.4512 71.2587 90.6312 71.3552 90.7618 71.5316C90.8926 71.7047 90.9454 71.9591 90.9203 72.2949C90.9072 72.4711 90.8672 72.6486 90.8003 72.8277C90.7368 73.0069 90.6538 73.1781 90.5514 73.3412C90.4523 73.5045 90.3396 73.6485 90.2133 73.7731C90.0903 73.898 89.961 73.9957 89.8254 74.0662C89.6933 74.1336 89.5625 74.1626 89.4328 74.1533ZM89.3768 72.6204C89.3948 72.6484 89.4022 72.6841 89.3989 72.7273C89.3952 72.7771 89.3815 72.8263 89.3578 72.8747C89.3375 72.9234 89.3141 72.9902 89.2877 73.0752C89.2613 73.1602 89.2421 73.2825 89.2302 73.442C89.2183 73.6016 89.2755 73.6859 89.4019 73.6949C89.5415 73.705 89.6753 73.6594 89.8032 73.5583C89.9313 73.4538 90.0485 73.3169 90.1547 73.1473C90.261 72.9778 90.3465 72.7952 90.4113 72.5993C90.4796 72.4003 90.5205 72.2111 90.5339 72.0316C90.5426 71.9152 90.527 71.8323 90.4873 71.7826C90.4478 71.7297 90.3715 71.6991 90.2585 71.691C90.1421 71.6827 90.0178 71.7139 89.8855 71.7846C89.7568 71.8523 89.6459 71.9496 89.5528 72.0766C89.4598 72.2036 89.407 72.3502 89.3946 72.5164C89.3919 72.553 89.386 72.5877 89.3768 72.6204Z" fill="#282222"/>
<mask id="mask0_364_325" style="mask-type:alpha" maskUnits="userSpaceOnUse" x="60" y="51" width="36" height="46">
<path d="M63.1416 92.9838C62.0622 92.3042 61.1066 65.4626 60.7637 52.1268C75.7928 50.8816 90.1417 53.3616 95.4375 54.7573C93.1898 70.2496 89.3942 93.0801 87.7807 95.1212C78.0718 96.8486 64.4908 93.8335 63.1416 92.9838Z" fill="#D9D9D9" stroke="black"/>
</mask>
<g mask="url(#mask0_364_325)">
<mask id="mask1_364_325" style="mask-type:luminance" maskUnits="userSpaceOnUse" x="48" y="43" width="31" height="31">
<path d="M78.4981 46.3338L51.1201 43.5029L48.1688 70.7288L75.5467 73.5597L78.4981 46.3338Z" fill="white"/>
</mask>
<g mask="url(#mask1_364_325)">
<path fill-rule="evenodd" clip-rule="evenodd" d="M51.1201 43.5029L57.9646 44.2106L57.2268 51.0171L50.3823 50.3094L51.1201 43.5029ZM64.0713 51.7248L57.2268 51.0171L56.4889 57.8236L49.6444 57.1159L48.9066 63.9223L55.7511 64.6301L55.0132 71.4365L61.8577 72.1442L62.5956 65.3378L69.4401 66.0455L68.7022 72.852L75.5467 73.5597L76.2845 66.7532L69.4401 66.0455L70.1779 59.239L77.0224 59.9467L77.7602 53.1403L70.9157 52.4326L71.6536 45.6261L64.8091 44.9184L64.0713 51.7248ZM63.3334 58.5313L70.1779 59.239L70.9157 52.4326L64.0713 51.7248L63.3334 58.5313ZM63.3334 58.5313L62.5956 65.3378L55.7511 64.6301L56.4889 57.8236L63.3334 58.5313Z" fill="#3D3D3D" fill-opacity="0.3"/>
</g>
<mask id="mask2_364_325" style="mask-type:luminance" maskUnits="userSpaceOnUse" x="45" y="70" width="31" height="31">
<path d="M75.5459 73.5535L48.168 70.7227L45.2166 97.9485L72.5946 100.779L75.5459 73.5535Z" fill="white"/>
</mask>
<g mask="url(#mask2_364_325)">
<path fill-rule="evenodd" clip-rule="evenodd" d="M48.168 70.7227L55.0125 71.4304L54.2746 78.2368L47.4301 77.5291L48.168 70.7227ZM61.1191 78.9446L54.2746 78.2368L53.5368 85.0433L46.6923 84.3356L45.9544 91.1421L52.7989 91.8498L52.0611 98.6562L58.9056 99.364L59.6434 92.5575L66.4879 93.2652L65.7501 100.072L72.5946 100.779L73.3324 93.9729L66.4879 93.2652L67.2258 86.4587L74.0702 87.1665L74.8081 80.36L67.9636 79.6523L68.7014 72.8458L61.8569 72.1381L61.1191 78.9446ZM60.3813 85.751L67.2258 86.4587L67.9636 79.6523L61.1191 78.9446L60.3813 85.751ZM60.3813 85.751L59.6434 92.5575L52.7989 91.8498L53.5368 85.0433L60.3813 85.751Z" fill="#3D3D3D" fill-opacity="0.3"/>
</g>
<mask id="mask3_364_325" style="mask-type:luminance" maskUnits="userSpaceOnUse" x="72" y="73" width="31" height="31">
<path d="M102.937 76.3875L75.5586 73.5566L72.6072 100.783L99.9852 103.613L102.937 76.3875Z" fill="white"/>
</mask>
<g mask="url(#mask3_364_325)">
<path fill-rule="evenodd" clip-rule="evenodd" d="M75.5586 73.5566L82.4031 74.2644L81.6652 81.0708L74.8208 80.3631L75.5586 73.5566ZM88.5097 81.7785L81.6652 81.0708L80.9274 87.8773L74.0829 87.1696L73.3451 93.976L80.1896 94.6838L79.4517 101.49L86.2962 102.198L87.034 95.3915L93.8785 96.0992L93.1407 102.906L99.9852 103.613L100.723 96.8069L93.8785 96.0992L94.6164 89.2927L101.461 90.0005L102.199 83.194L95.3542 82.4863L96.0921 75.6798L89.2476 74.9721L88.5097 81.7785ZM87.7719 88.585L94.6164 89.2927L95.3542 82.4863L88.5097 81.7785L87.7719 88.585ZM87.7719 88.585L87.034 95.3915L80.1896 94.6838L80.9274 87.8773L87.7719 88.585Z" fill="#3D3D3D" fill-opacity="0.3"/>
</g>
<mask id="mask4_364_325" style="mask-type:luminance" maskUnits="userSpaceOnUse" x="75" y="46" width="31" height="31">
<path d="M105.886 49.1658L78.5078 46.335L75.5564 73.5608L102.934 76.3917L105.886 49.1658Z" fill="white"/>
</mask>
<g mask="url(#mask4_364_325)">
<path fill-rule="evenodd" clip-rule="evenodd" d="M78.5078 46.335L85.3523 47.0427L84.6145 53.8491L77.77 53.1414L78.5078 46.335ZM91.4589 54.5569L84.6145 53.8491L83.8766 60.6556L77.0321 59.9479L76.2943 66.7544L83.1388 67.4621L82.4009 74.2686L89.2454 74.9763L89.9833 68.1698L96.8278 68.8775L96.0899 75.684L102.934 76.3917L103.672 69.5852L96.8278 68.8775L97.5656 62.0711L104.41 62.7788L105.148 55.9723L98.3034 55.2646L99.0413 48.4581L92.1968 47.7504L91.4589 54.5569ZM90.7211 61.3633L97.5656 62.0711L98.3034 55.2646L91.4589 54.5569L90.7211 61.3633ZM90.7211 61.3633L89.9833 68.1698L83.1388 67.4621L83.8766 60.6556L90.7211 61.3633Z" fill="#3D3D3D" fill-opacity="0.3"/>
</g>
</g>
<path d="M69.4634 61.7675C67.9882 62.6835 66.1609 65.4047 65.7247 65.3383C62.4756 67.7513 55.9418 72.7495 55.7994 73.4376L59.1641 92.8987C61.8206 90.3123 62.0755 86.9839 61.8709 85.643C62.7731 85.0912 63.9037 82.7222 64.7814 80.5129C65.2163 79.4182 65.5892 78.3628 65.8414 77.587C66.0911 77.3119 66.9894 74.6099 67.7472 74.2018C68.3187 73.894 70.478 69.893 72.368 68.5685C73.313 67.9062 77.2498 65.6678 78.6484 63.7162C81.2947 59.7397 79.4182 57.8007 78.1662 57.9963C76.9496 58.1865 74.1818 59.1583 72.4858 60.3587C72.4326 60.3964 72.3804 60.4342 72.3294 60.472C72.2043 60.5626 70.3666 61.3735 69.4634 61.7675Z" fill="#DBB5A2"/>
<path d="M75.1549 59.8628C75.4531 59.4554 78.0011 58.3465 78.6909 58.8996C79.2109 59.107 79.436 61.3075 77.9528 62.473C77.3323 62.9605 74.7222 60.4541 75.1549 59.8628Z" fill="#DB9299" fill-opacity="0.5"/>
<path d="M55.3216 71.93C54.1975 73.5242 52.3385 77.3914 53.8952 80.1068C55.8411 83.5009 55.1744 93.1641 57.4226 93.3071C59.2212 93.4216 59.8911 92.9077 60.0012 92.6364L55.6877 71.9143L55.3216 71.93Z" fill="#DBB5A2"/>
<path d="M68.9141 64.242C70.168 65.0435 70.7108 65.575 71.2239 66.7555M69.4274 63.7393C70.9715 64.3938 71.306 64.6987 71.9296 66.3156M68.2725 64.6818C69.0953 66.0572 69.3405 66.372 70.6464 67.2582" stroke="black" stroke-width="0.027"/>
<path d="M149.949 71.3429C148.045 65.1541 149.671 59.5503 150.398 57.707C149.714 57.707 147.947 59.3911 148.153 64.8706C148.358 70.35 149.179 71.4686 149.564 71.3429C150.22 73.6073 149.778 77.0402 149.372 78.5064C149.218 84.2372 147.682 85.1253 146.934 84.853C147.182 92.9901 144.877 98.6303 143.726 99.7457C146.963 101.278 152.451 79.4735 149.949 71.3429Z" fill="black" fill-opacity="0.3"/>
<path d="M127.557 100.939C127.065 102.761 126.697 106.757 129.161 108.165M129.161 100.939C128.883 101.797 128.494 103.842 129.161 105.149M147.575 86.9258C148.345 88.7062 151.591 92.4053 158.418 92.9582" stroke="black" stroke-width="0.1"/>
<path d="M143.854 113.687C145.547 113.042 149.26 111.069 150.571 108.341M147.704 116.083C149.479 114.977 153.029 112.323 153.029 110.553C153.029 108.784 156.579 106.129 158.354 105.023" stroke="black" stroke-width="0.1"/>
<path d="M161.434 101.505C157.574 102.876 148.654 105.303 143.854 104.045" stroke="black" stroke-width="0.1"/>
<path d="M147.459 63.6129C147.408 61.7027 147.481 58.5231 148.422 57.1406L147.973 70.3994C147.245 68.9542 147.511 65.5232 147.459 63.6129Z" fill="#755E3A" fill-opacity="0.5"/>
<path d="M157.52 121.424C158.74 122.053 161.049 123.372 161.755 124.252C161.546 123.445 161.23 122.976 160.6 122.116C159.211 121.063 158.356 120.631 156.851 119.872L156.815 119.853L153.607 118.66L146.1 115.518L138.272 113.004C133.268 112.376 133.588 111.496 130.637 110.491L125.312 107.474L119.986 103.893C120.374 104.403 121.622 105.566 122.039 105.841C122.146 105.911 124.076 107.695 124.991 108.605C125.749 109.476 129.809 112.298 130.701 112.376C130.753 112.476 134.465 113.276 136.347 113.632C136.604 113.482 144.453 116.251 148.345 117.654C148.653 117.604 154.751 119.997 157.52 121.424Z" fill="#755E3A" fill-opacity="0.5"/>
<path d="M94.4498 65.3724C94.2408 66.5497 94.0648 66.692 93.688 67.2219L94.6423 60.4157C94.8398 60.6633 94.8983 60.7195 94.8986 61.4136C94.8989 62.1048 94.7064 63.9271 94.4498 65.3724Z" fill="#755E3A" fill-opacity="0.3"/>
<path d="M93.0391 73.5416C93.1089 72.3487 93.1851 72.2187 92.975 71.7821L91.9995 77.8186C92.2615 77.6374 92.3703 77.118 92.5258 76.4321C92.654 75.8666 92.9518 75.0328 93.0391 73.5416Z" fill="#755E3A" fill-opacity="0.3"/>
<path d="M72.4284 60.4084C73.5982 59.4658 75.3092 58.6908 76.8704 58.2719C76.8704 58.2719 78.3597 57.9577 78.4745 57.9577C78.6669 57.9577 78.5386 58.0834 78.9236 58.0834C79.0519 57.9577 78.3456 57.4049 78.1537 57.3922C77.2062 57.3293 76.8212 57.3922 76.6138 57.3922C75.8588 57.5179 73.4672 58.4398 71.9151 59.6543L68.1296 61.351L65.2424 64.1787C63.9805 65.1213 61.4055 67.0315 61.2002 67.1321C60.9949 67.2326 61.0655 68.2422 61.151 68.7659L65.7706 65.3098C66.733 64.4929 68.4012 62.3564 69.4128 61.7908L72.4284 60.4084Z" fill="#936F43" fill-opacity="0.75"/>
<path d="M91.3063 83.8466C91.0497 84.9777 90.9855 85.0405 90.6086 85.545L91.644 79.8941C91.7554 80.202 91.7752 80.4067 91.6913 81.1446C91.6182 81.787 91.643 82.3626 91.3063 83.8466Z" fill="#755E3A" fill-opacity="0.3"/>
<path d="M73.1487 65.9376C74.432 64.3381 79.3775 58.9576 79.6931 58.8369C80.7509 60.1406 79.0309 64.8684 75.5227 66.3775C74.432 67.2572 73.2771 67.9484 72.058 68.7025C69.4274 70.839 68.9783 73.0383 67.5667 74.3579C66.1552 75.6775 64.3587 81.9613 64.1021 82.2755C63.0113 84.3492 62.2414 85.2917 61.9206 85.6059C62.2414 87.8681 63.0755 94.5741 63.9737 95.2201C64.872 96.414 66.861 99.8701 65.8986 102.384C63.6529 104.206 58.3276 109.61 54.3496 109.61C54.5635 108.06 49.5504 104.319 47.5485 101.504C45.0463 97.985 52.4248 92.8323 52.2964 88.8735C52.1938 85.7065 61.6853 77.2066 64.1021 73.7924C66.8598 69.8964 72.443 66.8173 73.1487 65.9376Z" fill="#EEC5B1" fill-opacity="0.2"/>
<path d="M64.8076 67.0066C63.4217 67.8109 61.8134 69.2478 61.1504 68.8289C62.8597 67.2385 63.9781 66.4574 65.9625 65.1843C67.1393 63.8024 67.8894 63.0918 69.4271 61.7282C69.7479 61.6444 71.0953 61.1124 73.6618 59.6545C76.2282 58.1967 78.0889 57.8951 78.7305 58.0836C79.3721 58.1464 77.4473 58.5235 77.4473 58.5235L75.0733 59.6545C73.6618 60.4086 70.7617 61.6905 70.7104 61.791C70.659 61.8916 68.8283 63.2572 67.8873 64.3045C67.3526 64.9539 66.1934 66.2023 64.8076 67.0066Z" fill="#C8A187" fill-opacity="0.5"/>
<path d="M59.9311 93.2724C59.9824 97.1432 63.9732 100.876 65.9622 102.258C66.668 100.31 65.3847 96.54 64.8714 96.2886C64.4608 96.0875 63.5455 94.194 63.1391 93.2724C62.7798 93.2724 62.2195 88.0778 61.9842 85.4805C61.2784 86.4649 59.8797 89.4016 59.9311 93.2724Z" fill="#C6A086"/>
<path d="M21.756 95.849C24.6278 94.6657 30.6729 92.6655 30.8669 92.5814C33.3691 92.2044 41.6459 87.0272 45.6239 82.0874C46.578 81.1909 47.2116 80.3053 48.062 79.3226C48.7313 78.4673 49.1051 77.9817 49.7302 76.9348C50.7887 73.3012 59.3127 58.7155 59.6109 58.7746C59.9776 58.8472 57.237 64.1786 56.7879 64.8698C56.4286 65.4228 53.7937 71.5098 52.2966 74.3584C50.7995 77.1233 47.4204 82.3388 47.1637 82.9044C46.9182 83.4454 36.4789 92.7701 32.9842 93.524C29.4894 94.2779 23.4884 96.7052 22.141 97.1686C17.7567 98.6767 7.64062 101.689 7.64062 100.373C7.64063 99.3679 7.96616 98.8209 8.02559 98.8024C10.5403 98.9086 13.4 98.5672 16.1099 97.6713C17.932 96.9613 21.6061 96.0196 21.756 95.849Z" fill="#D1AA94"/>
<path d="M32.4067 114.198C31.2355 115.574 21.0634 121.806 15.4683 124.44L15.9174 124.88C18.5513 124.318 24.745 120.612 25.6698 119.916C26.5286 119.27 34.1391 114.114 37.9246 111.559C39.3659 110.632 45.8163 109.296 46.8429 109.611C51.3342 110.365 58.0537 109.465 57.237 108.731C55.5046 108.354 52.6816 108.898 50.7567 108.856C47.6129 108.668 42.48 109.234 41.5176 109.485C40.8976 109.647 33.5121 112.899 32.4067 114.198Z" fill="#D1AA94"/>
<path d="M65.9632 102.259C66.7331 100.198 65.4927 97.3992 64.7441 96.2891L65.2574 96.5404L71.0961 97.0431L65.9632 102.259Z" fill="#936F43" fill-opacity="0.3"/>
<path d="M59.6106 58.7749C59.6106 58.5864 60.5731 58.1465 60.6372 58.1465L61.0222 68.8289L59.6106 69.96C58.9572 65.5795 58.969 63.0478 59.6106 58.7749Z" fill="#9B7345" fill-opacity="0.3"/>
<path d="M57.108 104.207C58.4554 102.447 60.9577 97.8728 60.1877 93.6501M59.2253 105.966C60.2091 104.542 62.2152 100.675 62.3692 96.6035M64.2299 100.311C64.5293 99.3055 65.064 97.0936 64.8073 96.2893M65.8339 102.322C66.4113 101.107 67.4636 98.2624 67.053 96.6035M61.086 68.8291C59.4392 70.044 56.1071 72.6119 55.9531 73.1649" stroke="black" stroke-width="0.1"/>
<path d="M94.899 60.2833L95.6048 54.9421L87.3922 53.1826C86.1394 54.2869 85.5315 55.2257 84.1842 56.0103C81.8102 57.3928 81.5536 62.2941 80.7195 65.7502C79.9764 68.8293 76.934 72.034 76.3565 75.1131C75.2658 78.9462 74.8808 94.9699 74.3034 96.5408C73.7259 98.1118 85.724 97.8604 86.1732 97.9233C86.5325 97.9735 87.82 96.0172 88.4188 95.0327L90.7286 84.853C91.0494 82.6536 91.4343 80.8942 91.6268 79.8888L91.9476 77.5009C92.5892 74.359 92.8459 72.5367 92.9742 71.657L93.68 67.2583C93.853 64.0735 94.899 61.0374 94.899 60.2833Z" fill="#EEC5B1" fill-opacity="0.05"/>
<path d="M134.357 70.6504C132.868 66.9304 134.977 55.9044 136.217 50.8564L148.472 51.6105V56.6375C146.316 60.6089 147.189 67.3828 147.895 70.2734C147.997 78.1658 147.039 83.2809 146.547 84.8518C147.625 91.387 145.072 97.6289 143.66 99.9329C143.211 100.059 141.799 100.235 139.746 99.9329C137.693 99.6313 137.265 94.068 137.308 91.3241C134.69 88.9614 134.25 76.5572 134.357 70.6504Z" fill="#EEC5B1" fill-opacity="0.05"/>
<path d="M93.68 67.2585C94.7494 67.7403 96.859 68.2124 97.5297 66.5045C98.1713 64.8707 97.8505 63.2369 97.0164 62.043C96.3491 61.0878 95.1985 60.5558 94.7066 60.4092M92.9742 71.7829C93.9794 72.3903 95.9 74.1581 95.5407 76.37C95.1814 78.5819 92.9956 78.2133 91.9477 77.7525M91.5627 79.889C92.3326 80.266 93.757 81.3971 93.2951 82.9052C92.8331 84.4133 91.2633 85.3349 90.5361 85.6072" stroke="black" stroke-width="0.2"/>
<path d="M62.2408 85.4805C60.1449 88.9575 56.2739 92.5183 51.6543 93.2724" stroke="black" stroke-width="0.1"/>
<path d="M97.1455 62.2939C97.1455 62.3012 97.1455 62.3084 97.1456 62.3156C97.1777 62.4758 97.8088 63.0188 97.8513 64.8075C97.6973 66.8686 96.9526 67.4257 96.6318 67.4467C96.76 67.0068 97.402 65.9385 97.402 65.1216C97.5293 64.1245 97.1518 63.1891 97.1456 62.3156C97.144 62.3074 97.1439 62.3002 97.1455 62.2939Z" fill="#EEC5B1" fill-opacity="0.75"/>
<path d="M95.0264 75.05C95.0264 74.4216 95.0919 74.6102 95.0264 73.9189C95.4637 74.7716 95.6032 75.236 95.5397 76.3068C95.3369 77.2914 95.045 77.7027 94.064 78.0663C94.322 77.6264 94.7069 76.998 94.7069 76.998C95.062 76.1995 95.03 75.7798 95.0264 75.05Z" fill="#EEC5B1" fill-opacity="0.75"/>
<path d="M93.0388 82.5906C93.0832 82.025 92.9465 81.4853 92.6538 80.7055C93.1693 81.3306 93.3952 81.7667 93.3596 82.4649C93.4186 82.8576 92.825 84.0898 92.333 84.3501C92.6542 83.7431 92.9746 83.4075 93.0388 82.5906Z" fill="#EEC5B1" fill-opacity="0.75"/>
<mask id="mask5_364_325" style="mask-type:alpha" maskUnits="userSpaceOnUse" x="109" y="50" width="40" height="49">
<path d="M118.204 97.3638C116.918 96.7685 112.097 67.7441 109.848 53.3063C126.256 49.9632 142.437 50.756 148.477 51.5703C148.17 68.6933 147.185 93.9909 145.691 96.4213C135.221 99.5834 119.812 98.1078 118.204 97.3638Z" fill="#D9D9D9" stroke="black"/>
</mask>
<g mask="url(#mask5_364_325)">
<mask id="mask6_364_325" style="mask-type:luminance" maskUnits="userSpaceOnUse" x="97" y="44" width="33" height="32">
<path d="M128.601 44.6658L97.9941 45.2178L98.5575 75.1771L129.164 74.6251L128.601 44.6658Z" fill="white"/>
</mask>
<g mask="url(#mask6_364_325)">
<path fill-rule="evenodd" clip-rule="evenodd" d="M97.9941 45.2178L105.646 45.0798L105.787 52.5696L98.135 52.7076L97.9941 45.2178ZM113.438 52.4316L105.787 52.5696L105.927 60.0594L98.2758 60.1974L98.4166 67.6873L106.068 67.5493L106.209 75.0391L113.861 74.9011L113.72 67.4113L121.372 67.2733L121.512 74.7631L129.164 74.6251L129.023 67.1353L121.372 67.2733L121.231 59.7834L128.883 59.6454L128.742 52.1556L121.09 52.2936L120.949 44.8038L113.297 44.9418L113.438 52.4316ZM113.579 59.9214L121.231 59.7834L121.09 52.2936L113.438 52.4316L113.579 59.9214ZM113.579 59.9214L113.72 67.4113L106.068 67.5493L105.927 60.0594L113.579 59.9214Z" fill="#3D3D3D" fill-opacity="0.3"/>
</g>
<mask id="mask7_364_325" style="mask-type:luminance" maskUnits="userSpaceOnUse" x="98" y="74" width="32" height="32">
<path d="M129.165 74.6169L98.5586 75.1689L99.1219 105.128L129.729 104.576L129.165 74.6169Z" fill="white"/>
</mask>
<g mask="url(#mask7_364_325)">
<path fill-rule="evenodd" clip-rule="evenodd" d="M98.5586 75.1689L106.21 75.0309L106.351 82.5208L98.6994 82.6588L98.5586 75.1689ZM114.003 82.3828L106.351 82.5208L106.492 90.0106L98.8403 90.1486L98.9811 97.6384L106.633 97.5004L106.774 104.99L114.425 104.852L114.284 97.3624L121.936 97.2244L122.077 104.714L129.729 104.576L129.588 97.0864L121.936 97.2244L121.795 89.7346L129.447 89.5966L129.306 82.1068L121.654 82.2448L121.514 74.7549L113.862 74.8929L114.003 82.3828ZM114.144 89.8726L121.795 89.7346L121.654 82.2448L114.003 82.3828L114.144 89.8726ZM114.144 89.8726L114.284 97.3624L106.633 97.5004L106.492 90.0106L114.144 89.8726Z" fill="#3D3D3D" fill-opacity="0.3"/>
</g>
<mask id="mask8_364_325" style="mask-type:luminance" maskUnits="userSpaceOnUse" x="129" y="74" width="32" height="31">
<path d="M159.784 74.0671L129.178 74.6191L129.741 104.578L160.348 104.026L159.784 74.0671Z" fill="white"/>
</mask>
<g mask="url(#mask8_364_325)">
<path fill-rule="evenodd" clip-rule="evenodd" d="M129.178 74.6191L136.829 74.4811L136.97 81.971L129.319 82.109L129.178 74.6191ZM144.622 81.833L136.97 81.971L137.111 89.4608L129.459 89.5988L129.6 97.0886L137.252 96.9506L137.393 104.44L145.044 104.302L144.904 96.8126L152.555 96.6746L152.696 104.164L160.348 104.026L160.207 96.5366L152.555 96.6746L152.414 89.1848L160.066 89.0468L159.925 81.557L152.274 81.695L152.133 74.2051L144.481 74.3431L144.622 81.833ZM144.763 89.3228L152.414 89.1848L152.274 81.695L144.622 81.833L144.763 89.3228ZM144.763 89.3228L144.904 96.8126L137.252 96.9506L137.111 89.4608L144.763 89.3228Z" fill="#3D3D3D" fill-opacity="0.3"/>
</g>
<mask id="mask9_364_325" style="mask-type:luminance" maskUnits="userSpaceOnUse" x="128" y="44" width="32" height="31">
<path d="M159.222 44.113L128.615 44.665L129.179 74.6244L159.785 74.0724L159.222 44.113Z" fill="white"/>
</mask>
<g mask="url(#mask9_364_325)">
<path fill-rule="evenodd" clip-rule="evenodd" d="M128.615 44.665L136.267 44.527L136.408 52.0169L128.756 52.1549L128.615 44.665ZM144.059 51.8789L136.408 52.0169L136.549 59.5067L128.897 59.6447L129.038 67.1345L136.689 66.9965L136.83 74.4864L144.482 74.3484L144.341 66.8585L151.993 66.7205L152.134 74.2104L159.785 74.0724L159.644 66.5825L151.993 66.7205L151.852 59.2307L159.504 59.0927L159.363 51.6029L151.711 51.7409L151.57 44.251L143.919 44.389L144.059 51.8789ZM144.2 59.3687L151.852 59.2307L151.711 51.7409L144.059 51.8789L144.2 59.3687ZM144.2 59.3687L144.341 66.8585L136.689 66.9965L136.549 59.5067L144.2 59.3687Z" fill="#3D3D3D" fill-opacity="0.3"/>
</g>
</g>
<defs>
<filter id="filter0_d_364_325" x="0" y="0.132812" width="215.5" height="181.231" filterUnits="userSpaceOnUse" color-interpolation-filters="sRGB">
<feFlood flood-opacity="0" result="BackgroundImageFix"/>
<feColorMatrix in="SourceAlpha" type="matrix" values="0 0 0 0 0 0 0 0 0 0 0 0 0 0 0 0 0 0 127 0" result="hardAlpha"/>
<feOffset dx="7" dy="7"/>
<feGaussianBlur stdDeviation="2"/>
<feComposite in2="hardAlpha" operator="out"/>
<feColorMatrix type="matrix" values="0 0 0 0 0 0 0 0 0 0 0 0 0 0 0 0 0 0 0.25 0"/>
<feBlend mode="normal" in2="BackgroundImageFix" result="effect1_dropShadow_364_325"/>
<feBlend mode="normal" in="SourceGraphic" in2="effect1_dropShadow_364_325" result="shape"/>
</filter>
</defs>
</svg>
