<svg xmlns="http://www.w3.org/2000/svg" width="60" height="60" viewBox="0 0 60 60" fill="none">
  <g clip-path="url(#clip0_195_214)">
    <path d="M29.75 0C13.3197 0 0 13.4316 0 30C0 44.0688 9.60568 55.8744 22.5636 59.1168V39.168H16.4291V30H22.5636V26.0496C22.5636 15.8388 27.1463 11.106 37.0875 11.106C38.9725 11.106 42.2248 11.4792 43.5552 11.8512V20.1612C42.8531 20.0868 41.6333 20.0496 40.1185 20.0496C35.2406 20.0496 33.3557 21.9132 33.3557 26.7576V30H43.0732L41.4036 39.168H33.3557V59.7804C48.0867 57.9864 59.5012 45.3384 59.5012 30C59.5 13.4316 46.1803 0 29.75 0Z" fill="#1E1E1E"/>
  </g>
  <defs>
    <clipPath id="clip0_195_214">
      <rect width="59.5" height="60" fill="white"/>
    </clipPath>
  </defs>
</svg>