<svg xmlns="http://www.w3.org/2000/svg" width="50" height="50" viewBox="0 0 50 50" fill="none">
  <path d="M25 0C14.9143 0 6.73828 8.18105 6.73828 18.2716C6.73828 29.3803 14.3498 31.9979 18.3433 38.8088C22.061 45.1469 22.0641 50 25 50C28.0446 50 27.8524 45.4789 31.6567 38.8089C35.46 32.1378 43.2617 29.3803 43.2617 18.2716C43.2617 8.18105 35.0857 0 25 0ZM25 25.2736C21.227 25.2736 18.1682 22.2133 18.1682 18.4387C18.1682 16.5503 18.9328 14.8421 20.1694 13.6047C21.406 12.3683 23.1135 11.6026 25 11.6026C28.773 11.6026 31.8308 14.663 31.8308 18.4387C31.8308 22.2133 28.773 25.2736 25 25.2736Z" fill="#4CAF50"/>
  <path d="M24.9995 0C24.4912 0 23.9881 0.0217773 23.4902 0.0625C32.8697 0.830469 40.2427 8.68955 40.2427 18.2716C40.2427 29.3803 32.4409 32.1378 28.6377 38.8088C25.6246 44.0917 25.1183 48.026 23.5253 49.4341C23.9337 49.802 24.4068 50 24.9995 50C28.0441 50 27.852 45.4789 31.6563 38.8089C35.4595 32.1378 43.2612 29.3803 43.2612 18.2716C43.2612 8.18105 35.0853 0 24.9995 0Z" fill="#43A047"/>
  <path d="M20.1691 13.605L8.1627 25.618C7.28447 23.6167 6.73828 21.2493 6.73828 18.2718C6.73828 13.2682 8.74863 8.73506 12.0043 5.43555L20.1691 13.605Z" fill="#F44336"/>
  <path d="M29.8779 23.2233C31.0859 21.9904 31.8309 20.3017 31.8309 18.4389C31.8309 14.6632 28.7723 11.6029 24.9998 11.6029C23.113 11.6029 21.4053 12.3683 20.1689 13.6053L32.2637 1.50391C36.5869 3.38037 40.0409 6.88174 41.8586 11.2379L29.8783 23.2247L29.8779 23.2233Z" fill="#42A5F5"/>
  <path d="M32.2637 1.50391L31.2441 2.52402C35.3003 4.91738 38.3513 8.83389 39.6101 13.4877L41.8587 11.2379C40.0409 6.88164 36.5869 3.38037 32.2637 1.50391Z" fill="#2196F3"/>
  <path d="M29.8789 23.2248L16.6928 36.4183C13.8258 32.8047 10.1474 30.1481 8.16309 25.6185L20.1695 13.6055C18.9332 14.8425 18.1683 16.5512 18.1683 18.4391C18.1683 22.2136 21.2269 25.2738 25.0004 25.2738C26.9111 25.2738 28.6387 24.4888 29.8785 23.2234L29.8789 23.2248Z" fill="#FFC107"/>
  <path d="M32.2646 1.50352L20.1697 13.605L12.0049 5.43564C15.3162 2.07949 19.9159 0 25.0007 0C27.5821 0 30.039 0.536328 32.2646 1.50352Z" fill="#1E88E5"/>
  <path d="M25.0006 0C24.4924 0 23.9893 0.0216797 23.4915 0.0625L23.4912 0.0625977C26.2288 0.285468 28.88 1.12696 31.245 2.52363L32.2646 1.50352C30.0389 0.536328 27.582 0 25.0006 0Z" fill="#1976D2"/>
</svg>