<svg width="1582" height="802" viewBox="0 0 1582 802" fill="none" xmlns="http://www.w3.org/2000/svg">
<rect x="10" y="10" width="1548" height="768" rx="50" fill="#DDA15E" fill-opacity="0.5"/>
<rect x="20" y="20" width="1548" height="768" rx="50" fill="#DDA15E" fill-opacity="0.25"/>
<g filter="url(#filter0_d_340_35)">
<rect width="1548" height="768" rx="50" fill="#DDA15E"/>
</g>
<path d="M993.342 141.316C985.607 54.999 843.069 14.716 781 0.889924C993.778 1.22308 1431.38 0.44156 1480 0.441324C1527.9 -3.56706 1544.19 20.3542 1547.68 46.8259C1549.64 251.219 1549.22 672.086 1547.68 716.115C1546.18 759.069 1511.7 771.056 1482.06 767.988H1023.4C1004.45 744.001 1164.5 681.766 1110.29 597.077C1061.31 520.539 861.363 472.143 901.872 354.204C942.38 236.266 1001.46 231.857 993.342 141.316Z" fill="#FFEBD3"/>
<defs>
<filter id="filter0_d_340_35" x="0" y="0" width="1582" height="802" filterUnits="userSpaceOnUse" color-interpolation-filters="sRGB">
<feFlood flood-opacity="0" result="BackgroundImageFix"/>
<feColorMatrix in="SourceAlpha" type="matrix" values="0 0 0 0 0 0 0 0 0 0 0 0 0 0 0 0 0 0 127 0" result="hardAlpha"/>
<feOffset dx="30" dy="30"/>
<feGaussianBlur stdDeviation="2"/>
<feComposite in2="hardAlpha" operator="out"/>
<feColorMatrix type="matrix" values="0 0 0 0 0 0 0 0 0 0 0 0 0 0 0 0 0 0 0.25 0"/>
<feBlend mode="normal" in2="BackgroundImageFix" result="effect1_dropShadow_340_35"/>
<feBlend mode="normal" in="SourceGraphic" in2="effect1_dropShadow_340_35" result="shape"/>
</filter>
</defs>
</svg>
