<svg width="1548" height="60" viewBox="0 0 1548 60" fill="none" xmlns="http://www.w3.org/2000/svg">
<g clip-path="url(#clip0_491_46)">
<path d="M624.75 0C608.32 0 595 13.4316 595 30C595 44.0688 604.606 55.8744 617.564 59.1168V39.168H611.429V30H617.564V26.0496C617.564 15.8388 622.146 11.106 632.088 11.106C633.972 11.106 637.225 11.4792 638.555 11.8512V20.1612C637.853 20.0868 636.633 20.0496 635.118 20.0496C630.241 20.0496 628.356 21.9132 628.356 26.7576V30H638.073L636.404 39.168H628.356V59.7804C643.087 57.9864 654.501 45.3384 654.501 30C654.5 13.4316 641.18 0 624.75 0Z" fill="#1E1E1E"/>
</g>
<path d="M739.601 4.75977H747.965L729.693 25.8185L751.188 54.4747H734.358L721.175 37.0949L706.092 54.4747H697.724L717.267 31.95L696.646 4.75977H713.904L725.82 20.6456L739.601 4.75977ZM736.666 49.4267H741.3L711.386 9.5426H706.413L736.666 49.4267Z" fill="#1E1E1E"/>
<g clip-path="url(#clip1_491_46)">
<path d="M823.084 5.40234C831.033 5.40234 831.974 5.4375 835.1 5.57812C838.005 5.70703 839.574 6.19922 840.62 6.60938C842.003 7.14844 843.003 7.80469 844.037 8.84766C845.083 9.90234 845.722 10.8984 846.256 12.293C846.663 13.3477 847.151 14.9414 847.279 17.8594C847.419 21.0234 847.453 21.9727 847.453 29.9766C847.453 37.9922 847.419 38.9414 847.279 42.0938C847.151 45.0234 846.663 46.6055 846.256 47.6602C845.722 49.0547 845.071 50.0625 844.037 51.1055C842.991 52.1602 842.003 52.8047 840.62 53.3438C839.574 53.7539 837.994 54.2461 835.1 54.375C831.962 54.5156 831.021 54.5508 823.084 54.5508C815.135 54.5508 814.194 54.5156 811.068 54.375C808.162 54.2461 806.594 53.7539 805.548 53.3438C804.165 52.8047 803.165 52.1484 802.131 51.1055C801.085 50.0508 800.446 49.0547 799.912 47.6602C799.505 46.6055 799.017 45.0117 798.889 42.0938C798.749 38.9297 798.715 37.9805 798.715 29.9766C798.715 21.9609 798.749 21.0117 798.889 17.8594C799.017 14.9297 799.505 13.3477 799.912 12.293C800.446 10.8984 801.097 9.89062 802.131 8.84766C803.177 7.79297 804.165 7.14844 805.548 6.60938C806.594 6.19922 808.174 5.70703 811.068 5.57812C814.194 5.4375 815.135 5.40234 823.084 5.40234ZM823.084 0C815.007 0 813.996 0.0351562 810.824 0.175781C807.663 0.316406 805.49 0.832031 803.607 1.57031C801.643 2.34375 799.981 3.36328 798.331 5.03906C796.669 6.70312 795.658 8.37891 794.891 10.3477C794.159 12.2578 793.648 14.4375 793.508 17.625C793.369 20.8359 793.334 21.8555 793.334 30C793.334 38.1445 793.369 39.1641 793.508 42.3633C793.648 45.5508 794.159 47.7422 794.891 49.6406C795.658 51.6211 796.669 53.2969 798.331 54.9609C799.981 56.625 801.643 57.6562 803.595 58.418C805.49 59.1563 807.651 59.6719 810.812 59.8125C813.985 59.9531 814.996 59.9883 823.072 59.9883C831.149 59.9883 832.16 59.9531 835.333 59.8125C838.494 59.6719 840.667 59.1563 842.549 58.418C844.502 57.6562 846.163 56.625 847.814 54.9609C849.464 53.2969 850.486 51.6211 851.242 49.6523C851.974 47.7422 852.485 45.5625 852.625 42.375C852.764 39.1758 852.799 38.1563 852.799 30.0117C852.799 21.8672 852.764 20.8477 852.625 17.6484C852.485 14.4609 851.974 12.2695 851.242 10.3711C850.51 8.37891 849.499 6.70312 847.837 5.03906C846.187 3.375 844.525 2.34375 842.573 1.58203C840.678 0.84375 838.517 0.328125 835.356 0.1875C832.172 0.0351563 831.161 0 823.084 0Z" fill="#1E1E1E"/>
<path d="M823.083 14.5898C814.647 14.5898 807.802 21.4922 807.802 30C807.802 38.5078 814.647 45.4102 823.083 45.4102C831.52 45.4102 838.365 38.5078 838.365 30C838.365 21.4922 831.52 14.5898 823.083 14.5898ZM823.083 39.9961C817.61 39.9961 813.171 35.5195 813.171 30C813.171 24.4805 817.61 20.0039 823.083 20.0039C828.557 20.0039 832.996 24.4805 832.996 30C832.996 35.5195 828.557 39.9961 823.083 39.9961Z" fill="#1E1E1E"/>
<path d="M842.538 13.9805C842.538 15.9727 840.934 17.5781 838.97 17.5781C836.994 17.5781 835.402 15.9609 835.402 13.9805C835.402 11.9883 837.006 10.3828 838.97 10.3828C840.934 10.3828 842.538 12 842.538 13.9805Z" fill="#1E1E1E"/>
</g>
<path d="M892.5 60L896.682 44.5925C894.102 40.0825 892.745 34.97 892.748 29.7275C892.755 13.3375 905.982 0 922.233 0C930.119 0.0025 937.522 3.1 943.09 8.72C948.656 14.34 951.72 21.81 951.717 29.755C951.71 46.1475 938.484 59.485 922.233 59.485C917.299 59.4825 912.437 58.235 908.131 55.865L892.5 60ZM908.855 50.4825C913.01 52.97 916.977 54.46 922.223 54.4625C935.729 54.4625 946.732 43.3775 946.739 29.75C946.744 16.095 935.794 5.025 922.243 5.02C908.726 5.02 897.731 16.105 897.726 29.73C897.724 35.2925 899.34 39.4575 902.055 43.815L899.578 52.935L908.855 50.4825ZM937.085 36.8225C936.902 36.5125 936.411 36.3275 935.672 35.955C934.936 35.5825 931.314 33.785 930.637 33.5375C929.963 33.29 929.472 33.165 928.978 33.91C928.488 34.6525 927.074 36.3275 926.646 36.8225C926.217 37.3175 925.785 37.38 925.049 37.0075C924.313 36.635 921.938 35.8525 919.124 33.32C916.935 31.35 915.455 28.9175 915.026 28.1725C914.597 27.43 914.981 27.0275 915.348 26.6575C915.68 26.325 916.084 25.79 916.454 25.355C916.828 24.925 916.95 24.615 917.197 24.1175C917.443 23.6225 917.321 23.1875 917.135 22.815C916.95 22.445 915.477 18.7875 914.865 17.3C914.265 15.8525 913.657 16.0475 913.206 16.025L911.793 16C911.302 16 910.504 16.185 909.829 16.93C909.155 17.675 907.251 19.47 907.251 23.1275C907.251 26.785 909.891 30.3175 910.258 30.8125C910.628 31.3075 915.452 38.8125 922.843 42.03C924.6 42.795 925.974 43.2525 927.042 43.595C928.807 44.16 930.414 44.08 931.683 43.89C933.099 43.6775 936.042 42.0925 936.656 40.3575C937.271 38.62 937.271 37.1325 937.085 36.8225Z" fill="#1E1E1E"/>
<rect y="30" width="500" height="5" fill="#1E1E1E"/>
<rect x="1048" y="30" width="500" height="5" fill="#1E1E1E"/>
<defs>
<clipPath id="clip0_491_46">
<rect width="59.5" height="60" fill="white" transform="translate(595)"/>
</clipPath>
<clipPath id="clip1_491_46">
<rect width="59.5" height="60" fill="white" transform="translate(793.334)"/>
</clipPath>
</defs>
</svg>
