<svg xmlns="http://www.w3.org/2000/svg" width="75" height="109" viewBox="0 0 75 109" fill="none">
  <path fill-rule="evenodd" clip-rule="evenodd" d="M-2.12503 52.9443C-2.19168 52.943 -2.291 52.9076 -2.42298 52.8383C-5.52236 52.7765 -9.00772 52.0069 -11.6773 50.4534C-14.0469 48.9058 -16.5025 46.6564 -17.9544 44.227C-19.3063 41.7996 -20.7562 39.2702 -20.6984 36.3708C-20.5346 33.1734 -20.6688 29.8701 -19.9051 26.6846C-19.1395 23.3993 -17.286 20.7357 -15.6285 17.8681C-13.873 15.1026 -11.9256 12.7409 -9.58019 10.4872C-4.78943 5.98184 1.35321 3.90387 7.67787 2.72971C10.7892 2.19163 13.9846 2.45538 16.9661 3.415C17.9605 3.70154 18.8864 4.08674 19.7436 4.57059C22.5271 5.42625 24.8947 7.07377 26.5485 9.4072C28.4963 12.0465 30.5361 15.0878 31.4701 18.4071C32.152 19.3209 32.63 20.4306 32.5041 21.7284C32.5041 21.7284 32.5034 21.7617 32.5021 21.8283C32.5608 22.2296 32.5521 22.6628 32.4762 23.1281C32.4669 23.5947 32.4249 24.0272 32.3503 24.4258C32.3463 24.6258 32.3103 24.7584 32.2423 24.8238C32.1677 25.2224 32.0937 25.5876 32.0205 25.9196C31.6667 28.613 30.813 31.2966 29.8614 33.8781C29.1217 35.8637 27.986 37.6415 26.5524 39.3132C25.6306 40.3951 24.8109 41.3789 24.0871 42.5647C23.5672 43.5546 22.7475 44.5384 22.0297 45.4243C20.4941 47.194 18.0627 48.7459 16.0411 49.8058C13.6137 51.1577 11.1883 52.4096 8.47486 53.0556C4.9596 53.7857 1.25436 54.0119 -2.12503 52.9443ZM30.9506 24.3979C30.9585 23.998 31.0685 23.5001 31.0765 23.1002C31.0125 22.9655 30.9818 22.8316 30.9845 22.6983C30.9324 21.9637 30.8471 21.2286 30.7284 20.4927C30.6284 20.4907 30.4284 20.4867 30.2305 20.3828C29.7986 21.9745 28.8709 23.3563 28.1471 24.5421C27.1154 26.1218 25.5938 27.1917 23.9762 28.0596C22.1546 29.1235 20.3311 30.2874 18.4135 31.1494C14.3764 32.9692 9.47142 33.1715 5.72431 35.4973C3.90075 36.6612 2.56712 38.3349 0.839548 39.7007C0.567618 39.962 0.29635 40.19 0.02575 40.3847C-0.378159 40.5766 -0.78605 40.9686 -1.09396 41.3625C-1.22993 41.4932 -1.36656 41.6572 -1.50385 41.8545C-1.50385 41.8545 -1.50452 41.8878 -1.50585 41.9544C-1.64181 42.0851 -1.74444 42.2164 -1.81375 42.3484C-1.88174 42.4137 -1.91639 42.4797 -1.91772 42.5464C-1.9857 42.6117 -2.05369 42.677 -2.12167 42.7423C-2.123 42.809 -2.12433 42.8756 -2.12566 42.9423C-2.19231 42.941 -2.2263 42.9736 -2.22763 43.0403C-2.29694 43.1723 -2.36625 43.3042 -2.43556 43.4362C-2.57286 43.6335 -2.71081 43.8641 -2.84944 44.1281C-2.85077 44.1947 -2.85143 44.2281 -2.85143 44.2281C-3.12867 44.756 -3.40592 45.2839 -3.68317 45.8118C-3.6845 45.8785 -3.71915 45.9445 -3.78713 46.0098C-3.8591 46.2751 -3.9304 46.507 -4.00104 46.7056C-4.21031 47.1682 -4.38624 47.6315 -4.52885 48.0954C-4.94073 48.6873 -4.84673 48.9892 -4.76071 49.6911C-4.76337 49.8244 -4.83267 49.9564 -4.96864 50.087C-4.83666 50.1563 -4.73735 50.1917 -4.6707 50.193C-4.57471 50.3949 -4.47871 50.5969 -4.28074 50.7009C-4.14743 50.7035 -4.01413 50.7062 -3.88082 50.7088C-2.89298 51.3287 -1.80117 51.7505 -0.707373 52.0724C2.07812 52.828 5.38743 52.3939 8.09885 51.8479C11.1142 51.1078 14.0435 49.6659 16.5769 48.0161C19.0044 46.6642 21.4457 44.6125 22.8953 42.1409C23.5171 41.0531 24.0329 40.2632 24.9527 39.2813C25.7705 38.3974 26.3903 37.4096 27.1121 36.3238C28.5557 34.1521 29.5093 31.4706 30.061 28.8811C30.3909 27.3874 30.7207 25.8936 30.9506 24.3979ZM24.1649 8.55952C23.8383 8.21961 23.511 7.91302 23.1831 7.63976C22.7218 7.36385 22.2606 7.08793 21.7993 6.81202C20.5135 6.08624 19.0238 5.55644 17.628 5.32857C14.8366 4.87284 12.4251 5.42488 9.71366 5.97094C7.50214 6.52697 4.98869 7.17699 2.96516 8.33689C1.03963 9.59876 -0.893886 11.2605 -2.42747 12.9303C-5.59064 16.0679 -7.76796 19.9252 -10.0433 23.6806C-11.3889 25.9543 -12.0326 28.1419 -12.1844 30.7394C-12.3282 32.9369 -12.4741 35.2345 -12.318 37.438C-12.3246 37.7713 -12.2973 38.0719 -12.2359 38.3398C-12.1799 38.8744 -12.1225 39.3423 -12.0639 39.7435C-12.0052 40.1448 -11.8799 40.5474 -11.6879 40.9513C-11.6892 41.0179 -11.6565 41.0519 -11.5899 41.0533C-11.5272 41.2545 -11.4639 41.4225 -11.3999 41.5571C-11.3332 41.5585 -11.3006 41.5925 -11.3019 41.6591C-11.1726 41.8617 -11.0433 42.0644 -10.9139 42.267C-10.8473 42.2683 -10.8146 42.3023 -10.816 42.3689C-10.7506 42.4369 -10.7186 42.5042 -10.72 42.5709C-10.656 42.7055 -10.592 42.8402 -10.528 42.9748C-10.464 43.1094 -10.4 43.2441 -10.336 43.3787C-10.336 43.3787 -10.3367 43.412 -10.338 43.4787C-10.2766 43.7466 -10.2146 43.9812 -10.152 44.1825C-9.58598 45.8942 -8.82002 47.6098 -7.52826 48.0356C-7.52958 48.1023 -7.49692 48.1362 -7.43027 48.1376C-7.36362 48.1389 -7.26364 48.1409 -7.13033 48.1436C-7.13166 48.2102 -7.13233 48.2435 -7.13233 48.2435C-6.33249 48.2595 -5.72463 47.8715 -5.31275 47.2796C-5.24344 47.1476 -5.17413 47.0157 -5.10482 46.8837C-5.03551 46.7517 -4.96619 46.6197 -4.89688 46.4877C-4.75826 46.2238 -4.61831 45.8932 -4.47702 45.4959C-4.40638 45.2973 -4.40306 45.1307 -4.46706 44.996C-4.32843 44.7321 -4.22181 44.4008 -4.14719 44.0022C-3.60543 41.9126 -3.36559 39.917 -2.32593 37.9373C-1.39022 36.1556 -0.658476 34.5699 0.57318 32.9941C3.13647 29.8446 6.66767 28.3147 10.4869 27.3906C14.508 26.3706 18.8991 26.8582 22.6383 24.9323C24.2539 24.1644 26.4814 22.8085 27.4151 21.1268C28.1408 19.841 28.0748 18.1394 28.5026 16.7476C28.5205 15.8478 28.4385 14.946 28.2545 14.1421C27.1926 12.2206 25.7367 9.99113 24.1649 8.55952ZM-1.87387 40.3468C-1.36201 39.7569 -0.754153 39.3689 -0.246279 38.979C0.769469 38.1991 1.48727 37.3132 2.40304 36.5313C3.7267 35.3574 5.04836 34.2836 6.662 33.6156C8.57757 32.8536 10.6911 32.1956 12.7007 31.7356C16.8218 30.7175 20.4609 28.7897 24.0061 26.5599C25.5257 25.59 26.4475 24.5082 27.3752 23.1264C25.9456 24.5982 23.9201 25.8581 22.0045 26.62C19.4851 27.57 16.9816 27.7201 14.3761 27.9682C11.4687 28.3104 8.45336 29.0504 5.82797 30.2983C1.88688 32.3202 -0.592384 36.2715 -1.97585 40.4448C-1.90919 40.4461 -1.8752 40.4134 -1.87387 40.3468ZM-5.68844 51.0729C-7.46416 49.8372 -8.73599 48.4116 -9.89788 46.4881C-10.4758 45.3763 -11.0538 44.2646 -11.6298 43.0529C-12.0137 42.245 -12.5997 41.5332 -12.6817 40.6314C-12.8097 40.3621 -12.937 40.0595 -13.0637 39.7236C-14.0196 37.5041 -13.5639 34.7126 -13.516 32.3131C-13.4722 30.1136 -13.4204 27.5141 -12.3787 25.4344C-11.2331 23.1568 -9.88948 20.9832 -8.54588 18.8095C-5.95668 14.3602 -2.48759 10.9287 1.67539 7.81107C3.40296 6.44524 5.61647 5.78923 7.72801 5.23121C9.74157 4.57122 11.8531 4.0132 13.9567 3.8551C11.2632 3.50134 8.55975 3.64748 5.74436 4.3915C2.82699 5.23352 -0.186361 5.87358 -2.91573 7.31946C-5.44314 8.66935 -7.67658 10.3252 -9.71805 12.3849C-11.8635 14.6426 -13.511 17.0102 -15.1645 19.6778C-16.818 22.3453 -18.2696 24.9169 -18.8332 28.1063C-19.389 30.8958 -19.4508 33.9952 -19.4066 36.7966C-19.3624 39.598 -17.5306 43.0352 -15.7708 45.0707C-14.107 46.9042 -12.3433 48.7398 -10.1636 49.7834C-8.67788 50.5132 -7.18415 50.843 -5.68844 51.0729Z" fill="#8E572D"/>
  <path d="M5.01924 10.6784C4.41538 10.8664 4.69738 11.7722 5.20127 11.5822C9.93821 9.77623 14.7652 8.47219 19.7462 9.47168C19.8422 9.67364 20.2401 9.78159 20.3461 9.48364C20.3461 9.48364 20.3801 9.45098 20.4481 9.38566C20.552 9.18769 20.3581 8.88376 20.1581 8.87977C15.083 7.57835 9.66019 8.67047 5.01924 10.6784Z" fill="#8E572D"/>
  <path d="M2.41574 15.8272C4.34327 14.4653 6.26681 13.3034 8.7703 13.1533C9.2702 13.1633 9.28415 12.4634 8.78425 12.4535C6.18477 12.4016 4.05927 13.6595 1.8338 14.9154C1.32592 15.3054 1.90786 16.2171 2.41574 15.8272Z" fill="#8E572D"/>
  <path d="M14.9432 44.6829C13.5156 46.0547 11.0001 46.8047 9.09252 47.1667C6.58305 47.6168 4.07956 47.7669 1.67605 47.919C0.876208 47.9031 0.850295 49.2028 1.65213 49.1188C4.35558 48.9727 7.26098 48.7305 9.9744 48.0845C11.884 47.6225 14.5034 46.6745 15.7351 45.0987C15.839 44.9008 15.845 44.6008 15.647 44.4969C15.5804 44.4955 15.5471 44.4949 15.5471 44.4949C15.2491 44.3889 15.0472 44.4849 14.9432 44.6829Z" fill="#8E572D"/>
  <path d="M6.62651 45.4173C5.12481 45.4874 3.81909 45.7614 2.32736 45.3316C1.72947 45.2196 1.4096 46.2134 2.10946 46.2274C3.70316 46.5592 5.11086 46.1872 6.71453 46.0191C7.01646 45.9251 7.02643 45.4252 6.62651 45.4173Z" fill="#8E572D"/>
</svg>