<svg xmlns="http://www.w3.org/2000/svg" width="60" height="60" viewBox="0 0 60 60" fill="none">
  <g clip-path="url(#clip0_195_216)">
    <path d="M30.084 5.40234C38.0328 5.40234 38.9741 5.4375 42.1002 5.57812C45.0055 5.70703 46.5743 6.19922 47.6202 6.60938C49.0031 7.14844 50.0025 7.80469 51.0368 8.84766C52.0827 9.90234 52.7219 10.8984 53.2564 12.293C53.6632 13.3477 54.1512 14.9414 54.2791 17.8594C54.4185 21.0234 54.4534 21.9727 54.4534 29.9766C54.4534 37.9922 54.4185 38.9414 54.2791 42.0938C54.1512 45.0234 53.6632 46.6055 53.2564 47.6602C52.7219 49.0547 52.0711 50.0625 51.0368 51.1055C49.9909 52.1602 49.0031 52.8047 47.6202 53.3438C46.5743 53.7539 44.9938 54.2461 42.1002 54.375C38.9625 54.5156 38.0212 54.5508 30.084 54.5508C22.1351 54.5508 21.1938 54.5156 18.0678 54.375C15.1625 54.2461 13.5936 53.7539 12.5477 53.3438C11.1648 52.8047 10.1654 52.1484 9.13115 51.1055C8.08525 50.0508 7.44609 49.0547 6.91152 47.6602C6.50478 46.6055 6.0167 45.0117 5.88886 42.0938C5.74941 38.9297 5.71455 37.9805 5.71455 29.9766C5.71455 21.9609 5.74941 21.0117 5.88886 17.8594C6.0167 14.9297 6.50478 13.3477 6.91152 12.293C7.44609 10.8984 8.09687 9.89062 9.13115 8.84766C10.177 7.79297 11.1648 7.14844 12.5477 6.60938C13.5936 6.19922 15.1741 5.70703 18.0678 5.57812C21.1938 5.4375 22.1351 5.40234 30.084 5.40234ZM30.084 0C22.0073 0 20.9963 0.0351562 17.8237 0.175781C14.6628 0.316406 12.4896 0.832031 10.607 1.57031C8.64306 2.34375 6.98125 3.36328 5.33105 5.03906C3.66924 6.70312 2.6582 8.37891 1.89121 10.3477C1.15908 12.2578 0.647754 14.4375 0.508301 17.625C0.368848 20.8359 0.333984 21.8555 0.333984 30C0.333984 38.1445 0.368848 39.1641 0.508301 42.3633C0.647754 45.5508 1.15908 47.7422 1.89121 49.6406C2.6582 51.6211 3.66924 53.2969 5.33105 54.9609C6.98125 56.625 8.64306 57.6562 10.5954 58.418C12.4896 59.1562 14.6512 59.6719 17.8121 59.8125C20.9847 59.9531 21.9957 59.9883 30.0723 59.9883C38.149 59.9883 39.16 59.9531 42.3326 59.8125C45.4935 59.6719 47.6667 59.1562 49.5493 58.418C51.5016 57.6562 53.1635 56.625 54.8136 54.9609C56.4638 53.2969 57.4865 51.6211 58.2419 49.6523C58.974 47.7422 59.4853 45.5625 59.6248 42.375C59.7642 39.1758 59.7991 38.1562 59.7991 30.0117C59.7991 21.8672 59.7642 20.8477 59.6248 17.6484C59.4853 14.4609 58.974 12.2695 58.2419 10.3711C57.5097 8.37891 56.4987 6.70312 54.8369 5.03906C53.1867 3.375 51.5249 2.34375 49.5725 1.58203C47.6783 0.84375 45.5168 0.328125 42.3558 0.1875C39.1717 0.0351563 38.1606 0 30.084 0Z" fill="#1E1E1E"/>
    <path d="M30.0835 14.5898C21.6466 14.5898 14.8018 21.4922 14.8018 30C14.8018 38.5078 21.6466 45.4102 30.0835 45.4102C38.5204 45.4102 45.3652 38.5078 45.3652 30C45.3652 21.4922 38.5204 14.5898 30.0835 14.5898ZM30.0835 39.9961C24.61 39.9961 20.1707 35.5195 20.1707 30C20.1707 24.4805 24.61 20.0039 30.0835 20.0039C35.557 20.0039 39.9963 24.4805 39.9963 30C39.9963 35.5195 35.557 39.9961 30.0835 39.9961Z" fill="#1E1E1E"/>
    <path d="M49.5377 13.9805C49.5377 15.9727 47.934 17.5781 45.97 17.5781C43.9944 17.5781 42.4023 15.9609 42.4023 13.9805C42.4023 11.9883 44.0061 10.3828 45.97 10.3828C47.934 10.3828 49.5377 12 49.5377 13.9805Z" fill="#1E1E1E"/>
  </g>
  <defs>
    <clipPath id="clip0_195_216">
      <rect width="59.5" height="60" fill="white" transform="translate(0.333984)"/>
    </clipPath>
  </defs>
</svg>