<svg xmlns="http://www.w3.org/2000/svg" width="100" height="100" viewBox="0 0 100 100" fill="none">
  <g opacity="0.5">
    <path d="M77.9084 48.0842C75.4334 47.8373 69.9881 47.8373 69.9881 44.3717C69.9881 39.6701 76.9178 33.4826 88.0553 26.7998C91.5193 24.5717 98.699 21.1076 98.699 16.4045C98.699 12.692 95.9756 9.97015 90.2834 10.7123C84.8381 11.4545 76.4225 15.167 65.2865 24.5717C53.6537 34.2248 42.7646 50.3123 42.7646 66.1514C42.7646 82.2389 53.6537 98.3264 71.2271 98.3264C85.3334 98.3264 97.4615 87.6842 97.4615 73.0811C97.46 61.9436 89.7881 49.0748 77.9084 48.0842Z" fill="black"/>
    <path d="M43.1158 41.125C41.0468 40.0315 38.7789 39.3656 36.4471 39.1672C33.9721 38.9203 28.5268 38.9203 28.5268 35.4547C28.5268 30.7532 35.4564 24.5657 46.5939 17.8828C50.0596 15.6547 57.2361 12.1907 57.2361 7.48753C57.2361 3.77503 54.5127 1.05316 48.8205 1.79534C43.3752 2.53753 34.9596 6.25003 23.8236 15.6547C12.1924 25.3078 1.30176 41.3953 1.30176 57.236C1.30176 73.3235 12.1908 89.411 29.7643 89.411C33.7819 89.4157 37.7513 88.536 41.3908 86.8344C37.9236 80.5657 36.0752 73.3125 36.0752 66.1532C36.0768 57.3125 38.9236 48.7391 43.1158 41.125Z" fill="black"/>
  </g>
</svg>