<svg xmlns="http://www.w3.org/2000/svg" width="95" height="85" viewBox="0 0 95 85" fill="none">
  <g clip-path="url(#clip0_214_991)">
    <path fill-rule="evenodd" clip-rule="evenodd" d="M94.2129 20.9162C93.5872 25.028 91.7995 28.7822 89.6542 32.6258C87.1514 37.0057 82.414 39.9554 77.9447 41.9219C75.5313 42.9945 73.2966 44.1566 70.7938 44.6035C69.3636 44.8716 68.0228 45.408 66.5033 45.4973C65.1625 45.5867 63.8217 45.4973 62.4809 45.4973C57.2965 45.408 52.0227 44.4247 48.0898 40.8493C46.3914 39.3297 45.3188 37.4526 44.6931 35.218C44.6037 34.5923 44.3355 33.6984 44.2462 32.8045C44.127 32.3874 44.0674 31.9107 44.0674 31.3744C44.1568 31.0168 44.3355 30.838 44.6037 30.838C44.6037 30.7785 44.6037 30.7487 44.6037 30.7487C43.7098 28.7822 44.3355 25.743 44.9612 23.8659C45.9445 21.2737 47.0171 18.5922 48.5367 16.3575C51.3076 11.9776 54.7937 8.134 59.1736 5.45242C59.7099 4.9161 60.2462 4.46917 60.872 4.11163C61.587 3.6647 62.3915 3.21777 63.196 2.86023C65.0731 2.05575 67.3971 1.78759 69.453 1.34066C73.0284 0.625576 77.1402 0.0892606 80.4475 1.96637C80.6263 2.02596 80.805 2.08555 80.9838 2.14514C81.1626 2.26432 81.3116 2.35371 81.4307 2.4133C82.9503 2.94961 84.3805 3.12838 85.5425 4.37979C86.5257 5.54181 87.3302 6.52505 87.8665 7.86584C87.9261 7.92543 87.9559 7.95523 87.9559 7.95523C88.4028 8.49154 88.5816 8.93847 88.9392 9.47479C89.1179 9.71315 89.2967 9.98131 89.4755 10.2793C91.7101 11.0837 93.0509 13.3184 93.766 15.6424C93.9448 16 94.0938 16.3575 94.2129 16.7151C94.3023 16.8044 94.4811 16.8938 94.4811 17.162C94.4811 17.4004 94.4811 17.6387 94.4811 17.8771C94.6599 18.9497 94.4811 19.933 94.2129 20.9162ZM59.7099 6.70382C59.6503 6.70382 59.6205 6.70382 59.6205 6.70382C58.4585 7.77646 57.1177 8.67032 55.9557 9.83233C53.2741 12.3351 50.7713 15.553 48.9836 18.8603C47.911 20.5587 47.1065 22.5251 46.6596 24.4916C46.3914 25.6537 46.302 26.8157 46.302 28.0671C46.5702 28.0671 46.8384 28.2458 46.8384 28.6034C46.9277 29.8548 48.3579 30.3911 49.4305 30.6593C50.7713 30.9274 51.9334 30.5699 53.1848 30.3017C55.1512 29.7654 56.5814 28.9609 58.2798 27.8883C60.0675 26.6369 61.0507 25.1173 61.9446 23.2402C62.8384 21.4525 63.9111 19.933 65.2519 18.5028C67.5759 16.0894 70.2575 13.9441 73.2966 12.6033C76.4251 11.1731 79.4642 9.56418 82.9503 9.56418C83.3078 9.56418 84.2017 9.74295 85.0062 9.74295C85.5425 9.68336 86.0788 9.68336 86.6151 9.74295C86.6747 9.74295 86.7343 9.71315 86.7939 9.65356C86.9131 9.59397 87.0025 9.56418 87.0621 9.56418C87.0621 9.56418 87.0621 9.53438 87.0621 9.47479C85.6319 7.15075 83.7548 4.82672 81.1626 3.57531C81.0434 3.57531 80.9242 3.54552 80.805 3.48593C80.7454 3.48593 80.7156 3.48593 80.7156 3.48593C80.7156 3.48593 80.7156 3.45613 80.7156 3.39654C77.7659 2.23452 74.548 2.32391 71.5089 2.77084C68.1122 3.39654 64.2686 3.84347 61.2295 5.63119C60.7528 5.98874 60.2463 6.34628 59.7099 6.70382ZM69.0955 38.6146C70.1681 38.3167 71.1811 37.9591 72.1346 37.542C76.3357 35.933 80.3581 34.2347 83.9335 31.5531C85.6319 30.3017 87.1514 29.0503 88.5816 27.7095C89.2371 26.8753 89.8926 25.9516 90.5481 24.9386C91.7101 23.0615 92.7828 21.095 92.9615 18.7709C92.9615 18.0558 92.8721 17.2514 92.6934 16.4469C92.6338 16.2681 92.5742 16.1191 92.5146 16C92.0677 14.9273 91.2632 14.2122 90.4587 13.4078C89.9224 12.7821 89.3861 12.067 88.8498 11.3519C88.0453 11.0837 87.1514 10.9944 86.2576 10.905C84.2017 10.8156 82.6821 11.7094 80.8944 12.5139C79.1067 13.229 77.319 14.3016 75.71 15.3743C74.1011 16.5363 72.3134 17.4301 70.8832 18.7709C69.3636 20.2905 67.8441 21.8994 66.682 23.6872C65.8776 25.1173 65.2519 26.5475 64.0005 27.6201C61.4083 29.8548 59.1736 32.6258 55.5088 33.0727C53.8105 33.3409 51.9334 32.9833 50.3244 32.447C49.6093 32.2682 47.4641 31.1956 46.2126 31.1956C46.1233 31.4637 45.9445 31.6425 45.6763 31.7319C45.6167 32.149 45.5869 32.5662 45.5869 32.9833C46.2126 34.5029 47.6428 35.8437 48.9836 36.5587C51.1289 37.8102 53.3635 38.7934 55.9557 38.9722C60.3356 39.3297 64.8049 39.4191 69.0955 38.6146ZM76.2463 12.6033C74.4586 13.4972 72.6709 14.2122 71.062 15.2849C68.9763 16.6555 67.0992 18.2644 65.4306 20.1117C63.9111 21.8101 63.2854 23.8659 62.034 25.743C59.9781 28.8716 56.5814 30.6593 53.0954 31.5531C52.857 31.6127 52.6186 31.6723 52.3803 31.7319C53.4529 31.9107 54.6149 32.0001 55.6876 31.8213C58.2798 31.3744 60.3356 29.4973 62.1234 27.7095C63.1066 26.7263 64.0005 25.9218 64.7156 24.7598C65.3413 23.6872 65.8776 22.6145 66.682 21.6313C69.2742 18.0558 72.9391 15.4637 76.6039 13.3184C77.6765 12.6927 78.7492 12.067 79.8218 11.6201C80.1793 11.4413 80.5369 11.2625 80.8944 11.0837C79.2855 11.3519 77.7659 11.8882 76.2463 12.6033ZM89.9224 29.4973C90.4587 28.6034 90.995 27.6201 91.442 26.6369C90.8461 27.352 90.2204 28.0075 89.5649 28.6034C89.5053 28.663 89.4457 28.7226 89.3861 28.7822C89.3265 28.8418 89.2967 28.8716 89.2967 28.8716C86.7045 32.5364 82.8609 34.5923 78.8385 36.4694C76.6933 37.542 74.548 38.5252 72.224 39.1509C71.062 39.5085 69.8999 39.6873 68.6485 39.866C68.6485 39.866 68.6187 39.8958 68.5591 39.9554C65.8776 40.5811 63.2854 41.3856 60.5144 41.2068C57.7434 41.028 54.8831 40.8493 52.2015 40.0448C50.1456 39.4191 48.0004 38.2571 46.3914 36.7375C46.749 37.5122 47.2257 38.2571 47.8216 38.9722C49.8775 41.2068 52.7378 42.8158 55.5982 43.4415C61.4083 44.7823 68.0228 44.7823 73.6542 42.4582C76.2463 41.3856 79.1067 40.4023 81.5201 38.7934C83.8442 37.3632 86.1682 35.3073 87.8665 33.0727C88.671 32.0001 89.2967 30.7487 89.9224 29.4973Z" fill="#8E572D"/>
    <path d="M55.9556 14.1229C54.5254 15.0167 53.5422 17.0726 52.7377 18.5028C51.4863 20.5587 51.1288 22.8827 50.2349 25.1173C50.0561 25.5643 50.6818 26.0112 50.8606 25.4749C51.7545 23.6872 52.2014 21.6313 53.1846 19.8436C53.8997 18.4134 54.9724 16.3575 56.3132 15.3743C56.5813 15.2849 56.9389 15.0167 56.8495 14.5698C56.8495 14.5698 56.8197 14.54 56.7601 14.4804C56.7601 14.1229 56.2238 13.9441 55.9556 14.1229Z" fill="#8E572D"/>
    <path d="M55.2411 12.8714C55.0623 13.1396 55.5986 13.4077 55.7774 13.0502C56.1349 12.3351 57.0288 11.7988 57.7439 11.4413C58.5483 10.9943 59.2634 10.7262 60.1573 10.458C60.783 10.1899 60.3361 9.2066 59.7104 9.56415C58.1908 10.3686 55.8668 11.0837 55.2411 12.8714Z" fill="#8E572D"/>
    <path d="M79.6425 31.1065C80.7151 30.1233 82.3241 29.3188 83.4861 28.4249C84.8269 27.3523 85.9889 26.2797 86.9721 24.9389C88.8492 22.4361 89.4749 19.3076 89.3856 16.179C89.3856 15.6427 88.5811 15.7321 88.5811 16.179C88.5811 19.5757 87.5978 22.7936 85.2738 25.2964C84.2012 26.4584 82.9498 27.4417 81.6984 28.3355C80.8045 29.0506 79.5531 29.4976 78.838 30.3914C78.3017 30.8384 79.1062 31.6428 79.6425 31.1065Z" fill="#8E572D"/>
    <path d="M74.6376 30.7487C75.174 30.3017 75.7997 30.123 76.4254 29.7654C77.0511 29.4079 77.7662 28.9609 78.3919 28.4246C79.3751 27.7095 80.1796 26.8157 80.8947 25.743C81.0734 25.4749 80.6265 25.1173 80.3584 25.3855C79.4645 26.5475 78.4812 27.5308 77.2298 28.3352C76.2466 28.9609 74.9952 29.3185 74.1013 30.123C73.8332 30.4805 74.2801 31.0168 74.6376 30.7487Z" fill="#8E572D"/>
    <path fill-rule="evenodd" clip-rule="evenodd" d="M46.2126 67.2182C46.2126 67.2777 46.1828 67.3671 46.1232 67.4863C46.1232 70.2573 45.4975 73.3858 44.1567 75.7992C42.8159 77.9445 40.8494 80.1791 38.7042 81.5199C36.5589 82.7713 34.3242 84.1121 31.732 84.1121C28.8717 84.0227 25.922 84.2015 23.0616 83.5758C20.1119 82.9501 17.6984 81.3411 15.1062 79.911C12.6034 78.3914 10.4582 76.6931 8.4023 74.6372C4.29054 70.4361 2.32405 64.9835 1.16203 59.3522C0.625718 56.5812 0.80449 53.7209 1.60896 51.0393C1.84733 50.1454 2.17508 49.3112 2.59221 48.5365C3.3073 46.0337 4.73747 43.8884 6.79335 42.3689C9.11739 40.5811 11.799 38.704 14.7487 37.8102C15.5532 37.1845 16.5364 36.7375 17.6984 36.8269C17.6984 36.8269 17.7282 36.8269 17.7878 36.8269C18.1454 36.7673 18.5327 36.7673 18.9499 36.8269C19.367 36.8269 19.7543 36.8567 20.1119 36.9163C20.2906 36.9163 20.4098 36.9461 20.4694 37.0057C20.827 37.0653 21.1547 37.1249 21.4527 37.1845C23.8661 37.4526 26.2795 38.1677 28.6035 38.9722C30.3913 39.5979 32.0002 40.5811 33.5198 41.8325C34.503 42.637 35.3969 43.3521 36.4695 43.9778C37.3634 44.4247 38.2572 45.1398 39.0617 45.7655C40.6707 47.1063 42.1008 49.2516 43.0841 51.0393C44.3355 53.1846 45.4975 55.3298 46.1232 57.7432C46.8383 60.8718 47.1064 64.179 46.2126 67.2182ZM20.1119 38.1677C19.7543 38.1677 19.3074 38.0783 18.9499 38.0783C18.8307 38.1379 18.7115 38.1677 18.5923 38.1677C17.9368 38.2273 17.2813 38.3167 16.6258 38.4359C16.6258 38.5253 16.6258 38.704 16.5364 38.8828C17.9666 39.2403 19.218 40.0448 20.2906 40.6705C21.7208 41.5644 22.7041 42.9052 23.5085 44.3353C24.4918 45.9443 25.5644 47.5532 26.3689 49.2516C28.0672 52.827 28.3354 57.2069 30.4806 60.5142C31.5533 62.1232 33.0728 63.2852 34.3242 64.8047C34.5626 65.0431 34.7712 65.2815 34.9499 65.5198C35.1287 65.8774 35.4863 66.2349 35.8438 66.5031C35.963 66.6223 36.112 66.7414 36.2907 66.8606C36.2907 66.8606 36.3205 66.8606 36.3801 66.8606C36.4993 66.9798 36.6185 67.0692 36.7377 67.1288C36.7973 67.1884 36.8568 67.2182 36.9164 67.2182C36.976 67.2777 37.0356 67.3373 37.0952 67.3969C37.1548 67.3969 37.2144 67.3969 37.274 67.3969C37.274 67.4565 37.3038 67.4863 37.3634 67.4863C37.4825 67.5459 37.6017 67.6055 37.7209 67.6651C37.8997 67.7843 38.1082 67.9035 38.3466 68.0226C38.4062 68.0226 38.436 68.0226 38.436 68.0226C38.9127 68.261 39.3894 68.4994 39.8662 68.7377C39.9258 68.7377 39.9854 68.7675 40.0449 68.8271C40.2833 68.8867 40.4919 68.9463 40.6707 69.0059C41.0878 69.1847 41.5049 69.3336 41.9221 69.4528C42.4584 69.8104 42.7265 69.721 43.3522 69.6316C43.4714 69.6316 43.5906 69.6912 43.7098 69.8104C43.7694 69.6912 43.7992 69.6018 43.7992 69.5422C43.9779 69.4528 44.1567 69.3634 44.2461 69.1847C44.2461 69.0655 44.2461 68.9463 44.2461 68.8271C44.7824 67.9332 45.1399 66.95 45.4081 65.9668C46.0338 63.464 45.5869 60.5142 45.0506 58.1008C44.3355 55.4192 42.9947 52.827 41.4751 50.5924C40.2237 48.4471 38.3466 46.3018 36.112 45.0504C35.1287 44.5141 34.4136 44.0672 33.5198 43.2627C32.7153 42.5476 31.8214 42.0113 30.8382 41.3856C28.8717 40.1342 26.4583 39.3297 24.1342 38.8828C22.7934 38.6146 21.4527 38.3465 20.1119 38.1677ZM6.07826 44.5141C5.78031 44.8121 5.51215 45.11 5.27379 45.408C5.03543 45.8251 4.79707 46.2422 4.5587 46.6594C3.933 47.8214 3.48607 49.1622 3.3073 50.4136C2.94975 52.9164 3.48607 55.0617 4.02239 57.4751C4.5587 59.4416 5.1844 61.6762 6.25704 63.4639C7.41905 65.1623 8.93862 66.8606 10.4582 68.2014C13.3185 70.9724 16.8046 72.8495 20.2013 74.816C22.2571 75.978 24.2236 76.5143 26.5477 76.6037C28.5142 76.6931 30.57 76.7825 32.5365 76.6037C32.8345 76.6037 33.1026 76.5739 33.341 76.5143C33.8177 76.4547 34.2349 76.3951 34.5924 76.3355C34.9499 76.2759 35.3075 76.1568 35.665 75.978C35.7246 75.978 35.7544 75.9482 35.7544 75.8886C35.9332 75.829 36.0822 75.7694 36.2013 75.7098C36.2013 75.6502 36.2311 75.6204 36.2907 75.6204C36.4695 75.5013 36.6483 75.3821 36.8271 75.2629C36.8271 75.2033 36.8568 75.1735 36.9164 75.1735C36.976 75.1139 37.0356 75.0841 37.0952 75.0841C37.2144 75.0245 37.3336 74.965 37.4528 74.9054C37.5719 74.8458 37.6911 74.7862 37.8103 74.7266C37.8103 74.7266 37.8401 74.7266 37.8997 74.7266C38.138 74.667 38.3466 74.6074 38.5254 74.5478C40.0449 74.0115 41.5645 73.2964 41.9221 72.1344C41.9816 72.1344 42.0114 72.1046 42.0114 72.045C42.0114 71.9854 42.0114 71.896 42.0114 71.7768C42.071 71.7768 42.1008 71.7768 42.1008 71.7768C42.1008 71.0618 41.7433 70.5254 41.207 70.1679C41.0878 70.1083 40.9686 70.0487 40.8494 69.9891C40.7302 69.9295 40.6111 69.8699 40.4919 69.8104C40.2535 69.6912 39.9556 69.572 39.598 69.4528C39.4192 69.3932 39.2703 69.3932 39.1511 69.4528C38.9127 69.3336 38.6148 69.2442 38.2572 69.1847C36.3801 68.7377 34.5924 68.5589 32.8047 67.6651C31.1957 66.8606 29.7656 66.2349 28.3354 65.1623C25.475 62.9276 24.0449 59.7991 23.151 56.4025C22.1677 52.827 22.5253 48.894 20.7376 45.5867C20.0225 44.1566 18.7711 42.1901 17.2515 41.3856C16.0895 40.7599 14.5699 40.8493 13.3185 40.4917C12.5141 40.4917 11.7096 40.5811 10.9945 40.7599C9.29616 41.7431 7.32967 43.0839 6.07826 44.5141ZM34.9499 67.2182C34.4136 66.7712 34.0561 66.2349 33.6985 65.788C32.9835 64.8941 32.179 64.2684 31.4639 63.4639C30.3913 62.3019 29.408 61.1399 28.7823 59.7097C28.0672 58.0114 27.4415 56.1343 26.9946 54.3466C26.0113 50.6817 24.2236 47.4639 22.1677 44.3353C21.2739 42.9946 20.2906 42.1901 19.0392 41.3856C20.38 42.637 21.542 44.4247 22.2571 46.1231C23.151 48.3577 23.3298 50.5924 23.5979 52.9164C23.9555 55.5086 24.6706 58.1902 25.8326 60.5142C27.7097 64.0003 31.2851 66.1455 35.0393 67.3075C35.0393 67.248 35.0095 67.2182 34.9499 67.2182ZM44.6036 70.4361C43.531 72.045 42.2796 73.207 40.5813 74.2797C39.598 74.816 38.6148 75.3523 37.5421 75.8886C36.827 76.2461 36.2013 76.7825 35.3969 76.8718C35.1585 76.991 34.8904 77.1102 34.5924 77.2294C32.6259 78.1233 30.1231 77.7657 27.9778 77.7657C26.0113 77.7657 23.6873 77.7657 21.8102 76.8718C19.7543 75.8886 17.7878 74.7266 15.8213 73.5646C11.799 71.3299 8.67046 68.2908 5.81011 64.626C4.5587 63.1064 3.933 61.1399 3.39668 59.2628C2.77098 57.4751 2.23467 55.598 2.05589 53.7209C1.78774 56.1343 1.96651 58.5477 2.6816 61.0505C3.48607 63.6427 4.11177 66.3243 5.45256 68.7377C6.70397 70.9724 8.22353 72.9389 10.1006 74.7266C12.1565 76.6037 14.3018 78.0339 16.7152 79.464C19.1286 80.8942 21.4527 82.1456 24.313 82.5926C26.8158 83.0395 29.5868 83.0395 32.0896 82.9501C34.5924 82.8607 37.6315 81.1624 39.4192 79.5534C41.0282 78.0339 42.6371 76.4249 43.531 74.4584C44.1567 73.1176 44.4249 71.7768 44.6036 70.4361Z" fill="#8E572D"/>
    <path d="M8.31299 61.5871C8.49176 62.1234 9.29623 61.8552 9.11746 61.4083C7.41913 57.2072 6.16772 52.9166 6.9722 48.4473C7.15097 48.3579 7.24035 48.0004 6.9722 47.911C6.9722 47.911 6.9424 47.8812 6.88281 47.8216C6.70404 47.7322 6.43588 47.911 6.43588 48.0898C5.36325 52.6485 6.43588 57.4753 8.31299 61.5871Z" fill="#8E572D"/>
    <path d="M12.9605 63.8215C11.7091 62.1232 10.6365 60.4248 10.4577 58.1902C10.4577 57.7432 9.83203 57.7432 9.83203 58.1902C9.83203 60.5142 10.994 62.3913 12.1561 64.3578C12.5136 64.8047 13.3181 64.2684 12.9605 63.8215Z" fill="#8E572D"/>
    <path d="M38.5254 52.1122C39.7768 53.3636 40.4919 55.5982 40.8494 57.2966C41.2963 59.5312 41.4751 61.7659 41.6539 63.9111C41.6539 64.6262 42.8159 64.6262 42.7265 63.9111C42.5477 61.4977 42.2796 58.9055 41.6539 56.4921C41.2069 54.7938 40.3131 52.4697 38.8829 51.3971C38.7041 51.3077 38.436 51.3077 38.3466 51.4865C38.3466 51.5461 38.3466 51.5759 38.3466 51.5759C38.2572 51.844 38.3466 52.0228 38.5254 52.1122Z" fill="#8E572D"/>
    <path d="M39.3295 59.531C39.4189 60.8718 39.6871 62.0338 39.3295 63.3746C39.2401 63.9109 40.134 64.1791 40.134 63.5534C40.4022 62.1232 40.0446 60.8718 39.8658 59.4416C39.7765 59.1735 39.3295 59.1735 39.3295 59.531Z" fill="#8E572D"/>
    <path d="M17.4305 22.3465C17.6092 23.2404 17.6986 24.4024 18.3243 25.2069C18.7712 25.7432 19.7545 25.2069 19.3076 24.4918C18.8606 23.7767 18.6819 22.5253 18.5031 21.6315C18.3243 20.3801 18.1455 19.1287 17.9668 17.7879C17.788 15.732 17.6986 13.6761 17.788 11.5308C18.1455 11.3521 18.1455 10.637 17.6092 10.5476C17.5496 10.5476 17.4602 10.5476 17.3411 10.5476C16.9835 10.4582 16.7154 10.7264 16.7154 11.0839C16.5366 13.7655 16.626 16.4471 16.9835 19.1287C17.0431 20.2013 17.1921 21.2739 17.4305 22.3465Z" fill="#8E572D"/>
    <path d="M24.2234 26.8157C24.6703 27.352 25.6536 26.8157 25.2066 26.19C24.4022 25.1173 24.134 23.9553 23.9552 22.7039C23.6871 21.5419 22.6144 17.7877 23.4189 16.6256C23.7765 16.1787 23.0614 15.553 22.7038 15.9999C22.2569 16.6256 22.0781 17.0726 22.0781 17.7877C22.0781 19.0391 22.4357 20.3799 22.6144 21.6313C22.8826 23.3296 23.0614 25.3855 24.2234 26.8157Z" fill="#8E572D"/>
    <path d="M69.4528 60.1569C69.0059 62.481 68.5589 64.805 67.7545 67.0396C66.95 69.5424 65.5198 71.2408 63.9109 73.2967C63.4639 73.833 64.3578 74.7268 64.8047 74.1011C66.2349 72.224 67.5757 70.6151 68.3802 68.3804C69.3634 65.7882 69.8997 63.1067 70.4361 60.3357C70.5254 59.71 69.5422 59.5312 69.4528 60.1569Z" fill="#8E572D"/>
    <path d="M74.6378 67.4866C74.8165 69.3637 74.2802 71.1514 73.7439 72.9391C73.3864 73.9224 73.297 75.3525 72.7607 76.4252C72.4031 76.4252 72.135 76.7827 72.3137 77.1403C72.3137 77.1999 72.3435 77.2892 72.4031 77.4084C72.5819 77.9447 73.2076 77.9447 73.4758 77.4978C74.2802 76.3358 74.2802 74.7268 74.7272 73.4754C75.3529 71.5089 75.8892 69.5424 75.7104 67.3972C75.621 66.7715 74.6378 66.8609 74.6378 67.4866Z" fill="#8E572D"/>
  </g>
  <defs>
    <clipPath id="clip0_214_991">
      <rect width="94.7492" height="84.0228" fill="white"/>
    </clipPath>
  </defs>
</svg>