<svg width="264" height="509" viewBox="0 0 264 509" fill="none" xmlns="http://www.w3.org/2000/svg">
<g filter="url(#filter0_d_203_16)">
<path d="M2.7664 387.008C4.9664 387.508 7.1664 388.108 9.3664 388.808C12.4664 389.808 15.4664 391.308 18.7664 392.008C22.1664 392.608 25.6664 392.208 29.0664 391.908C32.2664 391.608 35.6664 391.508 38.5664 389.808C40.8664 388.608 43.1664 386.808 45.8664 386.608C47.5664 388.508 49.2664 390.408 51.0664 392.108C54.5664 395.408 57.5664 399.308 61.5664 401.808C65.4664 404.008 69.0664 406.708 72.3664 409.808C74.1664 411.608 76.4664 412.908 78.6664 414.208C77.1331 413.675 75.5664 413.175 73.9664 412.708C66.3664 410.508 58.6664 413.008 52.6664 417.708C50.6664 419.008 48.5664 420.008 46.6664 421.308C44.1664 423.008 42.3664 425.508 39.9664 427.508C38.6664 428.708 36.6664 429.208 35.4664 430.608C34.2664 432.308 35.9664 434.208 37.8664 433.708C39.9664 433.408 41.7664 432.208 43.5664 431.208C45.6664 430.108 47.4664 428.708 49.4664 427.608C51.4664 426.608 53.6664 426.008 55.6664 425.108C58.6664 423.808 61.6664 422.408 64.8664 422.108C70.1664 421.208 75.4664 421.008 80.7664 421.608C84.1664 421.808 87.0664 423.208 90.0664 424.708C95.9664 427.008 101.866 429.308 107.566 432.008C109.266 432.608 110.866 433.108 112.466 433.708C120.166 436.908 123.666 444.208 130.466 448.508C127.966 450.508 123.666 451.508 120.666 450.208C118.366 449.408 115.966 448.508 113.866 447.308C111.566 446.008 109.566 444.308 107.266 443.008C103.366 440.308 98.6664 439.708 94.0664 439.308C90.3664 438.808 86.7664 438.708 83.0664 439.108C78.5664 439.608 73.7664 439.708 69.7664 442.108C68.5664 442.708 66.6664 443.108 66.7664 444.808C67.0664 446.808 69.3664 447.608 70.6664 448.808C78.1664 454.908 86.8664 459.108 96.1664 461.508C105.066 464.308 114.666 461.708 122.466 457.108C125.966 455.508 129.666 454.308 133.066 452.508C133.166 452.508 133.366 452.308 133.466 452.208C135.066 454.508 136.566 456.808 138.166 459.008C141.266 463.108 145.466 466.008 149.066 469.608C152.766 473.108 155.966 477.208 159.866 480.608C163.766 483.908 168.366 486.408 172.366 489.508C176.566 492.408 180.266 496.408 185.266 497.608C187.766 498.008 189.066 494.708 187.166 493.208C186.366 492.708 185.466 492.508 184.766 492.008C181.666 489.908 178.966 487.508 175.966 485.408C172.566 482.808 168.866 480.608 165.366 478.208C161.266 475.208 157.866 471.508 154.366 468.108C150.966 464.708 147.066 462.008 143.666 458.808C134.966 450.008 128.066 439.608 119.166 430.908C116.266 427.608 114.866 423.308 112.566 419.608C109.166 414.108 106.366 408.208 103.466 402.408C103.766 401.208 103.766 399.808 103.966 399.108C104.266 395.408 103.666 391.308 104.766 387.708C105.966 383.908 110.266 381.908 113.466 379.508C115.066 378.308 116.566 376.908 117.966 375.408C124.566 369.508 131.066 362.908 131.966 353.508C132.866 348.408 131.966 343.208 130.966 338.108C129.266 329.408 122.166 341.608 120.066 344.308C116.166 350.108 110.266 354.308 106.866 360.508C104.966 364.208 102.466 367.808 101.966 372.008C101.266 378.808 102.366 385.708 101.466 392.508C101.333 394.108 101.233 395.741 101.166 397.408C99.7664 394.141 98.3664 390.875 96.9664 387.608C96.8997 387.341 96.8664 387.108 96.8664 386.908C96.8664 380.208 96.5664 373.508 96.3664 366.908C96.3664 365.408 96.2664 363.808 96.1664 362.308C96.3664 362.108 96.5664 361.908 96.5664 361.508C96.5664 361.208 96.4664 360.908 96.4664 360.608C96.1664 357.808 96.4664 354.908 96.5664 352.008C96.7664 343.208 97.6664 332.608 101.766 324.708C105.766 316.908 109.266 317.708 116.866 314.908C121.466 313.208 126.266 310.808 129.566 307.108C131.866 304.408 133.066 301.008 134.066 297.708C134.666 295.108 137.266 284.708 133.066 284.608C132.366 284.708 131.766 285.208 131.266 285.608C127.666 289.108 123.666 292.108 119.766 295.208C116.466 297.908 113.866 301.108 111.066 304.308C108.266 308.008 103.666 310.108 101.466 314.308C100.266 316.508 99.7664 319.008 98.9664 321.408C98.2331 323.675 97.5331 325.975 96.8664 328.308C97.1664 322.208 97.8664 316.208 97.7664 310.208C97.6664 302.708 104.466 295.208 110.466 291.508C111.666 290.608 113.166 289.708 114.266 288.508C119.166 290.908 126.266 284.708 124.966 279.608C124.766 279.108 124.466 278.608 124.166 278.208C124.866 277.208 125.666 276.208 126.566 275.308C126.966 275.641 127.466 275.941 128.066 276.208C136.766 279.208 142.466 270.408 140.366 262.608C139.966 261.308 138.966 260.208 137.866 259.408C138.066 259.141 138.266 258.875 138.466 258.608C141.866 261.008 147.166 260.608 149.666 257.108C152.166 253.608 152.666 247.308 148.666 244.708C145.966 242.508 138.166 242.408 137.366 246.608C134.966 249.108 134.466 253.508 136.266 256.408C136.133 256.741 135.966 257.075 135.766 257.408C135.633 257.608 135.5 257.841 135.366 258.108C135.466 257.808 130.366 257.608 129.866 257.808C127.866 258.408 127.666 258.808 126.466 260.408C123.966 263.708 123.066 269.008 124.766 272.808C123.866 273.908 123.066 275.108 122.366 276.308C122.266 276.408 122.266 276.608 122.166 276.708C119.266 275.408 115.266 276.308 113.466 279.008C111.466 280.508 111.066 283.808 112.166 286.308C109.066 288.908 105.466 291.008 102.766 294.008C106.466 284.708 111.166 275.608 113.966 266.008C115.866 259.808 120.966 254.908 121.266 248.308C121.466 245.308 121.166 242.408 121.066 239.508C121.066 236.508 120.966 233.608 120.366 230.708C119.966 228.108 119.366 225.508 118.666 222.908C118.266 221.008 117.066 217.408 114.566 219.108C113.666 220.208 113.166 221.608 112.566 222.808C111.166 225.508 109.666 228.108 108.166 230.808C106.066 234.608 103.766 238.408 102.766 242.708C100.466 250.808 103.766 258.908 105.666 266.808C107.266 274.408 106.466 277.308 103.066 284.108C101.566 287.808 100.366 291.508 98.7664 295.208C98.5664 295.675 98.3664 296.175 98.1664 296.708C98.1664 296.641 98.1331 296.575 98.0664 296.508C97.0664 293.508 95.6664 292.008 95.4664 288.708C95.3664 284.408 96.4664 280.108 96.3664 275.808C95.8664 267.608 92.4664 259.908 89.5664 252.308C89.1664 250.908 88.1664 249.608 86.5664 250.408C85.6664 251.008 85.4664 252.108 85.0664 252.908C81.2664 261.208 80.5664 271.308 83.4664 280.008C84.4664 282.808 86.1664 285.208 87.5664 287.708C88.6664 289.508 89.7664 291.308 91.1664 292.908C94.5664 296.808 95.5664 297.208 95.0664 302.208C94.5664 307.608 94.6664 313.308 94.3664 318.808C94.0664 324.908 93.8664 330.908 94.2664 337.108C94.3331 338.241 94.3997 339.408 94.4664 340.608C94.2664 342.408 94.0664 344.208 93.9664 346.008C93.9664 346.341 93.9664 346.641 93.9664 346.908C91.7664 336.508 87.9664 326.508 81.7664 318.208C80.3664 316.508 79.0664 314.708 77.6664 313.108C76.8664 312.208 75.6664 310.808 74.3664 311.608C71.5664 313.908 73.6664 320.008 74.5664 323.008C77.6664 332.808 83.4664 341.308 87.5664 350.608C89.1664 353.908 90.9664 357.008 92.5664 360.208C93.0664 366.408 92.9664 372.508 93.4664 378.708C93.5331 378.975 93.5664 379.241 93.5664 379.508C89.7664 370.708 86.0664 361.908 82.0664 353.108C80.1664 348.608 78.0664 344.208 75.4664 340.008C72.9664 336.308 71.7664 332.108 70.8664 327.808C69.0664 320.308 68.2664 312.708 67.9664 305.008C67.7664 297.308 68.6664 289.608 69.6664 281.908C71.2664 270.008 72.1664 258.108 74.3664 246.308C75.0664 242.608 75.9664 238.908 76.6664 235.108C77.2664 231.108 78.0664 227.108 79.2664 223.208C80.3664 219.308 81.1664 215.408 82.1664 211.608C83.5664 206.908 84.9664 202.308 86.2664 197.608C86.9664 194.908 88.2664 192.408 89.4664 189.908C91.4664 185.408 92.6664 180.608 94.7664 176.208C97.3664 171.508 98.3664 166.008 101.366 161.608C104.766 156.508 110.066 154.608 115.966 155.208C121.066 155.808 125.666 158.608 130.766 158.808C135.366 159.208 140.166 159.708 144.566 158.008C148.666 156.308 153.166 155.008 156.666 152.208C158.766 150.708 158.866 148.108 155.866 148.008C151.666 146.508 147.366 145.108 142.966 144.708C139.866 144.508 136.866 145.208 133.966 145.608C131.066 146.008 128.166 146.208 125.466 147.208C123.266 147.908 121.166 148.808 119.066 149.708C117.466 150.208 115.766 150.508 114.066 150.808C116.366 149.508 118.766 148.308 120.866 146.808C123.566 144.808 126.066 142.408 129.266 141.208C131.066 140.508 132.966 139.908 134.766 139.208C138.566 137.608 142.266 135.808 145.866 134.008C148.566 132.608 152.066 130.808 154.966 130.108C163.066 128.208 162.166 136.508 166.166 141.008C173.066 148.808 187.666 146.508 196.666 145.108C197.766 144.808 199.066 144.908 200.066 144.508C200.866 144.008 201.166 142.908 200.566 142.208C200.066 141.608 199.266 141.508 198.466 141.508C194.466 140.808 190.866 138.408 187.666 135.908C184.966 133.908 182.666 131.408 179.766 129.708C177.866 128.608 175.766 128.008 173.666 127.408C172.066 126.908 170.366 126.608 168.766 126.408C169.433 126.341 170.1 126.241 170.766 126.108C174.666 125.508 178.366 124.208 182.166 123.308C183.233 123.041 184.3 122.775 185.366 122.508C185.766 124.008 186.366 125.508 187.366 126.708C191.166 130.808 198.666 129.908 201.466 125.108C202.466 123.308 202.566 121.108 202.366 119.108C202.366 118.608 202.166 117.808 201.866 117.008C202.566 116.608 203.366 116.208 203.966 115.708C204.033 115.708 204.1 115.675 204.166 115.608C205.366 117.508 207.366 119.008 209.466 119.708C210.6 120.041 211.633 120.208 212.566 120.208C219.566 120.208 223.066 112.208 217.866 106.308C217.666 105.908 217.366 105.708 217.066 105.408C217.8 104.675 218.5 103.975 219.166 103.308C219.366 103.008 219.666 102.808 219.966 102.708C220.1 102.641 220.233 102.541 220.366 102.408C220.366 102.408 220.4 102.375 220.466 102.308C221.666 103.208 223.066 103.608 224.566 103.608C227.266 103.808 229.366 101.308 229.866 98.8081C230.566 94.1081 224.866 90.6081 220.666 92.0081C217.466 93.3081 215.366 98.4081 217.866 101.108C217.8 101.108 217.766 101.141 217.766 101.208C216.766 102.208 215.733 103.141 214.666 104.008C211.066 102.708 204.366 106.108 203.166 109.708C202.866 110.608 202.766 111.508 202.866 112.408C202.166 112.808 201.566 113.308 200.766 113.508C198.966 109.208 190.066 110.008 187.566 113.208C186.366 114.708 185.566 116.608 185.366 118.608C184.366 118.808 183.4 119.041 182.466 119.308C180.566 119.708 178.766 120.208 176.866 120.708C178.866 119.375 180.733 117.908 182.466 116.308C185.866 113.008 187.966 108.708 190.866 104.908C191.966 103.308 193.166 101.808 194.066 100.008C196.366 92.8081 183.066 99.9081 181.066 101.908C177.266 104.808 174.966 109.108 171.866 112.708C169.666 115.508 166.766 117.708 164.466 120.508C163.866 121.508 162.866 122.408 162.666 123.608C160.766 124.008 158.966 124.408 157.166 125.108C153.766 126.508 150.366 128.008 146.966 129.308C143.166 130.708 139.766 132.808 136.166 134.408C135.466 134.708 134.866 134.908 134.166 135.208C134.3 134.875 134.466 134.575 134.666 134.308H135.066C143.966 128.108 150.866 119.408 157.866 111.108C158.533 110.375 159.2 109.641 159.866 108.908C160.366 108.408 160.966 108.008 160.866 107.308C160.766 106.508 160.166 105.908 159.366 106.008C157.566 106.508 155.866 107.408 154.066 108.108C143.166 112.708 136.966 117.408 133.366 129.108C132.666 130.908 131.966 132.708 131.166 134.408C130.866 134.908 130.566 135.408 130.466 136.008C130.4 136.208 130.4 136.408 130.466 136.608C128.566 137.308 126.666 138.008 124.866 139.108C121.766 140.808 119.366 143.708 116.166 145.208C111.366 147.608 106.966 150.508 102.966 154.008C103.1 153.408 103.266 152.775 103.466 152.108C104.366 150.008 105.966 148.208 107.466 146.408C111.666 141.808 116.466 137.908 120.766 133.408C122.266 131.808 123.566 130.108 124.966 128.408C127.566 125.208 130.866 122.608 133.966 119.708C138.666 115.108 141.966 109.208 146.766 104.708C152.366 99.7081 158.366 95.1081 164.566 90.9081C165.666 93.2081 167.466 95.2081 169.766 96.5081C175.066 99.6081 182.066 98.2081 186.466 94.2081C189.166 92.1081 191.066 88.8081 190.866 85.3081C191.066 82.7081 190.066 80.4081 188.366 78.5081C188.833 78.3081 189.266 78.1415 189.666 78.0081C189.666 78.0748 189.7 78.1415 189.766 78.2081C190.766 83.6081 196.266 87.0081 201.566 87.0081C206.666 87.5081 211.166 83.1081 212.166 78.3081C212.466 76.5081 212.766 74.6081 212.666 72.7081C213.066 73.6081 213.566 74.4081 214.266 75.2081C216.466 77.9081 219.766 80.1081 223.366 80.4081C228.566 81.7081 233.966 78.4081 236.366 73.8081C237.966 70.2081 238.666 65.6081 236.666 62.0081C234.866 58.9081 231.466 57.1081 228.066 56.1081C223.566 53.8081 217.566 55.6081 214.766 59.7081C213.266 61.7081 212.266 64.0081 211.966 66.4081C211.5 66.5415 211.066 66.6748 210.666 66.8081C209.8 65.8081 208.866 64.8748 207.866 64.0081C207.766 63.9081 207.766 63.8081 207.766 63.7081C207.566 63.2081 207.166 63.0081 206.766 62.7081C203.966 60.6081 200.066 60.8081 196.766 61.7081C192.966 62.6081 190.166 65.9081 189.266 69.7081C188.766 71.2081 188.766 72.7081 188.966 74.2081C187.833 74.6081 186.7 75.0081 185.566 75.4081C184.266 74.4081 182.766 73.6081 181.366 72.8081C177.366 71.2081 172.366 72.4081 169.166 75.0081C166.966 77.2081 164.566 79.5081 163.766 82.6081C163.466 83.9081 163.366 85.2081 163.466 86.6081C158.466 89.8081 153.666 93.2081 149.166 97.1081C148.566 97.6081 148.066 98.1081 147.466 98.6081C148 97.4081 148.5 96.1748 148.966 94.9081C151.966 88.8081 154.466 82.5081 157.366 76.3081C158.866 72.8081 161.166 69.8081 163.966 67.3081C166.433 64.7081 169.1 62.3415 171.966 60.2081C176.466 56.6081 180.766 52.7081 185.866 50.1081C192.466 46.6081 200.366 44.8081 207.866 43.3081C211.066 42.6081 214.266 41.5081 217.466 41.0081C221.366 40.3081 224.866 40.7081 228.566 39.0081C232.566 37.6081 235.866 34.9081 238.766 31.8081C243.066 26.7081 247.566 21.6081 251.566 16.3081C253.266 14.0081 251.966 12.5081 249.366 13.2081C246.266 13.8081 243.266 14.7081 240.166 15.4081C236.066 16.7081 231.966 18.3081 227.966 19.8081C223.566 21.9081 219.466 24.9081 216.166 28.5081C213.366 31.9081 210.866 38.4081 206.166 38.9081C204.266 39.2081 202.466 39.4081 200.666 39.6081C200.966 38.9081 201.366 38.3081 201.766 37.7081C204.066 33.8081 206.666 30.1081 208.866 26.1081C210.666 23.4081 210.066 20.3081 209.266 17.4081C208.866 15.2081 208.366 13.1081 207.566 11.0081C206.866 8.70813 205.166 6.70813 204.966 4.20813C204.766 3.00813 204.866 1.20813 203.466 0.608127C200.166 -0.591873 199.766 5.00813 198.866 7.10813C197.166 12.4081 196.066 18.0081 194.666 23.5081C193.266 29.4081 192.766 35.6081 192.866 41.6081C192.866 42.0081 193.066 42.4081 193.366 42.6081C188.166 44.5081 182.966 46.3081 178.466 49.5081C174.366 52.6081 170.166 55.7081 166.166 59.1081C166.566 56.7748 167.033 54.5081 167.566 52.3081C169.166 48.4081 171.066 44.7081 173.166 41.1081C174.466 38.7081 175.966 36.3081 176.666 33.7081C178.166 28.6081 178.966 26.1081 177.166 20.8081C176.566 18.5081 176.966 15.9081 175.966 13.6081C174.966 11.2081 172.866 12.0081 171.666 13.7081C168.866 16.7081 167.066 20.4081 165.266 24.1081C163.266 28.1081 161.666 32.3081 160.766 36.6081C159.866 41.0081 159.566 45.5081 159.766 50.0081C160.266 52.7081 160.366 55.4081 160.866 58.1081C161.166 59.6081 161.366 61.4081 162.166 62.7081C160.166 64.7081 158.266 66.7081 156.566 69.0081C153.266 74.1081 150.966 79.9081 148.466 85.4081C148 86.6081 147.5 87.8081 146.966 89.0081C147.166 85.7415 147.433 82.5081 147.766 79.3081C147.966 76.6081 147.366 74.0081 146.966 71.5081C146.466 65.7081 142.766 61.2081 139.366 56.9081C137.666 54.8081 131.266 46.1081 128.866 46.5081C127.466 46.7081 127.266 48.4081 127.666 49.5081C128.166 51.1081 128.466 52.7081 128.766 54.3081C130.366 59.5081 129.666 65.0081 131.566 70.2081C132.566 74.6081 134.866 78.5081 136.866 82.5081C138.466 85.5081 139.166 88.9081 140.666 92.0081C141.566 93.8081 142.166 95.8081 142.166 97.9081C142.266 98.4081 142.166 99.0081 142.266 99.5081C141.866 100.108 141.566 100.808 141.266 101.308C140.066 103.408 139.066 105.608 138.166 107.808C137.9 108.275 137.666 108.741 137.466 109.208C137 109.875 136.5 110.541 135.966 111.208C132.366 116.608 126.766 120.108 122.566 124.908C119.766 128.308 116.866 131.608 113.666 134.508C108.666 139.708 102.766 144.108 99.7664 150.808C96.8664 157.208 95.1664 164.508 92.2664 170.708C91.0664 173.308 89.5664 175.908 88.6664 178.608C86.8664 183.708 84.5664 188.708 82.5664 193.708C79.5664 203.208 77.0664 212.808 74.6664 222.508C72.9664 228.108 72.2664 233.908 70.9664 239.608C69.1664 247.608 68.3664 255.808 67.3664 264.008C66.7664 259.308 65.9664 254.708 65.3664 250.108C64.9664 245.175 64.3997 240.241 63.6664 235.308C63.2664 231.708 61.7664 228.408 61.2664 224.808C60.4664 221.808 61.4664 218.908 62.7664 216.208C63.8331 213.808 64.8331 211.408 65.7664 209.008C69.0664 199.308 71.4664 189.408 73.9664 179.508C75.7664 173.608 77.1664 167.608 78.1664 161.608C78.5664 161.408 78.8664 161.008 78.9664 160.508C79.3664 159.608 80.1664 158.808 80.7664 157.908C81.3664 157.208 81.9664 156.508 82.5664 155.808C83.7664 156.708 85.3664 157.308 87.3664 157.508C94.3664 157.708 99.2664 149.108 94.6664 143.908C95.6664 142.908 96.7664 142.108 97.8664 141.208C101.966 142.808 107.266 140.508 108.666 136.008C109.766 133.408 109.166 130.608 107.366 128.908C108.266 128.108 109.366 127.508 110.266 126.608C110.466 126.741 110.666 126.841 110.866 126.908C113.266 127.908 116.066 127.208 117.766 125.308C119.566 123.408 121.066 120.208 119.266 117.808C115.766 113.008 106.266 112.708 106.166 120.008C106.066 121.908 106.866 123.708 108.066 125.008C107.166 125.908 106.166 126.708 105.466 127.708C104.933 127.508 104.366 127.375 103.766 127.308C102.666 127.108 101.366 126.808 100.366 127.408C95.0664 127.208 92.1664 135.808 95.3664 139.608C95.3664 139.608 95.3997 139.641 95.4664 139.708C94.4664 140.508 93.4664 141.308 92.6664 142.308C91.4664 141.708 90.1664 141.508 88.8664 141.408C88.1664 141.408 87.3664 141.208 86.6664 141.608C86.3664 141.808 86.2664 142.208 85.7664 142.108C82.9664 142.608 81.7664 145.708 81.1664 148.208C80.4664 150.108 80.4664 151.808 80.8664 153.208C80.2664 154.108 79.6664 154.808 79.2664 155.208C79.2664 155.408 79.0664 155.508 78.9664 155.708C79.2664 152.408 79.4664 149.008 79.4664 145.708C79.5664 139.408 79.9664 133.208 79.9664 126.908C80.3664 121.908 80.6664 116.908 80.2664 111.908C79.6664 107.908 79.2664 104.008 78.6664 100.108C77.8664 96.3081 76.8997 92.5415 75.7664 88.8081C74.2664 84.7081 71.3664 81.5081 69.4664 77.6081C68.3664 75.9081 67.3664 72.3081 64.7664 73.1081C62.5664 74.3081 63.3664 77.8081 63.0664 80.0081C62.5664 91.6081 60.1664 104.108 66.1664 114.708C68.4664 119.108 70.7664 123.608 72.5664 128.308C73.8664 131.608 74.7664 135.108 76.2664 138.308C75.8664 143.808 75.8664 149.308 75.1664 154.808C74.5664 160.508 73.2664 166.108 71.8664 171.608C71.7331 170.008 71.5997 168.408 71.4664 166.808C70.9664 160.508 71.4664 153.808 68.2664 148.208C66.6664 145.208 64.1664 142.908 61.2664 141.208C57.2664 138.408 52.6664 136.508 47.6664 136.908C46.8664 137.008 46.0664 137.508 45.9664 138.408C45.8664 139.408 46.5664 140.008 47.2664 140.608C48.0664 141.308 48.9664 142.008 49.8664 142.708C51.5664 144.108 52.7664 146.008 53.9664 147.908C55.5664 150.808 57.6664 153.608 59.4664 156.408C62.2664 160.808 64.0664 165.708 66.2664 170.408C67.8664 173.608 67.7664 177.408 69.1664 180.608C69.2664 180.608 69.3664 180.708 69.3664 180.708C68.9664 182.175 68.5997 183.608 68.2664 185.008C65.4664 194.508 63.1664 204.208 59.4664 213.508C59.0664 212.508 58.7664 211.508 58.5664 210.508C57.2664 204.608 56.0664 198.608 53.7664 193.008C52.3664 189.208 49.4664 185.608 45.3664 184.808C42.5664 184.308 39.7664 184.808 37.0664 184.808C33.0664 184.708 29.1664 184.508 25.1664 184.708C22.4664 184.808 15.3664 184.608 16.8664 189.108C17.9664 190.708 20.2664 190.808 21.9664 191.508C24.3664 192.308 26.7664 193.008 28.8664 194.408C32.4664 197.008 35.9664 199.808 38.9664 203.108C41.2664 205.208 43.7664 207.108 46.0664 209.208C52.4664 215.608 56.5664 223.708 58.6664 232.708C60.4664 240.308 60.6664 248.208 62.1664 255.908C63.1664 260.708 64.1664 265.608 64.5664 270.508C63.7664 269.508 62.8664 268.708 62.5664 268.308C60.0664 266.108 56.2664 265.408 53.8664 263.008C51.1664 260.308 51.6664 255.708 51.1664 251.908C50.6664 247.208 49.8664 242.508 47.5664 238.308C45.5664 233.708 42.1664 231.308 37.4664 230.108C32.7664 228.408 27.7664 228.508 22.7664 228.808C20.1664 229.308 11.5664 227.708 11.9664 231.808C12.2664 233.308 13.8664 234.208 15.0664 235.208C18.0664 237.508 21.7664 238.808 25.1664 240.508C27.9664 241.408 30.1664 243.408 31.7664 245.808C35.6664 251.608 39.8664 257.208 44.3664 262.508C46.9664 265.308 51.1664 264.808 54.2664 266.708C58.1664 268.508 62.1664 270.708 64.6664 274.408C64.6664 274.475 64.6997 274.541 64.7664 274.608C64.7664 276.808 64.7664 279.008 64.8664 281.208C64.2664 286.308 63.6664 291.408 63.2664 296.508C62.7664 303.808 63.4664 311.108 64.4664 318.408C64.9664 323.508 66.2664 328.608 67.5664 333.608C68.6664 337.908 71.2664 341.708 73.4664 345.508C77.6664 353.908 81.1664 362.808 85.0664 371.408C87.4664 376.408 89.2664 381.808 91.5664 387.008C93.2997 390.675 94.8997 394.375 96.3664 398.108C97.7664 401.708 99.7664 405.108 101.566 408.608C103.466 412.208 105.066 416.008 107.266 419.408C107.866 420.275 108.433 421.175 108.966 422.108C107.566 420.808 106.266 419.608 105.166 418.108C99.9664 411.808 94.1664 406.008 89.0664 399.508C84.8664 394.608 81.2664 389.108 76.5664 384.608C77.7664 383.108 78.5664 381.208 78.5664 378.808C78.5664 376.908 78.2664 374.808 76.6664 373.708C74.2664 371.908 69.9664 371.708 67.4664 373.408C66.9664 373.908 66.2664 374.108 65.7664 374.708C64.3664 375.708 63.5664 377.308 63.1664 379.008C62.5664 382.108 63.7664 386.108 67.0664 387.008C69.7664 387.908 72.3664 387.608 74.3664 386.408C74.6331 386.675 74.8664 386.908 75.0664 387.108C76.1664 388.308 77.2664 389.608 78.2664 390.808C84.1664 399.308 90.5664 407.508 97.7664 415.008C101.366 418.908 104.466 423.408 108.866 426.508C110.366 427.708 111.966 428.808 113.266 430.308C111.8 429.641 110.333 429.041 108.866 428.508C106.566 427.408 104.466 426.108 102.066 425.208C98.2664 423.608 94.3664 422.108 90.6664 420.408C90.1664 419.608 89.2664 419.108 88.4664 418.608C85.8664 415.408 82.6664 412.808 79.0664 410.708C75.5664 408.708 72.9664 405.608 69.9664 403.008C67.5664 400.808 64.6664 399.408 62.2664 397.408C59.5664 395.108 57.4664 392.308 54.9664 389.808C48.3664 383.408 43.0664 376.008 38.7664 368.008C38.0664 367.108 38.0664 366.008 37.7664 365.108C36.1664 359.808 34.9664 354.408 34.3664 348.908C33.0664 334.908 29.6664 325.408 18.7664 315.908C17.2664 314.408 13.2664 310.708 12.1664 314.408C12.1664 316.208 12.5664 318.108 12.8664 320.008C14.1664 326.608 15.9664 333.108 18.4664 339.308C20.0664 343.408 21.2664 347.708 23.5664 351.408C26.6664 356.408 29.5664 361.408 32.9664 366.108C34.8664 369.208 35.9664 372.008 37.6664 375.108C38.4664 376.641 39.3664 378.108 40.3664 379.508C38.7664 378.908 37.0664 378.408 35.3664 378.108C31.2664 377.208 26.9664 377.808 22.8664 378.208C17.3664 378.708 11.9664 379.908 6.6664 381.608C4.4664 382.208 -1.5336 382.308 0.3664 386.008C0.9664 386.708 1.9664 386.908 2.7664 387.008Z" fill="#8E572D"/>
</g>
<defs>
<filter id="filter0_d_203_16" x="0" y="0.441406" width="263.333" height="508.2" filterUnits="userSpaceOnUse" color-interpolation-filters="sRGB">
<feFlood flood-opacity="0" result="BackgroundImageFix"/>
<feColorMatrix in="SourceAlpha" type="matrix" values="0 0 0 0 0 0 0 0 0 0 0 0 0 0 0 0 0 0 127 0" result="hardAlpha"/>
<feOffset dx="7" dy="7"/>
<feGaussianBlur stdDeviation="2"/>
<feComposite in2="hardAlpha" operator="out"/>
<feColorMatrix type="matrix" values="0 0 0 0 0 0 0 0 0 0 0 0 0 0 0 0 0 0 0.25 0"/>
<feBlend mode="normal" in2="BackgroundImageFix" result="effect1_dropShadow_203_16"/>
<feBlend mode="normal" in="SourceGraphic" in2="effect1_dropShadow_203_16" result="shape"/>
</filter>
</defs>
</svg>
