<svg xmlns="http://www.w3.org/2000/svg" width="60" height="60" viewBox="0 0 60 60" fill="none">
  <path d="M0.5 60L4.68235 44.5925C2.10154 40.0825 0.745437 34.97 0.747917 29.7275C0.755354 13.3375 13.9817 0 30.2326 0C38.1189 0.0025 45.5216 3.1 51.0899 8.72C56.6556 14.34 59.7198 21.81 59.7174 29.755C59.7099 46.1475 46.4836 59.485 30.2326 59.485C25.2991 59.4825 20.4374 58.235 16.1311 55.865L0.5 60ZM16.8551 50.4825C21.0101 52.97 24.9768 54.46 30.2227 54.4625C43.7292 54.4625 54.7317 43.3775 54.7392 29.75C54.7441 16.095 43.7937 5.025 30.2425 5.02C16.7261 5.02 5.73104 16.105 5.72608 29.73C5.7236 35.2925 7.34002 39.4575 10.0547 43.815L7.57802 52.935L16.8551 50.4825ZM45.0853 36.8225C44.9019 36.5125 44.411 36.3275 43.6722 35.955C42.9359 35.5825 39.3138 33.785 38.637 33.5375C37.9627 33.29 37.4718 33.165 36.9784 33.91C36.4876 34.6525 35.0744 36.3275 34.6455 36.8225C34.2167 37.3175 33.7853 37.38 33.049 37.0075C32.3127 36.635 29.9376 35.8525 27.1238 33.32C24.9347 31.35 23.4546 28.9175 23.0257 28.1725C22.5968 27.43 22.9811 27.0275 23.348 26.6575C23.6802 26.325 24.0843 25.79 24.4537 25.355C24.8281 24.925 24.9495 24.615 25.1974 24.1175C25.4429 23.6225 25.3214 23.1875 25.1355 22.815C24.9495 22.445 23.4769 18.7875 22.8646 17.3C22.2646 15.8525 21.6572 16.0475 21.206 16.025L19.7929 16C19.302 16 18.5037 16.185 17.8294 16.93C17.155 17.675 15.251 19.47 15.251 23.1275C15.251 26.785 17.8913 30.3175 18.2583 30.8125C18.6277 31.3075 23.4521 38.8125 30.8425 42.03C32.6002 42.795 33.9737 43.2525 35.0422 43.595C36.8074 44.16 38.4139 44.08 39.6832 43.89C41.0988 43.6775 44.0416 42.0925 44.6564 40.3575C45.2713 38.62 45.2713 37.1325 45.0853 36.8225Z" fill="#1E1E1E"/>
</svg>